<svg width="48" height="48" viewBox="0 0 48 48" fill="none" xmlns="http://www.w3.org/2000/svg">
<circle cx="24" cy="24" r="24" fill="#F7931A"/>
<path fill-rule="evenodd" clip-rule="evenodd" d="M33.9373 20.8646C34.4367 17.5022 31.8951 15.6946 28.4198 14.4888L29.5471 9.93391L26.7947 9.24295L25.6971 13.6778C24.9735 13.4961 24.2303 13.3248 23.4919 13.155L24.5972 8.69097L21.8463 8L20.7182 12.5533C20.1193 12.4159 19.5313 12.28 18.9606 12.1371L18.9637 12.1229L15.1678 11.1682L14.4356 14.1295C14.4356 14.1295 16.4778 14.6009 16.4347 14.6301C17.5495 14.9104 17.751 15.6535 17.7173 16.2426L16.4331 21.4316C16.51 21.4513 16.6095 21.4798 16.7193 21.524L16.626 21.5005C16.5622 21.4844 16.496 21.4677 16.4284 21.4513L14.6285 28.7203C14.4921 29.0614 14.1463 29.5731 13.3671 29.3789C13.3945 29.4191 11.3664 28.8758 11.3664 28.8758L10 32.0495L13.5819 32.949C13.9819 33.0499 14.377 33.1538 14.7681 33.2565L14.7681 33.2565C15.0286 33.3249 15.2872 33.3928 15.5441 33.4591L14.405 38.0661L17.1544 38.757L18.2825 34.199C19.0335 34.4044 19.7626 34.5939 20.476 34.7723L19.3518 39.309L22.1043 40L23.2433 35.4017C27.9369 36.2964 31.4663 35.9355 32.9518 31.6595C34.1489 28.2165 32.8923 26.2304 30.4228 24.9354C32.2212 24.5176 33.5759 23.326 33.9373 20.8646ZM27.6484 29.7476C26.868 32.9064 21.9595 31.6005 19.7136 31.003L19.7133 31.0029C19.5113 30.9492 19.3309 30.9012 19.177 30.8627L20.6884 24.7593C20.876 24.8064 21.1051 24.8582 21.3647 24.9169L21.3647 24.9169C23.6876 25.4419 28.448 26.5179 27.6484 29.7476ZM21.8314 22.0845C23.7039 22.5878 27.7883 23.6858 28.4998 20.8148C29.2263 17.8783 25.2566 16.9931 23.3178 16.5608C23.0997 16.5121 22.9073 16.4692 22.7502 16.4298L21.3799 21.9654C21.5093 21.9979 21.6612 22.0387 21.8314 22.0845Z" fill="white"/>
</svg>
