<svg width="24" height="24" viewBox="0 0 24 24" fill="none" xmlns="http://www.w3.org/2000/svg">
<g style="mix-blend-mode:luminosity">
<path d="M14.1769 18.7571V21.073L12.1577 22.2596L10.1959 21.073V18.7571L12.1577 19.9437L14.1769 18.7571ZM3.37256 10.7471L5.33438 11.9338V15.9053L8.71253 17.9245V20.2404L3.37256 17.0919V10.7471ZM20.9428 10.7471V17.1015L15.5454 20.25V17.9341L18.9236 15.9148V11.9433L20.9428 10.7471ZM15.5358 7.59863L17.5551 8.78529V11.1012L14.1769 13.1204V17.1493L12.2151 18.336L10.2628 17.1493V13.1109L6.76028 11.0916V8.77572L8.77952 7.58906L12.1577 9.6083L15.5358 7.59863ZM6.76028 12.7568L8.7221 13.9434V16.2593L6.76028 15.0727V12.7568ZM17.5551 12.7568V15.0727L15.5932 16.2593V13.9434L17.5551 12.7568ZM5.33438 5.57939L7.35361 6.76605L5.33438 7.95271V10.2686L3.37256 9.08196V6.76605L5.33438 5.57939ZM18.981 5.57939L21.0002 6.76605V9.08196L18.981 10.2686V7.95271L17.0192 6.76605L18.981 5.57939ZM12.1577 5.57939L14.1769 6.76605L12.1577 7.95271L10.1959 6.76605L12.1577 5.57939ZM12.1577 1.60791L17.5551 4.75639L15.5932 5.94305L12.2151 3.92381L8.76995 5.94305L6.80813 4.75639L12.1577 1.60791Z" fill="#F3BA2F"/>
</g>
</svg>
