<svg width="24" height="24" viewBox="0 0 24 24" fill="none" xmlns="http://www.w3.org/2000/svg">
<g style="mix-blend-mode:luminosity">
<path d="M19.3853 13.9522C19.0632 14.1706 18.6442 14.198 18.2944 14.0239C17.8926 13.7986 17.6745 13.273 17.6745 12.5597V10.3652C17.6745 9.31058 17.2519 8.56314 16.542 8.35836C15.3472 8.01365 14.4537 9.45734 14.1108 10L11.9948 13.3754V9.25597C11.9706 8.30717 11.6589 7.7372 11.0632 7.56655C10.6719 7.45393 10.0831 7.49829 9.51169 8.35836L4.78095 15.843C4.15065 14.6587 3.82165 13.3379 3.82857 12C3.82857 7.48805 7.48571 3.81911 11.9948 3.81911C16.5039 3.81911 20.1714 7.48805 20.1714 12V12.0239C20.1714 12.0239 20.1714 12.041 20.1714 12.0478C20.2165 12.9181 19.929 13.6143 19.3853 13.9522ZM22 12V11.9556C21.9619 6.46075 17.4874 2 11.9948 2C6.50216 2 2 6.48464 2 12C2 17.5154 6.48139 22 11.9948 22C14.5229 22 16.9541 21.0444 18.7896 19.3311C19.1602 18.9863 19.181 18.413 18.8381 18.0444C18.5056 17.6826 17.9411 17.6553 17.5706 17.9829L17.5671 17.9863C14.329 21.0137 9.21385 20.8805 6.14199 17.6894C6.0658 17.6109 5.99307 17.5324 5.92035 17.4505L10.1766 10.7031V13.8157C10.1766 15.3106 10.7654 15.7952 11.2571 15.9386C11.7489 16.0819 12.5074 15.9829 13.297 14.7167L15.6519 10.9625C15.7247 10.843 15.7939 10.7372 15.8597 10.6485V12.5563C15.8597 13.9556 16.4277 15.0717 17.4286 15.6246C18.3532 16.116 19.4753 16.0717 20.3584 15.5085C21.4563 14.8055 22.0554 13.5324 21.9931 12H22Z" fill="#BCBCBC"/>
</g>
</svg>
