<svg width="24" height="24" viewBox="0 0 24 24" fill="none" xmlns="http://www.w3.org/2000/svg">
<g style="mix-blend-mode:luminosity">
<path fill-rule="evenodd" clip-rule="evenodd" d="M5.67992 5.95419C5.3853 4.43655 6.56377 3.03564 8.09578 3.03564C9.45102 3.03564 10.5706 4.14469 10.5706 5.48723V8.52252C10.9241 8.52252 11.2776 8.46415 11.6312 8.46415C11.9847 8.46415 12.2793 8.46415 12.6329 8.52252V5.48723C12.6329 4.14469 13.7524 3.03564 15.1077 3.03564C16.6397 3.03564 17.8181 4.43655 17.5824 5.95419L16.9343 9.51482C19.2323 10.5071 21 12.2583 21 14.418V15.7605C21 17.57 19.8215 19.0877 18.1128 20.08C16.404 21.1306 14.1649 21.7144 11.6312 21.7144C9.09748 21.7144 6.85839 21.1306 5.14961 20.08C3.49976 19.0877 2.32129 17.57 2.32129 15.7605V14.418C2.32129 12.2583 4.03007 10.5071 6.32808 9.51482L5.67992 5.95419ZM16.0504 9.98179L16.8164 5.77908C16.9932 4.7284 16.2272 3.7361 15.1077 3.7361C14.1649 3.7361 13.3989 4.49492 13.3989 5.42885V9.28134C13.1632 9.22297 12.8686 9.22297 12.6329 9.22297C12.2793 9.22297 11.9847 9.1646 11.6312 9.1646C11.2776 9.1646 10.9241 9.1646 10.5706 9.22297C10.3349 9.22297 10.0403 9.28134 9.80456 9.28134V5.48723C9.80456 4.55329 9.03855 3.79447 8.09578 3.79447C7.03516 3.79447 6.21023 4.78677 6.44593 5.83745L7.21193 10.0402C4.73715 10.9741 3.08729 12.6085 3.08729 14.4764V15.8189C3.08729 18.6791 6.91731 21.0139 11.6312 21.0139C16.3451 21.0139 20.1751 18.6791 20.1751 15.8189V14.4764C20.234 12.5501 18.5841 10.9157 16.0504 9.98179Z" fill="#633001"/>
<path d="M20.2338 15.7605C20.2338 18.6207 16.4038 20.9555 11.6899 20.9555C6.97602 20.9555 3.146 18.6207 3.146 15.7605V14.418H20.2927V15.7605H20.2338Z" fill="#FEDC90"/>
<path fill-rule="evenodd" clip-rule="evenodd" d="M6.44571 5.83742C6.21001 4.78674 7.03494 3.79443 8.09556 3.79443C9.03834 3.79443 9.80434 4.55326 9.80434 5.48719V9.33968C10.3936 9.28131 10.9828 9.22294 11.631 9.22294C12.2202 9.22294 12.8094 9.28131 13.3987 9.33968V5.48719C13.3987 4.55326 14.1647 3.79443 15.1074 3.79443C16.1681 3.79443 16.993 4.78674 16.8162 5.83742L16.0502 10.0401C18.525 10.9741 20.2338 12.6085 20.2338 14.4763C20.2338 17.3365 16.4038 19.6713 11.6899 19.6713C6.97602 19.6713 3.146 17.3365 3.146 14.4763C3.146 12.6085 4.79585 10.9741 7.27063 10.0401L6.44571 5.83742Z" fill="#D1884F"/>
<path d="M9.27422 14.0679C9.27422 14.8267 8.86176 15.4688 8.33145 15.4688C7.80114 15.4688 7.38867 14.8267 7.38867 14.0679C7.38867 13.3091 7.80114 12.667 8.33145 12.667C8.86176 12.667 9.27422 13.3091 9.27422 14.0679Z" fill="#633001"/>
<path d="M15.8152 14.0679C15.8152 14.8267 15.4028 15.4688 14.8725 15.4688C14.3422 15.4688 13.9297 14.8267 13.9297 14.0679C13.9297 13.3091 14.3422 12.667 14.8725 12.667C15.4028 12.667 15.8152 13.3091 15.8152 14.0679Z" fill="#633001"/>
</g>
</svg>
