<svg width="274" height="95" viewBox="0 0 274 95" fill="none" xmlns="http://www.w3.org/2000/svg">
<g clip-path="url(#clip0_427_4241)">
<path d="M216.599 79.6279H61.1391C52.0757 79.6279 44.7021 72.2493 44.7021 63.1797V61.4887C44.7021 52.4192 52.0757 45.0405 61.1391 45.0405H216.599C225.662 45.0405 233.036 52.4192 233.036 61.4887V63.1797C233.036 72.2493 225.662 79.6279 216.599 79.6279Z" fill="#040509"/>
<path d="M237.081 94.0267H37.7386L12.2896 47.5002L37.7386 1.28125H237.081L263.35 47.654L237.081 94.0267Z" fill="#040509"/>
<path d="M237.337 95H215.114V93.0529H236.262L262.53 47.5L236.262 1.94714H215.114V0H237.337L264.783 47.5L237.337 95Z" fill="#1C2135"/>
<path d="M254.542 67.8427L250.599 65.5881L260.994 47.5002L250.599 29.4123L254.542 27.1577L266.268 47.5002L254.542 67.8427Z" fill="url(#paint0_linear_427_4241)"/>
<path d="M215.472 7.48107H205.692L202.978 4.76532H180.857V4.09919H203.234L205.999 6.86618H215.216L221.31 0.768555L221.771 1.17848L215.472 7.48107Z" fill="url(#paint1_linear_427_4241)"/>
<path d="M59.3982 95H37.1751L9.729 47.5L37.1751 0H59.3982V1.94714H38.2504L11.982 47.5L38.2504 93.0529H59.3982V95Z" fill="#1C2135"/>
<path d="M19.9702 67.8427L8.24414 47.5002L19.9702 27.1577L23.913 29.4123L13.5183 47.5002L23.913 65.5881L19.9702 67.8427Z" fill="url(#paint2_linear_427_4241)"/>
<path d="M73.7871 7.48107H59.04L52.7417 1.17848L53.2025 0.768555L59.296 6.86618H73.4799L76.245 4.09919H97.5976V4.76532H76.501L73.7871 7.48107Z" fill="url(#paint3_linear_427_4241)"/>
<path d="M180.909 93.668H97.5977V94.3341H180.909V93.668Z" fill="url(#paint4_linear_427_4241)"/>
<g style="mix-blend-mode:screen">
<path d="M267.036 31.8717C274.41 42.6322 276.253 54.2126 271.081 57.7482C265.961 61.2838 255.771 55.4423 248.397 44.6818C241.024 33.9213 239.18 22.3409 244.352 18.8053C249.473 15.2697 259.663 21.1112 267.036 31.8717Z" fill="url(#paint5_radial_427_4241)"/>
</g>
<g style="mix-blend-mode:screen">
<path d="M266.934 62.6672C259.714 73.1203 249.78 78.808 244.813 75.3236C239.795 71.8393 241.587 60.5664 248.807 50.1133C256.027 39.6602 265.961 33.9725 270.928 37.4569C275.946 40.89 274.154 52.2142 266.934 62.6672Z" fill="url(#paint6_radial_427_4241)"/>
</g>
<g style="mix-blend-mode:screen">
<path d="M6.96387 62.2575C-0.409708 51.497 -2.2531 39.9166 2.91864 36.381C8.03918 32.8454 18.2291 38.6868 25.6026 49.4474C32.9762 60.2079 34.8196 71.7882 29.6479 75.3238C24.5273 78.8594 14.3886 73.018 6.96387 62.2575Z" fill="url(#paint7_radial_427_4241)"/>
</g>
<g style="mix-blend-mode:screen">
<path d="M7.06612 31.4619C14.2861 21.0088 24.2199 15.3211 29.238 18.8055C34.2562 22.2899 32.464 33.5628 25.244 44.0159C18.0241 54.4689 8.09022 60.1566 3.0721 56.6723C-1.94603 53.2392 -0.153844 41.915 7.06612 31.4619Z" fill="url(#paint8_radial_427_4241)"/>
</g>
<rect x="65" y="18.6897" width="150" height="58.6207" fill="white"/>
<path d="M110.832 33.4648H116.903C118.446 33.4648 119.578 33.8901 120.298 34.6342C121.018 35.2721 121.326 36.1225 121.326 36.973C121.326 37.2919 121.326 37.7171 121.223 38.036C121.018 38.5676 120.709 39.0991 120.298 39.5243C120.092 39.737 119.886 39.8433 119.68 39.9496C120.4 40.1622 121.018 40.5874 121.532 41.119C121.943 41.6505 122.149 42.2883 122.149 43.2451C122.149 43.7766 122.046 44.4145 121.841 44.8397C121.635 45.2649 121.223 45.6902 120.812 46.0091C120.298 46.328 119.783 46.5406 119.269 46.7532C118.652 46.9658 117.932 46.9658 117.212 46.9658H110.935V33.4648H110.832ZM116.389 38.9945C116.903 38.9945 117.417 38.8882 117.932 38.6756C118.343 38.463 118.549 38.0378 118.549 37.6125C118.549 37.1873 118.343 36.7621 118.034 36.5495C117.623 36.2305 117.109 36.1242 116.594 36.2305H113.714V39.1008H116.389V38.9945ZM117.109 44.4162C117.623 44.4162 118.137 44.3099 118.652 44.0973C119.063 43.8847 119.269 43.4594 119.166 42.9279C119.166 42.5027 118.96 42.0774 118.652 41.8648C118.343 41.6522 117.726 41.4396 117.006 41.4396H113.611V44.4162H117.109Z" fill="#F3BA2F"/>
<path d="M125.751 33.4648H128.631V47.0756H125.751V33.4648Z" fill="#F3BA2F"/>
<path d="M133.055 33.4648H135.731L141.903 41.8648V33.4648H144.783V47.0756H142.314L135.834 38.463V47.0756H133.055V33.4648Z" fill="#F3BA2F"/>
<path d="M153.529 33.3586H156.203L161.863 47.074H158.88L157.645 43.9911H152.089L150.854 47.074H147.871L153.529 33.3586ZM156.617 41.4397L154.868 36.9748L153.119 41.4397H156.617Z" fill="#F3BA2F"/>
<path d="M164.949 33.4648H167.625L173.797 41.8648V33.4648H176.677V47.0756H174.209L167.831 38.463V47.0756H164.949V33.4648Z" fill="#F3BA2F"/>
<path d="M187.172 47.2881C186.246 47.2881 185.32 47.0755 184.497 46.7566C182.851 46.0125 181.617 44.7368 180.897 43.0359C180.588 42.1854 180.382 41.2286 180.382 40.2719C180.382 38.4647 181.102 36.6574 182.337 35.2754C182.954 34.6376 183.674 34.1061 184.497 33.7872C185.423 33.3619 186.349 33.2556 187.275 33.2556C187.789 33.2556 188.406 33.2556 188.92 33.3619C189.435 33.4682 189.846 33.5745 190.258 33.7872C190.669 33.9998 191.081 34.2124 191.389 34.425C191.698 34.6376 192.109 34.9565 192.418 35.2754L190.669 37.5079C190.155 37.0827 189.64 36.6574 189.126 36.3385C188.612 36.0196 187.995 35.9133 187.377 35.9133C186.863 35.9133 186.349 36.0196 185.834 36.2322C185.32 36.4448 184.909 36.7637 184.6 37.189C184.291 37.6142 183.983 38.0394 183.777 38.571C183.571 39.1025 183.468 39.634 183.468 40.1656C183.468 40.6971 183.571 41.335 183.777 41.8665C183.983 42.398 184.188 42.8233 184.6 43.2485C185.32 44.0989 186.349 44.5242 187.377 44.5242C187.995 44.5242 188.715 44.4179 189.332 44.0989C189.846 43.78 190.463 43.3548 190.875 42.9296L192.727 44.8431C192.418 45.162 192.006 45.5872 191.698 45.9062C191.286 46.2251 190.875 46.4377 190.463 46.6503C190.052 46.8629 189.538 47.0755 189.023 47.1818C188.303 47.2881 187.686 47.2881 187.172 47.2881Z" fill="#F3BA2F"/>
<path d="M196.02 33.4648H205.897V36.1242H198.797V38.8882H205.074V41.5459H198.797V44.4162H206V47.0756H196.02V33.4648Z" fill="#F3BA2F"/>
<path d="M114.537 60.4721C113.817 60.4721 113.097 60.3658 112.48 60.0469C111.862 59.8343 111.245 59.4091 110.628 58.8775L111.657 57.7082C112.068 58.1334 112.48 58.346 112.994 58.6649C113.508 58.8775 114.023 58.9838 114.537 58.9838C114.948 58.9838 115.36 58.8775 115.771 58.6649C116.08 58.4523 116.183 58.1334 116.183 57.8145C116.183 57.7082 116.183 57.4955 116.08 57.3892C115.977 57.2829 115.874 57.0703 115.771 56.964C115.566 56.8577 115.36 56.7514 115.154 56.6451C114.846 56.5388 114.434 56.4325 114.125 56.3262C113.714 56.2199 113.2 56.1136 112.788 55.9009C112.48 55.7946 112.068 55.582 111.862 55.3694C111.657 55.1568 111.451 54.9442 111.245 54.6253C111.039 54.2 111.039 53.7748 111.039 53.4559C111.039 53.0306 111.142 52.7117 111.245 52.2865C111.348 51.9676 111.657 51.6487 111.862 51.436C112.171 51.2234 112.48 51.0108 112.891 50.9045C113.303 50.7982 113.714 50.6919 114.125 50.6919C114.743 50.6919 115.36 50.7982 115.977 51.0108C116.491 51.2234 117.006 51.5424 117.52 51.8613L116.697 53.137C116.286 52.818 115.874 52.6054 115.463 52.3928C115.051 52.1802 114.64 52.1802 114.228 52.1802C113.817 52.1802 113.405 52.2865 113.097 52.4991C112.891 52.7117 112.685 53.0306 112.685 53.3496C112.685 53.5622 112.685 53.6685 112.788 53.8811C112.891 53.9874 112.994 54.2 113.097 54.3063C113.303 54.4126 113.508 54.5189 113.817 54.6253C114.125 54.7316 114.434 54.8379 114.948 54.9442C115.36 55.0505 115.771 55.1568 116.286 55.3694C116.594 55.4757 116.903 55.6883 117.212 55.9009C117.417 56.1136 117.623 56.4325 117.726 56.6451C117.829 56.964 117.932 57.2829 117.932 57.7082C117.932 58.1334 117.829 58.5586 117.726 58.8775C117.52 59.1965 117.314 59.5154 117.006 59.8343C116.697 60.0469 116.389 60.2595 115.977 60.3658C115.463 60.3658 114.948 60.4721 114.537 60.4721Z" fill="#F3BA2F"/>
<path d="M119.68 50.7964H121.429L124.208 55.2613L127.088 50.7964H128.837V60.3657H127.191V53.4541L124.311 57.9207H124.208L121.326 53.4541V60.3657H119.68V50.7964Z" fill="#F3BA2F"/>
<path d="M134.394 50.6899H135.937L139.949 60.2593H138.2L137.274 57.9205H132.954L132.028 60.2593H130.382L134.394 50.6899ZM136.76 56.5368L135.114 52.7098L133.571 56.5368H136.76Z" fill="#F3BA2F"/>
<path d="M141.595 50.7964H145.709C146.224 50.7964 146.738 50.9027 147.252 51.009C147.664 51.1153 148.075 51.4342 148.384 51.7531C148.59 51.9658 148.795 52.2847 149.001 52.7099C149.104 53.0288 149.207 53.4541 149.207 53.8793C149.207 54.1982 149.104 54.6234 149.001 54.9424C148.898 55.2613 148.692 55.4739 148.59 55.7928C148.384 56.0054 148.178 56.218 147.87 56.4307C147.561 56.6433 147.252 56.7496 146.944 56.8559L149.413 60.4703H147.458L145.195 57.1748H143.138V60.4703H141.492L141.595 50.7964ZM145.608 55.4739C146.122 55.4739 146.637 55.3676 146.945 55.0487C147.254 54.7298 147.46 54.3045 147.46 53.8793C147.46 53.4541 147.254 53.0288 146.945 52.7099C146.534 52.391 146.02 52.2847 145.505 52.2847H143.138V55.4739H145.608Z" fill="#F3BA2F"/>
<path d="M153.426 52.2847H150.443V50.7964H157.954V52.2847H154.969V60.3657H153.323L153.426 52.2847Z" fill="#F3BA2F"/>
<path d="M167.934 60.472C167.317 60.472 166.699 60.3657 166.082 60.0468C164.951 59.5152 164.025 58.6648 163.613 57.4954C163.408 56.8576 163.202 56.2197 163.305 55.5819C163.305 54.944 163.408 54.3062 163.613 53.6684C164.025 52.499 164.951 51.5422 166.082 51.0107C166.699 50.7981 167.317 50.5854 168.037 50.5854C168.448 50.5854 168.86 50.5854 169.168 50.6918C169.477 50.7981 169.785 50.9044 170.094 51.0107C170.403 51.117 170.608 51.3296 170.917 51.4359C171.123 51.6485 171.431 51.8611 171.637 52.0737L170.608 53.3494C170.3 53.0305 169.888 52.7116 169.477 52.499C169.065 52.2864 168.551 52.1801 168.037 52.1801C167.625 52.1801 167.214 52.2864 166.802 52.3927C166.391 52.6053 166.082 52.8179 165.774 53.1368C165.465 53.4557 165.259 53.7747 165.156 54.1999C165.053 54.6251 164.951 55.0503 164.951 55.4756C164.951 55.9008 165.053 56.326 165.156 56.7513C165.259 57.1765 165.465 57.4954 165.774 57.8143C166.082 58.1332 166.391 58.3459 166.802 58.5585C167.214 58.7711 167.625 58.8774 168.037 58.7711C168.551 58.7711 169.065 58.6648 169.477 58.4522C169.888 58.2396 170.3 57.9206 170.711 57.4954L171.74 58.5585C171.534 58.7711 171.226 59.09 171.02 59.3026C170.711 59.5152 170.505 59.7279 170.197 59.8342C169.888 59.9405 169.58 60.1531 169.168 60.1531C168.757 60.472 168.345 60.472 167.934 60.472Z" fill="#F3BA2F"/>
<path d="M173.386 50.7964H174.929V54.7297H179.354V50.7964H181V60.3657H179.354V56.3244H174.929V60.3657H173.386V50.7964Z" fill="#F3BA2F"/>
<path d="M186.657 50.6899H188.2L192.212 60.2593H190.463L189.538 57.9205H185.217L184.291 60.2593H182.646L186.657 50.6899ZM188.92 56.5368L187.377 52.7098L185.834 56.5368H188.92Z" fill="#F3BA2F"/>
<path d="M193.86 50.7964H195.506V60.3657H193.86V50.7964Z" fill="#F3BA2F"/>
<path d="M197.975 50.7964H199.415L204.354 57.3891V50.7964H206V60.3657H204.663L199.621 53.5604V60.3657H197.975V50.7964Z" fill="#F3BA2F"/>
<path d="M92.7254 59.7279V63.8739L89.2278 66L85.8332 63.8739V59.7279L89.2278 61.854L92.7254 59.7279ZM74 45.373L77.3947 47.4991V54.6234L83.2598 58.2379V62.3838L74 56.7496V45.373ZM104.454 45.373V56.7496L95.0913 62.3838V58.2379L100.956 54.6234V47.5009L104.454 45.373ZM95.0913 39.7387L98.5889 41.8649V46.0108L92.7237 49.6253V56.8559L89.329 58.982L85.9344 56.8559V49.627L79.8652 46.0108V41.8649L83.3627 39.7387L89.2278 43.3532L95.0913 39.7387ZM79.8652 48.9892L83.2598 51.1153V55.2613L79.8652 53.1351V48.9892ZM98.5889 48.9892V53.1351L95.1942 55.2613V51.1153L98.5889 48.9892ZM77.3947 36.1243L80.8922 38.2504L77.3947 40.3766V44.5225L74 42.3964V38.2504L77.3947 36.1243ZM101.058 36.1243L104.555 38.2504V42.3964L101.058 44.5225V40.3766L97.663 38.2504L101.058 36.1243ZM89.2262 36.1243L92.7237 38.2504L89.2262 40.3766L85.8315 38.2504L89.2262 36.1243ZM89.2262 29L98.5889 34.6343L95.1942 36.7604L89.329 33.146L83.3627 36.7621L79.968 34.636L89.2262 29Z" fill="#F3BA2F"/>
</g>
<defs>
<linearGradient id="paint0_linear_427_4241" x1="250.604" y1="47.5796" x2="266.268" y2="47.5796" gradientUnits="userSpaceOnUse">
<stop stop-color="#DA9917"/>
<stop offset="0.3198" stop-color="#FFCF25"/>
<stop offset="0.6802" stop-color="#FFFF90"/>
<stop offset="1" stop-color="#ECBF26"/>
</linearGradient>
<linearGradient id="paint1_linear_427_4241" x1="180.871" y1="4.13791" x2="221.771" y2="4.13791" gradientUnits="userSpaceOnUse">
<stop stop-color="#DA9917"/>
<stop offset="0.3198" stop-color="#FFCF25"/>
<stop offset="0.6802" stop-color="#FFFF90"/>
<stop offset="1" stop-color="#ECBF26"/>
</linearGradient>
<linearGradient id="paint2_linear_427_4241" x1="8.24948" y1="47.5796" x2="23.9133" y2="47.5796" gradientUnits="userSpaceOnUse">
<stop stop-color="#DA9917"/>
<stop offset="0.3198" stop-color="#FFCF25"/>
<stop offset="0.6802" stop-color="#FFFF90"/>
<stop offset="1" stop-color="#ECBF26"/>
</linearGradient>
<linearGradient id="paint3_linear_427_4241" x1="52.757" y1="4.13791" x2="97.5986" y2="4.13791" gradientUnits="userSpaceOnUse">
<stop stop-color="#DA9917"/>
<stop offset="0.3198" stop-color="#FFCF25"/>
<stop offset="0.6802" stop-color="#FFFF90"/>
<stop offset="1" stop-color="#ECBF26"/>
</linearGradient>
<linearGradient id="paint4_linear_427_4241" x1="97.6261" y1="94.0023" x2="180.911" y2="94.0023" gradientUnits="userSpaceOnUse">
<stop stop-color="#DA9917"/>
<stop offset="0.3198" stop-color="#FFCF25"/>
<stop offset="0.6802" stop-color="#FFFF90"/>
<stop offset="1" stop-color="#ECBF26"/>
</linearGradient>
<radialGradient id="paint5_radial_427_4241" cx="0" cy="0" r="1" gradientUnits="userSpaceOnUse" gradientTransform="translate(257.713 38.2785) rotate(-34.5257) scale(11.3108 23.6173)">
<stop offset="4.4e-07" stop-color="#FFE600"/>
<stop offset="0.0057434" stop-color="#FBE200"/>
<stop offset="0.0852296" stop-color="#C7B300"/>
<stop offset="0.1701" stop-color="#988900"/>
<stop offset="0.2582" stop-color="#6F6400"/>
<stop offset="0.3506" stop-color="#4D4500"/>
<stop offset="0.4482" stop-color="#312C00"/>
<stop offset="0.553" stop-color="#1B1800"/>
<stop offset="0.6684" stop-color="#0C0B00"/>
<stop offset="0.8025" stop-color="#030200"/>
<stop offset="1"/>
</radialGradient>
<radialGradient id="paint6_radial_427_4241" cx="0" cy="0" r="1" gradientUnits="userSpaceOnUse" gradientTransform="translate(257.862 56.3937) rotate(34.6357) scale(11.0209 23.0167)">
<stop offset="4.4e-07" stop-color="#FFE600"/>
<stop offset="0.0057434" stop-color="#FBE200"/>
<stop offset="0.0852296" stop-color="#C7B300"/>
<stop offset="0.1701" stop-color="#988900"/>
<stop offset="0.2582" stop-color="#6F6400"/>
<stop offset="0.3506" stop-color="#4D4500"/>
<stop offset="0.4482" stop-color="#312C00"/>
<stop offset="0.553" stop-color="#1B1800"/>
<stop offset="0.6684" stop-color="#0C0B00"/>
<stop offset="0.8025" stop-color="#030200"/>
<stop offset="1"/>
</radialGradient>
<radialGradient id="paint7_radial_427_4241" cx="0" cy="0" r="1" gradientUnits="userSpaceOnUse" gradientTransform="translate(16.3017 55.8499) rotate(145.474) scale(11.3108 23.6173)">
<stop stop-color="#FFE600"/>
<stop offset="0.00574297" stop-color="#FBE200"/>
<stop offset="0.0852292" stop-color="#C7B300"/>
<stop offset="0.1701" stop-color="#988900"/>
<stop offset="0.2582" stop-color="#6F6400"/>
<stop offset="0.3506" stop-color="#4D4500"/>
<stop offset="0.4482" stop-color="#312C00"/>
<stop offset="0.553" stop-color="#1B1800"/>
<stop offset="0.6684" stop-color="#0C0B00"/>
<stop offset="0.8025" stop-color="#030200"/>
<stop offset="1"/>
</radialGradient>
<radialGradient id="paint8_radial_427_4241" cx="0" cy="0" r="1" gradientUnits="userSpaceOnUse" gradientTransform="translate(16.1522 37.7348) rotate(-145.364) scale(11.0209 23.0166)">
<stop offset="0.0322746" stop-color="#FFE600"/>
<stop offset="0.0378322" stop-color="#FBE200"/>
<stop offset="0.1148" stop-color="#C7B300"/>
<stop offset="0.1968" stop-color="#988900"/>
<stop offset="0.2822" stop-color="#6F6400"/>
<stop offset="0.3715" stop-color="#4D4500"/>
<stop offset="0.466" stop-color="#312C00"/>
<stop offset="0.5674" stop-color="#1B1800"/>
<stop offset="0.6791" stop-color="#0C0B00"/>
<stop offset="0.8089" stop-color="#030200"/>
<stop offset="1"/>
</radialGradient>
<clipPath id="clip0_427_4241">
<rect width="274" height="95" fill="white"/>
</clipPath>
</defs>
</svg>
