<svg width="230" height="114" viewBox="0 0 230 114" fill="none" xmlns="http://www.w3.org/2000/svg">
<g opacity="0.5" clip-path="url(#clip0_57_3698)">
<path d="M114.214 35.4112C153.259 24.7231 189.437 32.582 195.025 52.9596C200.614 73.3372 173.504 98.5411 134.458 109.229C95.4124 119.917 59.2349 112.058 53.6464 91.6808C48.0578 71.2847 75.1678 46.0993 114.214 35.4112Z" fill="url(#paint0_radial_57_3698)"/>
<path d="M174.911 18.0292C177.927 29.0501 149.855 36.5392 115.269 46.0068C80.6826 55.4745 52.2217 61.6137 49.2054 50.5927C46.1891 39.5718 69.0614 13.129 103.647 3.66132C138.233 -5.82481 171.876 7.00828 174.911 18.0292Z" fill="url(#paint1_radial_57_3698)"/>
<path d="M104.295 6.04672C139.38 -3.56885 173.263 7.63698 178.389 18.3066C178.371 17.9182 178.315 17.5114 178.204 17.1231C175.169 6.10219 140.047 -6.32409 103.647 3.66131C67.2475 13.6282 42.8948 40.4779 45.9111 51.4988C46.0222 51.9056 46.1702 52.2754 46.3552 52.6268C45.3375 40.9401 69.2276 15.6623 104.295 6.04672Z" fill="white"/>
<path d="M229.852 15.9027C233.035 27.5338 181.683 41.4024 118.396 58.7289C63.75 73.6886 17.7093 85.0053 4.08957 80.3085C1.92447 79.5688 0.592102 78.4409 0.14798 76.8506C-3.0534 65.2195 42.8208 31.3246 106.108 13.998C167.397 -2.79222 222.987 3.79075 229.389 14.7932C229.593 15.163 229.759 15.5328 229.852 15.9027Z" fill="url(#paint2_radial_57_3698)"/>
<path d="M229.389 14.7932L202.483 9.67104C202.483 9.67104 160.31 0.795128 106.626 15.8287C52.9431 30.8623 36.9917 51.6467 36.9917 51.6467L4.08957 80.3085C1.92447 79.5688 0.592102 78.4409 0.14798 76.8506C-3.05341 65.2195 42.8208 31.3246 106.108 13.998C167.397 -2.79222 222.987 3.79075 229.389 14.7932Z" fill="white"/>
<path d="M229.5 14.6268C232.165 24.3163 182.997 46.2102 119.71 63.5552C56.4221 80.9002 2.96083 87.0949 0.314596 77.4054C-2.33163 67.7158 46.2443 43.7324 109.532 26.3874C172.819 9.04234 226.854 4.95572 229.5 14.6268Z" fill="url(#paint3_radial_57_3698)"/>
<path d="M229.852 15.9027C232.517 25.5922 183.349 47.4861 120.061 64.8312C56.7739 82.1762 3.31262 88.3708 0.666384 78.6813C-1.99835 68.9917 47.1697 47.0978 110.457 29.7528C173.745 12.4263 227.206 6.21315 229.852 15.9027Z" fill="url(#paint4_radial_57_3698)"/>
<path d="M120.467 66.2509C159.932 55.4393 190.581 41.7805 188.925 35.743C187.268 29.7056 153.933 33.5758 114.469 44.3874C75.0045 55.199 44.355 68.8579 46.0115 74.8953C47.6679 80.9328 81.003 77.0625 120.467 66.2509Z" fill="#FF387A"/>
<path d="M88.4729 55.493L86.0303 53.1815C86.0303 53.1815 116.878 41.9387 150.835 36.0399L150.576 39.1095L88.4729 55.493Z" fill="#FF8B8D"/>
<path d="M191.232 37.926C192.768 43.529 164.64 68.1226 126.408 78.5888C88.1769 89.055 54.3126 81.455 52.7766 75.8336C51.2407 70.2307 80.9784 57.1942 119.21 46.7095C157.46 36.2618 189.696 32.3231 191.232 37.926Z" fill="url(#paint5_radial_57_3698)"/>
<path d="M123.948 33.1552C124.207 34.0798 120.21 35.9659 115.047 37.3713C109.884 38.7766 105.498 39.1835 105.239 38.2774C104.98 37.3528 108.977 35.4667 114.14 34.0613C119.303 32.656 123.707 32.2492 123.948 33.1552Z" fill="#A1FFFF"/>
<path d="M165.787 23.4842C166.046 24.3903 163.474 25.9066 160.069 26.8311C156.664 27.7742 153.685 27.7742 153.444 26.8681C153.185 25.9435 155.757 24.4457 159.162 23.5212C162.567 22.5781 165.547 22.5596 165.787 23.4842Z" fill="#A1FFFF"/>
<path d="M40.1929 66.8097C40.452 67.7158 38.2869 69.1212 35.3631 69.9163C32.4393 70.7114 29.8671 70.619 29.6265 69.7129C29.3674 68.7883 31.5325 67.4014 34.4563 66.6063C37.3801 65.8112 39.9523 65.8851 40.1929 66.8097Z" fill="#A1FFFF"/>
<path d="M68.413 44.2501C75.3154 42.364 81.5702 43.2886 82.4029 46.3212C83.2356 49.3538 78.3133 53.3294 71.4294 55.2341C64.527 57.1202 58.2722 56.1956 57.4395 53.163C56.6068 50.1304 61.5291 46.1363 68.413 44.2501Z" fill="url(#paint6_radial_57_3698)"/>
<path d="M113.103 30.2336C120.006 28.3475 126.26 29.272 127.093 32.3046C127.926 35.3372 123.004 39.3129 116.12 41.2175C109.217 43.1037 102.962 42.1791 102.13 39.1465C101.297 36.1139 106.201 32.1197 113.103 30.2336Z" fill="url(#paint7_radial_57_3698)"/>
<path d="M158.108 19.6934C165.01 17.8073 171.265 18.7319 172.098 21.7645C172.93 24.7971 168.008 28.7727 161.124 30.6774C154.222 32.5635 147.967 31.6389 147.134 28.6063C146.302 25.5552 151.224 21.5796 158.108 19.6934Z" fill="url(#paint8_radial_57_3698)"/>
<path d="M198.208 15.7362C205.111 13.8501 211.366 14.7747 212.198 17.8073C213.031 20.8399 208.109 24.8156 201.225 26.7202C194.322 28.6063 188.068 27.6817 187.235 24.6491C186.384 21.6165 191.306 17.6224 198.208 15.7362Z" fill="url(#paint9_radial_57_3698)"/>
<path d="M31.292 63.0744C38.1944 61.1883 44.4491 62.1129 45.2818 65.1455C46.1145 68.1781 41.1922 72.1538 34.3083 74.0584C27.4059 75.9445 21.1512 75.0199 20.3184 71.9873C19.4857 68.9362 24.4081 64.9606 31.292 63.0744Z" fill="url(#paint10_radial_57_3698)"/>
<path d="M192.583 31.5835C197.135 30.3445 201.261 30.9547 201.817 32.9518C202.372 34.9489 199.115 37.5747 194.581 38.8321C190.029 40.071 185.902 39.4608 185.347 37.4638C184.792 35.4482 188.03 32.8224 192.583 31.5835Z" fill="url(#paint11_radial_57_3698)"/>
<path d="M76.3331 47.9854C76.5922 48.91 73.9275 50.4263 70.3745 51.4063C66.84 52.3679 63.7682 52.4234 63.5091 51.4988C63.25 50.5927 65.9148 49.0579 69.4677 48.0779C73.0022 47.1163 76.0741 47.0608 76.3331 47.9854Z" fill="#A1FFFF"/>
<path d="M79.4238 35.4667C79.4238 35.4667 87.381 24.6122 104.813 18.547C125.335 11.4092 145.783 17.6409 145.783 17.6409C145.783 17.6409 114.676 23.3917 79.4238 35.4667Z" fill="#BD95D4"/>
</g>
<defs>
<radialGradient id="paint0_radial_57_3698" cx="0" cy="0" r="1" gradientUnits="userSpaceOnUse" gradientTransform="translate(124.333 72.3161) rotate(-105.34) scale(38.2751 73.2882)">
<stop stop-color="#FF4300"/>
<stop offset="0.1274" stop-color="#CE3600"/>
<stop offset="0.3062" stop-color="#902600"/>
<stop offset="0.4778" stop-color="#5D1800"/>
<stop offset="0.6375" stop-color="#350E00"/>
<stop offset="0.7825" stop-color="#180600"/>
<stop offset="0.9081" stop-color="#060200"/>
<stop offset="1"/>
</radialGradient>
<radialGradient id="paint1_radial_57_3698" cx="0" cy="0" r="1" gradientUnits="userSpaceOnUse" gradientTransform="translate(109.455 24.8314) rotate(-15.3207) scale(48.462 48.4313)">
<stop stop-color="#D0CDEA"/>
<stop offset="1" stop-color="#7D75DA"/>
</radialGradient>
<radialGradient id="paint2_radial_57_3698" cx="0" cy="0" r="1" gradientUnits="userSpaceOnUse" gradientTransform="translate(112.259 36.3623) rotate(-15.3207) scale(85.6053 85.551)">
<stop stop-color="#FAFAFD"/>
<stop offset="1" stop-color="#C3BFEE"/>
</radialGradient>
<radialGradient id="paint3_radial_57_3698" cx="0" cy="0" r="1" gradientUnits="userSpaceOnUse" gradientTransform="translate(114.651 44.9871) rotate(-13.9888) scale(85.1147 85.0594)">
<stop stop-color="#D0CDEA"/>
<stop offset="1" stop-color="#7D75DA"/>
</radialGradient>
<radialGradient id="paint4_radial_57_3698" cx="0" cy="0" r="1" gradientUnits="userSpaceOnUse" gradientTransform="translate(115.258 47.2928) rotate(-15.3207) scale(84.9935 28.8181)">
<stop stop-color="#7C42B8"/>
<stop offset="0.6313" stop-color="#272A95"/>
<stop offset="0.9804" stop-color="#270579"/>
</radialGradient>
<radialGradient id="paint5_radial_57_3698" cx="0" cy="0" r="1" gradientUnits="userSpaceOnUse" gradientTransform="translate(120.536 49.787) rotate(-15.3207) scale(53.849 25.9871)">
<stop stop-color="#FFC268"/>
<stop offset="0.248" stop-color="#FFC66B"/>
<stop offset="0.5119" stop-color="#FFD373"/>
<stop offset="0.7821" stop-color="#FFE881"/>
<stop offset="1" stop-color="#FFFF90"/>
</radialGradient>
<radialGradient id="paint6_radial_57_3698" cx="0" cy="0" r="1" gradientUnits="userSpaceOnUse" gradientTransform="translate(69.924 49.7404) rotate(-105.34) scale(5.68808 12.9457)">
<stop stop-color="#2720F6"/>
<stop offset="0.0838" stop-color="#211BD0"/>
<stop offset="0.2191" stop-color="#18149A"/>
<stop offset="0.3556" stop-color="#110E6B"/>
<stop offset="0.4905" stop-color="#0B0944"/>
<stop offset="0.6234" stop-color="#060526"/>
<stop offset="0.7539" stop-color="#030211"/>
<stop offset="0.8808" stop-color="#010104"/>
<stop offset="1"/>
</radialGradient>
<radialGradient id="paint7_radial_57_3698" cx="0" cy="0" r="1" gradientUnits="userSpaceOnUse" gradientTransform="translate(114.604 35.7211) rotate(-105.34) scale(5.68808 12.9457)">
<stop stop-color="#2720F6"/>
<stop offset="0.0838" stop-color="#211BD0"/>
<stop offset="0.2191" stop-color="#18149A"/>
<stop offset="0.3556" stop-color="#110E6B"/>
<stop offset="0.4905" stop-color="#0B0944"/>
<stop offset="0.6234" stop-color="#060526"/>
<stop offset="0.7539" stop-color="#030211"/>
<stop offset="0.8808" stop-color="#010104"/>
<stop offset="1"/>
</radialGradient>
<radialGradient id="paint8_radial_57_3698" cx="0" cy="0" r="1" gradientUnits="userSpaceOnUse" gradientTransform="translate(159.621 25.1711) rotate(-105.34) scale(5.68808 12.9457)">
<stop stop-color="#2720F6"/>
<stop offset="0.0838" stop-color="#211BD0"/>
<stop offset="0.2191" stop-color="#18149A"/>
<stop offset="0.3556" stop-color="#110E6B"/>
<stop offset="0.4905" stop-color="#0B0944"/>
<stop offset="0.6234" stop-color="#060526"/>
<stop offset="0.7539" stop-color="#030211"/>
<stop offset="0.8808" stop-color="#010104"/>
<stop offset="1"/>
</radialGradient>
<radialGradient id="paint9_radial_57_3698" cx="0" cy="0" r="1" gradientUnits="userSpaceOnUse" gradientTransform="translate(199.708 21.2271) rotate(-105.34) scale(5.68808 12.9457)">
<stop stop-color="#2720F6"/>
<stop offset="0.0838" stop-color="#211BD0"/>
<stop offset="0.2191" stop-color="#18149A"/>
<stop offset="0.3556" stop-color="#110E6B"/>
<stop offset="0.4905" stop-color="#0B0944"/>
<stop offset="0.6234" stop-color="#060526"/>
<stop offset="0.7539" stop-color="#030211"/>
<stop offset="0.8808" stop-color="#010104"/>
<stop offset="1"/>
</radialGradient>
<radialGradient id="paint10_radial_57_3698" cx="0" cy="0" r="1" gradientUnits="userSpaceOnUse" gradientTransform="translate(32.7991 68.5523) rotate(-105.34) scale(5.68808 12.9457)">
<stop stop-color="#2720F6"/>
<stop offset="0.0838" stop-color="#211BD0"/>
<stop offset="0.2191" stop-color="#18149A"/>
<stop offset="0.3556" stop-color="#110E6B"/>
<stop offset="0.4905" stop-color="#0B0944"/>
<stop offset="0.6234" stop-color="#060526"/>
<stop offset="0.7539" stop-color="#030211"/>
<stop offset="0.8808" stop-color="#010104"/>
<stop offset="1"/>
</radialGradient>
<radialGradient id="paint11_radial_57_3698" cx="0" cy="0" r="1" gradientUnits="userSpaceOnUse" gradientTransform="translate(193.577 35.1943) rotate(-105.34) scale(3.75152 8.53822)">
<stop stop-color="#2720F6"/>
<stop offset="0.0838" stop-color="#211BD0"/>
<stop offset="0.2191" stop-color="#18149A"/>
<stop offset="0.3556" stop-color="#110E6B"/>
<stop offset="0.4905" stop-color="#0B0944"/>
<stop offset="0.6234" stop-color="#060526"/>
<stop offset="0.7539" stop-color="#030211"/>
<stop offset="0.8808" stop-color="#010104"/>
<stop offset="1"/>
</radialGradient>
<clipPath id="clip0_57_3698">
<rect width="230" height="114" fill="white"/>
</clipPath>
</defs>
</svg>
