<svg width="24" height="24" viewBox="0 0 24 24" fill="none" xmlns="http://www.w3.org/2000/svg">
<g style="mix-blend-mode:luminosity">
<path d="M18.9314 16.0212C18.6132 15.4786 18.1769 14.9727 17.7587 14.579C17.4588 14.524 17.1611 14.4668 16.8861 14.3432C16.6861 14.2539 16.5088 14.0845 16.4679 13.8671C16.3884 13.4344 16.8043 13.194 17.1815 13.2009C17.4497 13.2032 17.5951 13.281 17.9496 13.3978C18.0701 13.2925 17.9337 12.6561 17.9065 12.5096C17.7156 11.4382 16.7588 10.7973 16.0066 10.1219C15.3544 9.53592 14.6112 8.95904 14.1476 8.21277C13.6931 7.48252 13.434 6.62865 13.434 5.76563C13.434 5.02393 13.6272 4.2891 13.9863 3.64355C13.2977 3.81067 12.6455 4.09224 12.0319 4.4379C10.8501 5.539 10.0115 6.94227 9.21388 8.34554C8.99571 8.69807 8.87754 9.11699 8.85936 9.52676C8.86163 9.52676 8.86617 9.52905 8.86845 9.52905C9.22069 9.62062 9.63885 9.74881 9.83656 10.083C10.1002 10.5226 9.64339 11.0124 9.19342 10.9071C8.82299 10.8201 8.47984 10.6851 8.12759 10.5729C7.17538 10.6691 6.39362 11.4611 6.05728 12.331C5.82547 12.988 5.89365 13.6816 6.26635 14.2608C6.40271 14.2562 6.53679 14.2608 6.67314 14.2699C7.07312 14.302 7.57308 14.3844 7.92533 14.5859C8.23667 14.7644 8.42529 15.1376 8.19122 15.4626C7.85261 15.9319 7.33901 15.5404 6.93449 15.4443C6.89813 15.4351 6.86177 15.4283 6.82541 15.4237C5.13007 15.8678 4.67555 17.9601 5.54822 19.3107C5.80957 19.7159 6.14591 20.0639 6.50497 20.3821C6.77086 20.6179 7.26856 21.1375 7.61626 21.2039C8.90708 21.4511 10.2524 21.5473 11.5205 21.5702C13.5431 21.6045 15.568 21.3985 17.5474 20.9818C17.7337 20.9429 17.9201 20.8994 18.1064 20.8514C18.2814 20.8056 18.5587 20.3569 18.67 20.2127C19.5972 19.0086 19.6995 17.3283 18.9314 16.0212Z" fill="#825C3C"/>
<path d="M20.8859 15.0318C20.5428 14.6426 20.1314 14.3038 19.6724 14.0314C19.8337 13.8345 20.161 13.0493 20.1928 12.9234C20.2905 12.5297 20.2996 12.1131 20.236 11.7124C19.9928 10.1764 18.6224 9.49194 17.4339 8.75711C16.5794 8.22831 15.7295 7.46143 15.4408 6.46106C15.2568 5.82696 15.3727 5.14249 15.6817 4.57019C15.8408 4.27489 16.0522 4.00477 16.3021 3.78272C16.5203 3.58814 16.793 3.4691 16.8726 3.16006C17.1635 2.03149 14.7341 2.35884 14.1841 2.4527C12.2911 2.78005 10.5775 3.89031 9.14583 5.13333C8.50042 5.69418 7.84819 6.24359 7.34596 6.94408C7.10052 7.28746 6.88917 7.6583 6.746 8.05662C6.70964 8.15735 6.48692 9.30423 6.54374 9.29278C6.26194 9.34314 5.98923 9.43242 5.72789 9.55833C4.65978 10.078 3.93483 11.2111 3.69848 12.358C3.52122 13.2233 3.63031 14.2054 4.16663 14.9288C4.13482 14.8875 3.61213 15.3248 3.55986 15.3706C2.60992 16.2084 2.13496 17.5544 2.3963 18.8066C2.52356 19.4178 2.82127 19.9856 3.2417 20.4457C4.3348 21.6406 6.02105 22.0527 7.55049 22.3159C9.93668 22.728 12.4297 22.7394 14.8386 22.5311C17.1612 22.332 20.0973 21.9497 21.4313 19.7727C22.4313 18.1473 22.0267 16.3229 20.8859 15.0318ZM20.9109 18.1657C20.8064 19.0218 20.3178 19.7635 19.6019 20.2305C18.9883 20.6311 18.2679 20.8326 17.5521 20.9836C15.5727 21.4003 13.5478 21.6086 11.5252 21.572C9.62307 21.5399 7.55503 21.3362 5.74152 20.7181C4.78477 20.3907 3.85529 19.7429 3.54395 18.7723C3.04171 17.2202 4.37344 15.8536 5.77788 15.4782C6.15513 15.3774 6.55965 15.3568 6.93917 15.4484C7.34596 15.5445 7.85956 15.936 8.1959 15.4667C8.42997 15.1416 8.24135 14.7685 7.93001 14.59C7.57776 14.3862 7.07552 14.3061 6.67782 14.274C6.44147 14.2557 6.20058 14.258 5.96423 14.2855C5.88242 14.2946 5.27565 14.4732 5.25292 14.4503C3.86893 13.1111 5.30519 10.4305 7.08007 10.3939C7.85274 10.3779 8.47315 10.7373 9.1981 10.9067C9.64807 11.012 10.1049 10.5221 9.84124 10.0825C9.64125 9.74833 9.2231 9.62013 8.87312 9.52857C8.77995 9.50567 7.68002 9.30652 7.68002 9.28591C7.65048 8.06349 8.68904 7.09059 9.51399 6.33287C10.9866 4.98225 12.866 3.60874 15.05 3.48283C14.1955 4.04826 14.1114 5.51563 14.2682 6.42672C14.5977 8.32903 16.1385 9.32941 17.6839 10.2062C18.127 10.458 18.5861 10.7487 18.8747 11.1791C19.136 11.5682 19.2042 12.0696 19.1179 12.5251C19.0815 12.7174 19.0111 12.9005 18.9383 13.0791C18.9179 13.1272 18.7338 13.6125 18.6883 13.601C17.7134 13.3698 17.5884 13.2027 17.1862 13.1981C16.8089 13.1935 16.3931 13.4316 16.4726 13.8643C16.5112 14.0818 16.6908 14.2512 16.8907 14.3404C17.4748 14.5991 18.152 14.5648 18.7497 14.8441C20.0292 15.4392 21.095 16.6617 20.9109 18.1657Z" fill="black"/>
<path d="M10.3368 17.8476C10.4777 17.9667 10.6482 18.0582 10.7936 18.1269C11.7413 18.5756 12.9117 18.5779 13.8457 18.0926C14.0934 17.9644 14.4093 17.8179 14.557 17.566C14.7274 17.273 14.5638 16.8472 14.2366 16.7557C14.107 16.7191 13.9684 16.7351 13.8411 16.7786C13.4639 16.9045 13.223 17.1403 12.8298 17.2387C12.4776 17.3257 12.1026 17.3188 11.7526 17.225C11.4095 17.1311 11.0277 16.8404 10.6823 16.7854C10.4232 16.7442 10.1732 16.9457 10.0823 17.1815C9.98913 17.4401 10.1414 17.6851 10.3368 17.8476Z" fill="black"/>
<path d="M9.64112 13.9449C9.60249 14.4622 9.94792 15.0185 10.5183 14.975C11.0524 14.9338 11.3842 14.3523 11.2796 13.851C11.141 13.1826 10.282 12.8781 9.82974 13.4435C9.71611 13.5855 9.65475 13.764 9.64112 13.9449Z" fill="black"/>
<path d="M13.3838 13.9449C13.3452 14.4622 13.6906 15.0185 14.261 14.975C14.7951 14.9338 15.1269 14.3523 15.0223 13.851C14.8837 13.1826 14.0247 12.8781 13.5724 13.4435C13.4588 13.5855 13.3974 13.764 13.3838 13.9449Z" fill="black"/>
<path d="M16.8867 21.1162C16.9413 21.107 16.9958 21.0956 17.0503 21.0864C16.9958 21.0956 16.9413 21.1047 16.8867 21.1162Z" fill="#6B4B32"/>
<path d="M17.542 14.5351C17.5373 14.5351 17.5325 14.5327 17.5278 14.5327C17.5325 14.5351 17.5373 14.5351 17.542 14.5351Z" fill="#6B4B32"/>
<path d="M16.5391 21.1782C16.5959 21.169 16.6527 21.1576 16.7118 21.1484C16.655 21.1576 16.5981 21.1668 16.5391 21.1782Z" fill="#6B4B32"/>
<path d="M16.4912 13.9468C16.5003 13.972 16.5117 13.9948 16.523 14.02C16.5094 13.9971 16.5003 13.972 16.4912 13.9468Z" fill="#6B4B32"/>
<path d="M16.4707 13.8711C16.4752 13.8963 16.4821 13.9215 16.4912 13.9466C16.4821 13.9215 16.4752 13.8963 16.4707 13.8711Z" fill="#6B4B32"/>
<path d="M16.5234 14.0225C16.5348 14.0454 16.5507 14.0682 16.5643 14.0888C16.5507 14.0682 16.5371 14.0454 16.5234 14.0225Z" fill="#6B4B32"/>
<path d="M17.4331 14.5126C17.4261 14.5102 17.4166 14.5078 17.4072 14.5078C17.4143 14.5102 17.4237 14.5126 17.4331 14.5126Z" fill="#6B4B32"/>
<path d="M17.3216 14.4876C17.3122 14.4852 17.3004 14.4828 17.291 14.4805C17.3004 14.4828 17.3122 14.4852 17.3216 14.4876Z" fill="#6B4B32"/>
<path d="M17.2295 21.0499C17.2749 21.0408 17.3204 21.0316 17.3658 21.0225C17.3204 21.0316 17.2749 21.0408 17.2295 21.0499Z" fill="#6B4B32"/>
<path d="M16.6159 14.1531C16.5977 14.1348 16.5818 14.1142 16.5659 14.0913C16.5818 14.1119 16.5977 14.1325 16.6159 14.1531Z" fill="#6B4B32"/>
<path d="M17.0635 14.4111C17.0748 14.4157 17.0885 14.4203 17.0998 14.4226C17.0885 14.4203 17.0771 14.4157 17.0635 14.4111Z" fill="#6B4B32"/>
<path d="M16.9521 14.3701C16.9658 14.3747 16.9771 14.3816 16.9908 14.3861C16.9794 14.3816 16.9658 14.3747 16.9521 14.3701Z" fill="#6B4B32"/>
<path d="M15.0483 3.48291C14.596 3.50809 14.1597 3.5905 13.7347 3.71183C13.8188 3.68894 13.9029 3.66605 13.9892 3.64544C13.6302 4.29099 13.437 5.02582 13.437 5.76752C13.437 6.63054 13.6984 7.4844 14.1506 8.21465C14.6142 8.96322 15.3596 9.54009 16.0096 10.1238C16.7618 10.7991 17.7185 11.4401 17.9094 12.5115C17.9344 12.658 18.0708 13.2944 17.9526 13.3997C17.764 13.3378 17.6344 13.2852 17.514 13.2509C17.7458 13.3172 18.0162 13.4454 18.6844 13.6034C18.7298 13.6148 18.9139 13.1295 18.9344 13.0815C19.0071 12.9006 19.0775 12.7198 19.1139 12.5275C19.2025 12.0696 19.1321 11.5706 18.8707 11.1814C18.5821 10.7488 18.1231 10.4581 17.6799 10.2085C16.1368 9.33178 14.5938 8.3314 14.2642 6.4268C14.1097 5.51571 14.1961 4.04834 15.0483 3.48291Z" fill="#6B4B32"/>
<path d="M17.1753 14.4482C17.1867 14.4505 17.198 14.4551 17.2094 14.4574C17.198 14.4551 17.1867 14.4505 17.1753 14.4482Z" fill="#6B4B32"/>
<path d="M16.8159 14.3086C16.8386 14.32 16.8614 14.3315 16.8841 14.3429C16.8614 14.3315 16.8386 14.32 16.8159 14.3086Z" fill="#6B4B32"/>
<path d="M16.6797 14.2124C16.6979 14.2284 16.7183 14.2445 16.7388 14.2582C16.7183 14.2445 16.6979 14.2284 16.6797 14.2124Z" fill="#6B4B32"/>
<path d="M16.6751 14.2079C16.657 14.1919 16.6365 14.1736 16.6206 14.1553C16.6365 14.1736 16.6547 14.1919 16.6751 14.2079Z" fill="#6B4B32"/>
<path d="M16.7461 14.2651C16.7665 14.2789 16.7893 14.2926 16.8097 14.3063C16.7893 14.2926 16.7665 14.2789 16.7461 14.2651Z" fill="#6B4B32"/>
<path d="M16.4683 13.6813C16.5001 13.4844 16.6501 13.3425 16.8364 13.2646C16.6478 13.3425 16.5001 13.4844 16.4683 13.6813Z" fill="#6B4B32"/>
<path d="M13.2388 3.87443C13.2888 3.85612 13.3365 3.84009 13.3865 3.82178C13.3365 3.8378 13.2865 3.85612 13.2388 3.87443Z" fill="#6B4B32"/>
<path d="M13.1252 3.91797C13.0843 3.93399 13.0434 3.94773 13.0024 3.96604C13.0434 3.95002 13.0843 3.93399 13.1252 3.91797Z" fill="#6B4B32"/>
<path d="M13.1777 21.5471C13.2073 21.5448 13.2391 21.5448 13.2709 21.5425C13.2391 21.5448 13.2073 21.5471 13.1777 21.5471Z" fill="#6B4B32"/>
<path d="M14.3755 21.4642C14.4118 21.4619 14.4505 21.4574 14.4868 21.4551C14.4505 21.4574 14.4118 21.4619 14.3755 21.4642Z" fill="#6B4B32"/>
<path d="M13.6798 3.72803C13.6139 3.74634 13.5503 3.76694 13.4844 3.78755C13.5503 3.76694 13.6139 3.74634 13.6798 3.72803Z" fill="#6B4B32"/>
<path d="M13.5122 21.5309C13.5395 21.5287 13.5667 21.5287 13.594 21.5264C13.5667 21.5264 13.5395 21.5287 13.5122 21.5309Z" fill="#6B4B32"/>
<path d="M18.1048 20.8555C18.0207 20.8784 17.9366 20.899 17.8525 20.9173C17.9366 20.8967 18.0207 20.8761 18.1048 20.8555Z" fill="#6B4B32"/>
<path d="M12.855 21.5609C12.88 21.5609 12.905 21.5586 12.9322 21.5586C12.9072 21.5586 12.88 21.5609 12.855 21.5609Z" fill="#6B4B32"/>
<path d="M18.7478 14.8464C18.432 14.6999 18.0956 14.6404 17.7593 14.5786C18.1797 14.9724 18.6138 15.4783 18.9319 16.0208C19.7 17.3279 19.5978 19.0082 18.6728 20.2146C18.5615 20.3588 18.2865 20.8052 18.1115 20.8533C18.6365 20.7136 19.1478 20.5259 19.6023 20.2329C20.3205 19.7659 20.8068 19.0242 20.9113 18.1681C21.0954 16.6618 20.0296 15.4393 18.7478 14.8464Z" fill="#6B4B32"/>
<path d="M17.3288 13.2124C17.3261 13.2124 17.3235 13.2124 17.3208 13.2124C17.3235 13.2098 17.3261 13.2098 17.3288 13.2124Z" fill="#6B4B32"/>
<path d="M17.8203 20.9238C17.7454 20.9421 17.6681 20.9582 17.5908 20.9742C17.6681 20.9582 17.7454 20.9421 17.8203 20.9238Z" fill="#6B4B32"/>
<path d="M17.4168 13.2259C17.4097 13.2259 17.405 13.2236 17.3979 13.2212C17.405 13.2236 17.4097 13.2259 17.4168 13.2259Z" fill="#6B4B32"/>
<path d="M14.6934 21.4322C14.7411 21.4276 14.7865 21.423 14.8343 21.4185C14.7865 21.423 14.7388 21.4276 14.6934 21.4322Z" fill="#6B4B32"/>
<path d="M17.5126 13.2483C17.5031 13.246 17.4914 13.2436 17.4819 13.2412C17.4937 13.2436 17.5031 13.246 17.5126 13.2483Z" fill="#6B4B32"/>
<path d="M17.3778 13.2187C17.3731 13.2187 17.366 13.2163 17.3613 13.2163C17.366 13.2163 17.3731 13.2163 17.3778 13.2187Z" fill="#6B4B32"/>
<path d="M17.4795 13.2395C17.4636 13.2349 17.4477 13.2326 17.4341 13.228C17.4477 13.2326 17.4636 13.2372 17.4795 13.2395Z" fill="#6B4B32"/>
<path d="M15.0273 21.3958C15.0773 21.3912 15.1296 21.3843 15.1796 21.3774C15.1296 21.3843 15.0796 21.3912 15.0273 21.3958Z" fill="#6B4B32"/>
<path d="M16.189 21.2353C16.2503 21.2262 16.3094 21.217 16.3685 21.2056C16.3094 21.217 16.2503 21.2262 16.189 21.2353Z" fill="#6B4B32"/>
<path d="M15.3687 21.3544C15.4255 21.3476 15.4823 21.3384 15.5391 21.3315C15.4823 21.3407 15.4255 21.3476 15.3687 21.3544Z" fill="#6B4B32"/>
<path d="M16.025 21.2607C15.9387 21.2745 15.8523 21.2859 15.7637 21.2997C15.8523 21.2882 15.9387 21.2745 16.025 21.2607Z" fill="#6B4B32"/>
<path d="M8.19844 15.4671C8.21208 15.4465 8.22572 15.4259 8.23708 15.4053C8.22572 15.4259 8.21208 15.4465 8.19844 15.4671C8.01664 15.7212 7.78256 15.7235 7.54395 15.6571C7.78256 15.7235 8.01437 15.7212 8.19844 15.4671Z" fill="#936747"/>
<path d="M9.21932 8.34555C10.0147 6.94228 10.8556 5.53901 12.0373 4.43792C12.1123 4.39442 12.1896 4.35322 12.2668 4.31201C11.2396 4.85684 10.317 5.59853 9.51476 6.33336C8.68981 7.09108 7.65125 8.06398 7.68079 9.28641C7.68079 9.30701 8.72617 9.49472 8.8648 9.52677C8.88298 9.11701 9.00116 8.69809 9.21932 8.34555Z" fill="#936747"/>
<path d="M7.93003 14.5898C7.91185 14.5807 7.89367 14.5692 7.87549 14.5601C7.89367 14.5692 7.91185 14.5784 7.93003 14.5898C7.94139 14.5967 7.95048 14.6036 7.96185 14.6104C7.95276 14.6036 7.94139 14.5967 7.93003 14.5898Z" fill="#936747"/>
<path d="M9.19865 10.9065C9.34182 10.9408 9.48726 10.9134 9.60771 10.847C9.48499 10.9134 9.34182 10.9408 9.19865 10.9065C8.82822 10.8195 8.48506 10.6844 8.13281 10.5723C8.48279 10.6844 8.82822 10.8218 9.19865 10.9065Z" fill="#936747"/>
<path d="M12.4184 4.2334C12.3684 4.25858 12.3161 4.28376 12.2661 4.31123C12.3184 4.28376 12.3684 4.25858 12.4184 4.2334Z" fill="#936747"/>
<path d="M8.99414 9.56299C9.09868 9.59275 9.20549 9.62709 9.31003 9.67058C9.20549 9.6248 9.09868 9.59046 8.99414 9.56299Z" fill="#936747"/>
<path d="M13.0043 3.96582C13.0016 3.96582 12.999 3.96847 12.9937 3.96847C12.9963 3.96847 13.0016 3.96582 13.0043 3.96582Z" fill="#936747"/>
<path d="M12.8617 4.02539C12.823 4.04141 12.7844 4.05744 12.748 4.07346C12.7867 4.05744 12.823 4.04141 12.8617 4.02539Z" fill="#936747"/>
<path d="M12.6322 4.13086C12.5912 4.15146 12.5481 4.16978 12.5049 4.19038C12.5481 4.16978 12.589 4.14917 12.6322 4.13086Z" fill="#936747"/>
<path d="M7.6213 21.2055C7.27586 21.1391 6.7759 20.6195 6.51001 20.3837C6.15321 20.0655 5.81687 19.7175 5.55326 19.3123C4.67832 17.9617 5.13283 15.8694 6.82817 15.4276C6.48046 15.3658 6.11685 15.391 5.77597 15.4802C4.37152 15.8557 3.04207 17.2223 3.54203 18.7744C3.85565 19.7427 4.78286 20.3905 5.73961 20.7202C6.71908 21.0544 7.77583 21.2673 8.83939 21.3978C8.4326 21.3451 8.02354 21.2833 7.6213 21.2055Z" fill="#936747"/>
<path d="M9.53025 21.4688C9.38481 21.4551 9.24164 21.4413 9.09619 21.4253C9.24164 21.4413 9.38708 21.4551 9.53025 21.4688Z" fill="#936747"/>
<path d="M8.84375 21.3955C8.92556 21.4047 9.0051 21.4138 9.08692 21.423C9.0051 21.4161 8.92329 21.4047 8.84375 21.3955Z" fill="#936747"/>
<path d="M9.92334 21.501C10.0142 21.5078 10.1051 21.5147 10.1938 21.5193C10.1029 21.5147 10.0142 21.5078 9.92334 21.501Z" fill="#936747"/>
<path d="M5.96435 14.2833C6.06661 14.2718 6.16888 14.265 6.27114 14.2627C5.90071 13.6835 5.83026 12.9899 6.06207 12.3329C6.39841 11.4607 7.1779 10.6709 8.13238 10.5748C7.79831 10.4695 7.45742 10.3871 7.08018 10.394C5.30757 10.4306 3.86904 13.1089 5.25303 14.4504C5.27576 14.471 5.88253 14.2947 5.96435 14.2833Z" fill="#936747"/>
<path d="M11.1255 21.563C11.1528 21.563 11.1823 21.5653 11.2096 21.5653C11.18 21.5653 11.1528 21.563 11.1255 21.563Z" fill="#936747"/>
<path d="M9.60254 21.4761C9.66844 21.4807 9.73662 21.4875 9.80253 21.4921C9.73662 21.4875 9.66844 21.4807 9.60254 21.4761Z" fill="#936747"/>
<path d="M10.3691 21.5308C10.4146 21.5331 10.4623 21.5353 10.51 21.5376C10.4623 21.5353 10.4146 21.5331 10.3691 21.5308Z" fill="#936747"/>
<path d="M10.7573 21.5488C10.7869 21.5488 10.8164 21.5511 10.846 21.5534C10.8164 21.5511 10.7869 21.5511 10.7573 21.5488Z" fill="#936747"/>
</g>
</svg>
