<svg width="81" height="83" viewBox="0 0 81 83" fill="none" xmlns="http://www.w3.org/2000/svg">
<g clip-path="url(#clip0_605_11197)">
<path opacity="0.22" d="M40.0858 74.4326C59.6598 74.4326 75.5277 59.2844 75.5277 40.5981C75.5277 21.9119 59.6598 6.76367 40.0858 6.76367C20.5119 6.76367 4.64404 21.9119 4.64404 40.5981C4.64404 59.2844 20.5119 74.4326 40.0858 74.4326Z" fill="url(#paint0_radial_605_11197)"/>
<g opacity="0.56">
<path opacity="0.56" d="M76.8654 36.5709C73.2746 38.1698 70.2449 38.1442 68.2941 37.8193C69.304 37.1438 70.219 36.2203 70.9441 35.1259C71.7986 33.8347 72.61 32.5436 73.43 31.2525C72.0058 32.1332 70.0895 31.5774 68.3632 31.774C68.32 31.7826 68.2769 31.7911 68.2337 31.7997C69.5026 28.7472 70.9182 25.2414 71.4188 23.6938C70.4348 25.3184 68.5272 27.0542 66.6109 26.6181C67.405 25.934 68.0524 24.9165 68.156 23.8648C66.8354 24.8652 65.1867 24.8481 63.6416 25.1132C64.1682 22.4454 65.3162 18.8371 68.8034 18.8713C66.0412 15.9983 61.6477 18.9055 58.687 19.6494C61.6045 15.3314 64.8846 10.2524 59.9214 5.94289C63.7538 10.1497 51.1774 15.9898 50.461 16.5284C50.4437 16.3489 52.2391 10.4747 47.837 6.96895C48.0614 8.54225 48.1822 10.1925 47.3191 11.6375C47.155 9.29469 45.6963 6.67823 43.7455 5.18189C44.7554 7.42213 44.8849 13.1168 41.0179 13.2279C37.0559 13.3391 36.6503 7.43923 38.4025 5.3016C36.4949 7.00315 33.7586 9.54266 34.4405 12.1164C28.5451 11.0903 27.984 4.16437 30.6512 0.0515682C30.7289 -0.0339372 30.7289 -0.0339372 30.6426 0.0430176C28.6746 1.57356 26.9655 4.5577 26.18 6.50722C24.7126 10.1583 26.2922 12.313 27.8459 14.8782C26.4476 14.7157 24.8593 14.8611 23.6854 14.6388C20.1982 13.9804 19.3005 12.1591 18.5927 9.13223C17.0563 15.8444 21.2599 20.2052 24.5831 22.7276C21.7864 22.0692 19.3868 20.9576 16.3398 21.445C14.2855 21.7785 12.2052 23.5826 10.2286 24.2496C12.8181 23.9931 17.0908 24.4291 18.1611 25.9682C15.3299 25.3782 11.4111 27.7809 9.28772 29.5338C7.56138 30.9532 6.61189 33.202 4.03101 33.3815C6.19757 34.9719 9.84015 32.9968 12.3175 33.1421C11.9118 33.3815 5.62788 38.8453 3.70301 36.4768C4.49712 39.3584 8.39003 41.1711 10.5738 41.8893C8.13107 42.7102 2.19246 41.0599 0.85454 38.6401C2.42551 42.3511 6.2321 47.1565 10.2717 48.6528C7.40601 50.2432 2.42551 51.389 0 49.3112C1.85582 52.1158 3.86701 54.4586 7.19885 55.1084C10.6084 55.7754 13.4827 54.9374 14.6394 53.2102C13.8798 57.2546 10.0214 59.5034 4.79923 60.3072C9.52078 60.7261 12.2743 60.8972 15.3299 58.4432C14.8034 61.624 14.6135 62.2567 15.3213 65.5828C16.055 69.0202 16.5815 72.4489 15.1659 75.8007C18.4978 72.885 21.5965 67.6435 22.0713 63.3597C21.821 66.9509 26.1196 69.6615 24.8593 73.2441C26.1023 72.1839 27.9495 68.5071 28.0099 68.4045C28.6746 69.7128 29.4169 70.9269 29.46 72.3891C29.5205 74.1847 28.4847 75.4416 27.8373 77.1346C29.7708 76.1 31.7215 75.1851 32.9731 73.2527C34.0003 71.6708 33.3875 68.1138 35.3382 67.4298C35.226 70.1916 35.8302 71.4913 37.4444 73.9025C39.0326 76.271 38.7737 78.6139 37.6515 81.1961C39.4642 79.0414 41.4236 77.0748 41.7516 74.1163C42.0278 71.6024 40.4914 69.2938 42.7442 67.045C40.4741 71.363 48.4066 74.5267 51.2465 73.4664C46.8616 73.3895 49.5374 65.6427 49.7187 65.3947C50.3402 66.7714 51.2206 68.0967 52.5844 69.3536C54.4143 71.0381 57.4095 73.1244 59.671 73.8683C59.3171 71.8333 58.0051 70.0291 57.8584 67.8231C57.7203 65.7966 58.5834 63.83 58.3072 61.8292C61.3629 64.3345 62.9684 66.1215 62.1915 70.0462C63.797 68.4558 64.3667 65.5572 64.1164 62.9322C63.9696 61.3674 61.9498 58.503 63.1841 57.2119C63.2014 60.8715 72.5841 64.1549 75.6915 63.9497C73.171 63.0262 69.8047 60.5637 68.1819 58.5201C67.664 57.8703 66.7318 56.3226 66.1362 54.8006C67.7762 56.1089 69.9428 57.0323 71.4965 57.5368C69.8392 55.9977 69.1573 53.5523 68.9674 51.4146C68.9501 51.1667 68.9242 50.9187 68.8897 50.6622C72.0144 51.218 75.7433 54.5869 75.2944 56.9383C75.8382 52.9879 75.1909 49.6618 72.0834 46.6434C71.4015 45.985 70.9441 45.5575 70.5297 45.1642C71.1857 45.0616 71.8676 44.7965 72.5754 44.3006C73.4041 43.7191 74.1896 42.9239 74.837 42.1715C72.8344 42.334 70.9354 42.1886 69.2004 41.3335C72.2992 40.735 75.562 38.2297 76.8654 36.5709ZM57.6426 34.2623C50.7717 34.134 40.9057 31.3123 40.6554 38.0587C40.5604 40.6409 42.4594 43.1206 43.711 45.2753C45.3683 48.1483 46.2487 51.7139 47.2155 54.9203C47.4226 55.5958 47.578 56.2628 47.7247 56.9297C44.2893 54.6382 39.749 55.7839 35.6231 54.6211L34.8462 55.1512C34.7858 50.3971 31.4022 46.2159 30.3577 41.3763C28.8903 34.5359 33.7932 28.3966 34.0176 21.6844L32.4121 19.1877C33.5774 19.8888 34.8894 20.5044 36.3136 21.0346L43.6592 24.4975C46.4041 23.9503 48.8987 21.4023 50.3056 18.5378C50.5818 19.0338 50.9444 19.5126 51.4536 19.9487C52.7139 25.0961 52.8088 29.7134 56.46 31.8425C57.3491 32.3555 58.4971 32.6804 59.671 32.8771C58.9114 33.296 58.2209 33.7663 57.6426 34.2623Z" fill="#FFFB64"/>
<path opacity="0.56" d="M71.5142 57.5371C71.5142 57.5371 71.5142 57.5453 71.5142 57.5371C71.5471 57.5697 71.5471 57.5697 71.5142 57.5371Z" fill="#FFFB64"/>
</g>
<path d="M39.6457 68.4989C54.7433 68.4989 66.9824 56.375 66.9824 41.4194C66.9824 26.4638 54.7433 14.3398 39.6457 14.3398C24.5481 14.3398 12.3091 26.4638 12.3091 41.4194C12.3091 56.375 24.5481 68.4989 39.6457 68.4989Z" fill="#FEC20C"/>
<path opacity="0.38" d="M19.8875 45.7968C19.1106 43.3856 17.2462 47.1393 17.7036 48.6185C14.7948 47.2504 13.9057 56.1515 19.1365 55.9634C18.446 57.9642 20.5003 61.2647 22.8999 60.2216C23.297 62.7525 26.4562 67.0877 29.1838 64.856C29.6586 67.2501 32.1445 66.8482 33.8449 65.9248C34.3197 67.0364 35.6058 68.0026 36.8747 67.404C38.1435 66.8055 37.5048 65.5229 38.7132 65.027C38.4888 66.6687 42.0451 67.2245 42.3386 65.7025C42.8478 67.5579 46.1883 66.4378 46.9565 65.027C48.3721 66.6772 52.4894 64.6764 54.0432 63.9069C56.8312 62.5217 59.0927 59.5375 59.5933 56.5021C60.3702 56.5278 61.2161 55.7496 61.6132 55.1426C62.2605 54.1593 61.7944 53.6035 62.1742 52.7399C63.21 50.4141 65.6701 49.0802 66.0412 46.1645C66.1793 45.0444 66.1189 43.6507 65.7219 42.5904C65.4715 41.9234 64.5221 41.2394 64.3667 40.6494C63.8229 38.6571 66.3175 35.5875 63.7193 34.057C64.6688 32.2699 64.1423 26.8745 60.9917 28.1229C61.4319 25.5235 58.4022 22.719 56.0112 24.3521C53.2663 26.2332 53.9396 31.6372 54.0086 34.5529C53.5684 33.5867 52.2737 32.9539 51.2896 33.5183C50.3574 34.0484 50.4006 35.4421 50.1848 36.3228C48.9504 33.4071 45.6704 37.195 44.9194 38.5118C43.6851 40.6836 42.5543 44.7537 43.3657 47.2162C42.4767 46.1389 41.5703 45.1384 39.9648 45.5489C37.945 46.0705 37.5652 48.3278 36.0806 49.3539C33.8536 46.5407 31.2123 48.6613 29.4169 50.2175C28.9508 46.0619 24.6953 49.0118 23.297 50.5766C23.9789 48.0456 22.6323 46.9512 19.8875 45.7968Z" fill="#EB9206"/>
<path opacity="0.41" d="M33.5258 17.1099C30.2803 16.8106 25.8954 18.9995 25.7055 22.5651C23.6425 21.0517 19.5252 25.3184 18.2822 27.0285C16.2537 29.8331 15.5718 33.3559 15.7962 36.8445C16.3055 44.8307 24.4798 47.3274 31.1003 44.5485C34.8205 42.9923 39.7665 38.1014 37.5136 33.6979C38.9206 33.638 39.6198 32.5778 39.3436 31.1498C43.1243 32.1331 47.5523 28.8241 48.4759 25.2756C50.6856 16.7935 42.5891 12.8175 33.5258 17.1099Z" fill="#FFFB64"/>
<path d="M33.5343 64.5225C36.823 64.514 37.9624 63.163 40.103 61.3674C43.4694 67.6862 55.6488 60.7176 58.7475 57.0579C64.0819 50.7647 65.2213 44.8905 64.1424 36.6649C63.5295 31.9963 61.0781 28.2084 57.3924 25.3184C56.7795 29.8416 58.7993 34.6555 57.3751 39.136C56.581 41.6413 55.4589 42.8213 53.275 41.6071C52.0839 40.9402 52.1961 39.7688 50.323 39.974C48.6484 40.1535 47.3019 42.1458 46.5337 43.5737C44.9886 46.4125 46.1711 56.3824 41.5273 56.3226C40.0685 54.5355 37.1855 52.586 34.7514 53.5095C32.533 54.3474 30.6945 57.3316 27.6993 56.8613C24.1171 56.2969 23.8495 50.7049 20.2846 49.8584C19.4387 49.6617 18.6619 50.4997 17.9886 50.3458C15.7702 49.8327 22.3562 64.5482 33.5343 64.5225Z" fill="#EB9206"/>
<path d="M56.1235 53.6891C51.6436 54.6383 53.0333 48.4648 56.0112 47.4302C60.3185 45.9338 59.9387 51.047 57.8239 53.2018L56.1235 53.6891Z" fill="#EB9206"/>
<path d="M60.2575 37.5715C58.4794 37.0755 57.9788 33.4672 60.4647 33.9974C60.4388 35.5792 60.4043 37.2551 62.4068 36.4086C63.2959 38.3154 63.693 41.8553 62.2083 43.7108C59.6188 46.9514 57.2105 42.2572 59.2908 39.4954L60.2575 37.5715Z" fill="#EB9206"/>
<path d="M34.0176 59.7091C32.9041 62.0519 30.6512 63.326 28.5451 61.5389C26.4475 59.7518 28.2429 57.1696 30.3836 58.6488C32.1358 55.8357 39.7318 55.7331 36.21 59.9571L34.0176 59.7091Z" fill="#EB9206"/>
<path opacity="0.41" d="M22.6582 38.1099C14.3027 38.0671 23.1847 24.3863 24.8765 31.5773C29.037 32.5435 27.4401 25.1045 28.4414 23.3089C30.0469 20.4445 35.6662 18.2983 35.4504 23.2491C36.0632 22.2743 38.0399 21.5732 37.591 23.4201C40.5604 20.53 46.732 21.4706 44.4964 26.5325C43.5642 28.6445 41.1732 29.7475 39.0584 30.1579C37.1767 30.5256 35.8647 29.7988 34.1643 29.6449C34.7426 30.9274 34.6045 32.7658 32.8954 33.0822C32.7745 36.5622 32.2739 40.068 29.3736 42.3424C28.1307 43.3172 26.2144 44.5484 24.5313 44.3945C21.1994 44.1038 22.1316 41 22.6582 38.1099Z" fill="#FFFB64"/>
<path opacity="0.41" d="M41.6052 19.333C40.6729 19.7947 38.5064 20.3334 37.7813 18.9739C37.0908 17.6827 39.102 15.4511 39.827 16.9731C42.3648 15.2972 45.2564 18.401 41.9763 19.1534L41.6052 19.333Z" fill="#FFFB64"/>
<path opacity="0.41" d="M24.4791 26.7378C25.7738 25.0533 24.0129 23.3005 22.2176 24.0273C21.1559 24.4548 19.3518 26.6523 20.8537 27.0884C19.7057 27.456 18.6095 28.636 20.1977 29.0806C21.3544 29.4055 23.2361 28.0546 24.1165 27.456L24.4791 26.7378Z" fill="#FFFB64"/>
<path opacity="0.41" d="M51.2639 23.4886C48.4672 21.2398 53.698 18.5293 52.8952 21.616C55.8214 19.0594 55.4848 25.8656 54.0087 27.456C50.8582 30.8506 47.0947 26.6523 51.0826 24.0273L51.2639 23.4886Z" fill="#FFFB64"/>
<path opacity="0.41" d="M17.0046 46.0538C17.4362 45.0278 16.9269 42.2831 15.5458 41.7615C13.5001 40.9834 13.7763 44.0872 14.4323 45.1218C11.6961 45.4639 15.822 51.5604 16.6421 46.9602L17.0046 46.0538Z" fill="#FFFB64"/>
<path d="M46.5251 21.3251C46.8876 19.6064 46.4215 18.0075 45.1613 16.7506C44.1773 15.7758 42.2006 14.7754 40.9663 15.7672C39.1968 14.0742 35.7872 15.2029 34.9759 17.3063C34.5443 16.3914 32.4899 16.6821 31.6354 16.8874C30.237 17.2123 29.2617 18.1015 28.8819 19.4782C26.5858 17.9562 23.0209 20.547 21.5017 22.1545C18.7223 25.1044 16.5299 28.6614 15.425 32.5519C14.1993 36.8785 14.0612 40.8117 17.5312 44.1807C21.5708 48.1053 27.2159 48.3191 32.5244 47.1733C37.2978 46.1473 42.1143 40.8032 43.0897 36.1945C45.403 37.306 46.5855 33.9713 46.0503 32.2954C49.8051 31.9363 53.4995 21.5987 46.5251 21.3251Z" fill="#EB9206"/>
<path opacity="0.16" d="M28.0618 53.3299C27.5353 52.244 27.1468 50.6279 25.9384 50.0294C24.8249 49.4821 22.7101 50.3115 23.8236 51.7138C21.5535 49.0803 19.0071 54.3132 19.9135 56.314C17.9454 57.1776 21.1564 60.1789 21.9246 60.6064C24.0222 61.7607 27.3367 63.5136 29.5119 61.6667C29.5637 63.9667 32.8697 64.8475 34.4924 63.6846C34.2766 66.378 38.066 66.6687 39.4988 65.0441C39.6628 67.5238 47.4055 66.0616 48.8124 65.6683C51.1603 65.0185 53.0765 63.7701 54.9669 62.2652C56.3393 61.1793 58.5663 59.2896 58.6958 57.4341C60.3876 57.5624 61.8377 55.2538 62.5714 54.0225C63.7885 51.9703 63.7453 50.3799 62.6059 48.4133C64.9969 47.0709 66.8527 42.3082 64.8761 40.1193C66.8614 39.3669 65.9637 33.8518 64.056 33.4499C66.3434 31.945 62.9167 26.6864 61.3371 25.763C57.1507 23.309 53.1283 27.114 52.2306 31.09C51.5832 33.9287 51.7645 36.8872 51.0308 39.7089C50.0986 43.3172 47.6558 46.575 44.2463 48.2851C42.1919 49.3197 40.1635 48.191 38.1695 49.0974C36.072 50.055 35.4247 51.6198 34.7427 53.6634C33.8105 50.474 29.8745 52.5176 28.0618 53.3299Z" fill="#EB9206"/>
<path d="M53.2663 35.5786C51.8334 36.0232 49.1662 35.4674 48.1563 34.2276C47.1378 32.9707 47.6125 29.6445 49.7359 29.9951C47.8887 26.8827 49.0195 21.0256 52.9124 19.82C56.4169 18.734 58.4971 23.5052 57.8584 26.3526C60.8881 24.7023 61.1557 31.9703 59.1618 33.6034C62.4159 32.8937 61.5096 38.9561 60.8795 40.4353C59.1963 44.4369 55.9162 48.5155 52.0924 50.6446C47.6643 53.1157 40.3878 52.577 38.3421 47.1218C36.9092 43.2912 40.1634 39.7085 43.9786 41.2818C43.5297 38.7936 46.5595 36.7586 48.3462 38.9475C48.8296 36.4251 52.1787 37.3058 53.2663 35.5786Z" fill="#EB9206"/>
<path d="M19.7408 55.9806C18.3942 57.2375 20.3364 58.2721 21.0183 59.1357C21.985 60.3499 21.8038 61.7607 23.1589 62.7098C24.5314 63.6675 25.9125 63.3511 27.2072 64.3601C28.7264 65.5401 29.6586 66.5832 31.7734 66.1471C32.6366 65.9676 32.4726 65.3519 33.5861 65.5401C34.3198 65.6683 34.924 66.5405 35.6318 66.7628C36.8402 67.139 37.2459 66.4892 38.4026 66.4721C39.6283 66.455 39.6887 67.0193 40.8022 67.6093C43.7197 69.1484 44.1685 66.5832 46.5164 65.9505C47.7075 65.6256 48.0183 66.2498 49.1749 65.5572C50.0122 65.0527 50.1417 64.514 50.9876 64.2746C52.2133 63.924 52.0148 64.5396 53.1283 63.5734C53.8533 62.9407 54.1554 62.0343 54.9064 61.4102C55.7609 60.6919 56.883 60.6235 57.7721 59.9737C58.9547 59.1101 59.4035 57.6907 60.1027 56.5278C60.9313 55.1597 63.3137 54.0909 63.7021 52.3808C63.8834 51.5685 63.2878 51.0127 63.469 50.209C63.6589 49.3539 64.712 48.8665 65.1004 48.1226C65.6701 47.0111 67.3015 37.4858 64.9364 37.9731C64.056 38.1527 64.1164 41.9919 64.0128 42.5562C63.6072 44.7024 62.5023 45.3865 61.4665 46.9769C60.6119 48.2936 61.1989 49.8156 60.5688 51.1666C59.8524 52.7143 58.3763 54.4842 57.4614 55.9293C56.2961 57.7762 55.4416 56.9895 53.4822 57.4427C50.7459 58.0754 50.8236 61.2049 48.7002 62.3764C47.1292 63.24 44.5656 62.6158 42.9946 62.2225C40.6295 61.6239 40.526 62.4619 38.3508 63.2314C36.3482 63.9326 34.8981 62.915 33.2235 62.1712C31.8942 61.5812 31.2728 61.7009 29.7622 61.8719C27.6388 62.1113 27.1468 61.6496 25.6794 60.1618C24.8162 59.2811 24.2293 59.3409 23.1676 58.6825C21.9246 57.8873 21.5966 55.9122 19.7408 55.9806Z" fill="#EB9206"/>
<path d="M7.53516 11.9365C7.82 14.8437 7.23305 17.5457 10.6339 18.794C12.11 19.3327 13.1889 19.0164 14.6391 18.6572C16.1669 18.281 16.6416 18.4862 18.0658 19.1361C17.5048 16.4084 15.8734 15.2114 12.999 15.3653C9.77077 15.5277 8.45875 14.5872 7.53516 11.9365Z" fill="#FFFB64"/>
<path d="M53.6374 12.2959C51.8506 11.8513 51.8765 8.31991 52.3254 7.02023C52.9555 5.19896 54.397 4.38666 55.6658 2.98438C54.069 4.77999 55.3465 5.66924 55.7435 7.60166C56.2183 9.97871 54.5437 10.6286 53.6374 12.2959Z" fill="#FFFB64"/>
<path d="M73.3091 45.5059C75.4756 47.4383 81.4143 48.0625 80.9741 43.582C79.2391 47.0364 74.9923 42.8039 73.3091 45.5059Z" fill="#FFFB64"/>
<path d="M11.9032 61.5723C7.11259 62.6325 10.3322 68.2246 8.46777 70.9265C11.5234 68.3528 12.1449 65.6936 11.9032 61.5723Z" fill="#FFFB64"/>
<path d="M66.7495 22.5825C68.0874 19.0768 71.9631 21.4026 74.1987 19.5898C73.0766 21.9156 69.6152 24.438 66.7495 22.5825Z" fill="#FFFB64"/>
<path d="M43.6159 73.124C40.8192 77.0145 47.0427 79.4856 46.5334 82.9999C46.5507 81.1786 47.7246 79.2462 47.0341 77.5019C46.3176 75.6977 44.5999 74.894 43.6159 73.124Z" fill="#FFFB64"/>
<path d="M65.4805 63.5566C64.2807 67.0966 69.477 68.7981 70.9099 71.1238C70.9789 69.3881 71.868 67.6694 70.625 66.079C69.4339 64.557 67.1119 65.318 65.4805 63.5566Z" fill="#FFFB64"/>
<path d="M10.6346 26.0192C8.36449 22.6503 4.26443 27.8319 1.76123 28.3706C3.20273 28.7554 4.98086 29.542 6.55183 28.9264C8.05375 28.3364 8.94282 25.4976 10.6346 26.0192Z" fill="#FFFB64"/>
<path d="M72.04 35.399C73.2657 32.355 76.0711 33.2529 77.7024 30.7646C76.9515 33.783 76.0624 34.8518 72.04 35.399Z" fill="#FFFB64"/>
<path d="M41.0616 1.94922C41.0443 3.84744 38.0318 11.466 40.9407 11.5857C44.0223 11.7054 42.3045 3.41136 41.0616 1.94922Z" fill="#FFFB64"/>
<path d="M34.0173 74.3896C30.4783 76.399 33.5598 80.1442 31.8594 82.7264C34.3712 80.3665 34.8546 77.8612 34.0173 74.8685V74.3896Z" fill="#FFFB64"/>
<path d="M39.6023 31.1239C39.5592 30.8332 39.119 30.9272 39.1103 31.1923C39.0758 31.979 39.0326 33.9456 37.5911 33.5437C37.384 33.4838 37.2545 33.7062 37.3322 33.8772C38.6183 36.639 36.5985 40.273 34.5441 42.137C32.8092 43.7188 30.5995 44.8817 28.312 45.4289C23.1158 46.6688 18.446 43.5051 16.6851 38.6484C16.6679 38.5971 16.5902 38.6142 16.5988 38.674C17.1858 41.9916 19.2229 44.7107 22.4166 46.0018C25.7225 47.3357 29.3737 46.3096 32.3344 44.591C35.0793 42.992 37.9019 40.2901 38.0314 36.9126C38.0486 36.4338 37.5394 34.4672 37.8415 34.108C37.8328 34.1251 38.5924 33.9798 38.6874 33.9199C39.5505 33.3898 39.7404 32.0132 39.6023 31.1239Z" fill="#FFFB64"/>
<path d="M40.008 15.1692C38.5665 14.8016 36.9351 15.135 35.5972 15.7336C34.5269 16.221 33.7846 16.6485 32.5848 16.6314C31.7388 16.6228 31.0828 16.6827 30.2801 16.9734C28.3811 17.6489 24.8248 20.1286 25.5672 22.5398C25.5844 22.5826 25.6449 22.5997 25.6794 22.5655C26.5684 21.7018 26.8274 20.4278 27.7769 19.5129C28.994 18.35 30.6426 17.5292 32.3431 17.5121C33.8018 17.495 33.9054 17.3838 35.1743 16.6399C36.7193 15.725 38.3507 15.896 40.008 15.4429C40.1375 15.4087 40.1461 15.2034 40.008 15.1692Z" fill="#FFFB64"/>
<path d="M42.3994 17.0156C42.2008 17.0156 42.1232 17.2465 42.244 17.3833C42.572 17.7424 43.4524 17.9391 42.8655 18.4607C42.3648 18.9138 41.5362 19.0849 40.8974 19.2046C40.2069 19.3328 39.3869 19.4354 38.6877 19.2559C38.0058 19.0763 38.0317 18.6915 38.0662 18.0759C38.0662 18.0417 38.0231 18.016 37.9972 18.0331C37.2635 18.4692 37.3584 19.3243 38.0835 19.709C38.9639 20.1793 40.1983 20.0254 41.1305 19.8373C41.916 19.6748 43.1503 19.3927 43.5733 18.6146C43.9876 17.8707 43.159 17.0327 42.3994 17.0156Z" fill="#FFFB64"/>
<path d="M24.6869 25.5326C24.6869 25.5069 24.6351 25.4898 24.6351 25.524C24.3675 26.8152 23.1504 27.6617 22.106 28.3201C21.5967 28.6364 21.0443 28.7134 20.466 28.5253C20.3538 28.4911 20.0258 28.1833 19.8963 28.2602C19.4474 28.5338 19.8272 29.0127 20.1811 29.1495C20.8371 29.3974 21.3464 28.7989 21.9247 28.5937C23.1073 28.1747 24.8509 26.9691 24.6869 25.5326Z" fill="#FFFB64"/>
<path d="M54.7941 22.2062C54.3798 21.334 53.7756 20.8124 53.1023 21.0946C53.0592 20.8381 52.9124 20.6158 52.6189 20.4362C52.593 20.4191 52.5585 20.4448 52.5585 20.4704C52.5585 20.9065 52.5585 21.24 52.429 21.6846C52.3427 21.9924 52.8347 22.2233 52.9642 21.9069C53.4648 20.744 54.259 22.4028 54.3453 22.6679C54.4575 22.9928 54.4834 23.3006 54.4748 23.6426C54.4489 24.8055 53.8187 25.7204 53.5598 26.8149C53.5339 26.9346 53.6806 27.0287 53.7756 26.9346C54.8977 25.8743 55.4847 23.6341 54.7941 22.2062Z" fill="#FFFB64"/>
<path d="M28.4416 34.2113C28.3381 34.331 28.4762 34.5448 28.6229 34.4422C29.3566 33.9206 30.4269 33.57 30.6082 34.8697C30.6945 35.4939 30.3665 36.1608 30.0471 36.6739C29.3825 37.7256 28.2517 38.7773 27.0519 39.1792C25.9212 39.5554 24.5746 39.316 24.1603 38.0676C23.7719 36.8962 24.3502 35.7675 25.6018 35.6307C25.9557 35.5965 26.0765 35.1861 25.7831 34.9809C25.2393 34.5961 26.1801 33.6812 26.6117 33.6128C26.8275 33.5786 27.2246 33.9035 27.3886 33.7923C27.7166 33.5871 27.5785 33.1425 27.3281 32.9287C26.9138 32.5782 26.3096 32.7834 25.9039 33.0228C25.1616 33.4674 24.5228 34.4336 24.9458 35.1348C23.91 35.6735 23.4439 37.0672 23.7546 38.1702C24.2466 39.9145 25.9471 40.1796 27.4749 39.5896C29.2271 38.9141 31.1865 37.3408 31.3505 35.34C31.5145 33.4247 29.6501 32.9116 28.4416 34.2113Z" fill="#FFFB64"/>
<path d="M40.1377 23.9849C39.4126 23.2752 38.4286 23.8225 38.1697 24.6348C38.1092 24.8314 38.3337 24.9768 38.4977 24.8828C39.6543 24.2757 39.24 26.875 38.0488 27.0375C37.272 27.1486 36.4433 26.5672 35.8305 26.2594C35.0536 25.8746 34.3458 25.5924 33.9488 24.763C33.897 24.6519 33.7502 24.5835 33.6294 24.5835C33.0597 24.5835 32.6799 24.7716 32.2828 25.0709C31.7218 23.0529 28.8647 26.4817 30.8241 26.9605C30.9104 26.9862 30.9794 26.8921 30.9363 26.8152C30.7809 26.5159 30.7205 26.2337 30.8413 25.9003C30.8845 25.7891 31.6786 24.5749 31.7563 25.6437C31.7736 25.849 32.0153 26.0542 32.2138 25.9088C33.3532 25.0367 33.2755 25.7635 33.966 26.2936C34.5271 26.7297 35.2953 26.7639 35.8995 27.1999C37.0821 28.0464 37.8503 27.978 39.1105 27.046C39.9478 26.4218 41.1821 25.0025 40.1377 23.9849Z" fill="#FFFB64"/>
<path d="M23.5126 29.5336C22.2524 29.2771 21.1475 30.4229 20.5433 31.3463C19.5506 32.8598 17.2028 37.9986 20.7677 38.1526C20.854 38.1526 20.9058 38.0414 20.8368 37.9815C20.129 37.2975 19.5334 36.7759 19.6456 35.7071C19.7233 34.9376 20.0426 34.1766 20.362 33.4754C20.7332 32.6717 21.1302 31.7739 21.7345 31.1155C22.1056 30.7136 23.4176 29.7474 23.737 30.7307C23.7457 30.7734 23.7974 30.7905 23.832 30.7734C24.557 30.3545 24.2118 29.6704 23.5126 29.5336Z" fill="#FFFB64"/>
<path d="M16.2105 41.804C14.8207 40.7095 13.6382 42.9155 14.182 44.0869C14.1993 44.1211 14.2424 44.104 14.2424 44.0698C14.277 43.4713 14.3978 42.7274 14.8121 42.2657C15.5372 41.4619 16.3054 42.3939 16.5212 43.1378C16.8233 44.1725 16.6852 45.532 16.409 46.5666C16.3831 46.6692 16.5126 46.7462 16.5816 46.6692C17.7037 45.5747 17.4275 42.7531 16.2105 41.804Z" fill="#FFFB64"/>
<path d="M45.7739 23.8562C45.5064 22.7703 44.2461 20.7866 42.9686 21.8981C42.9341 21.9238 42.96 21.9751 43.0032 21.9751C44.695 22.0691 45.351 24.0614 45.0489 25.4551C44.7899 26.6266 43.9354 27.4218 43.5815 28.4991C43.547 28.6017 43.6678 28.7385 43.78 28.6958C45.3596 28.0631 46.1537 25.3867 45.7739 23.8562Z" fill="#FFFB64"/>
<path d="M47.4228 19.0079C47.3882 18.8283 47.2501 18.7086 47.0948 18.6573C46.9308 18.5461 46.7236 18.5034 46.5423 18.5632C46.3265 18.5889 46.1366 18.7257 46.0676 18.9993C46.0589 19.025 46.0589 19.0506 46.0589 19.0677C45.9467 19.2558 45.8518 19.461 45.8086 19.6919C45.7568 19.957 45.8432 20.2135 46.0503 20.3674C46.3093 20.641 46.8444 20.6838 47.0602 20.3246C47.1293 20.2819 47.1811 20.2306 47.2242 20.1536C47.4487 19.7945 47.5091 19.4183 47.4228 19.0079Z" fill="#FFFB64"/>
<path d="M48.959 18.333C48.3548 18.333 48.3548 19.2565 48.959 19.2565C49.5546 19.2565 49.5546 18.333 48.959 18.333Z" fill="#FFFB64"/>
<path d="M18.9551 31.7572C18.7997 31.3639 18.4286 31.1929 18.0315 31.3895C17.997 31.4066 17.9711 31.4323 17.9366 31.4494C17.9279 31.4494 17.9193 31.4494 17.9107 31.4494C17.3669 31.5434 16.9353 31.9368 16.7109 32.4242C16.521 32.8346 16.3915 33.4759 16.6073 33.9205C16.6418 34.2625 16.9525 34.425 17.2633 34.3993C17.3669 34.425 17.4791 34.4506 17.6086 34.4421C18.7566 34.425 19.3176 32.655 18.9551 31.7572Z" fill="#FFFB64"/>
<path d="M17.4964 30.2432C16.7369 30.2432 16.7369 31.4146 17.4964 31.4146C18.256 31.4146 18.256 30.2432 17.4964 30.2432Z" fill="#FFFB64"/>
<path d="M44.8935 32.4158C44.2548 31.8173 43.5038 31.9028 42.7874 32.3303C42.0796 32.4757 41.3632 33.04 40.9143 33.4504C40.1634 34.1345 39.6282 35.0579 39.6627 36.0925C39.6886 36.8877 40.1547 37.5547 41.0179 37.4777C41.8465 37.4008 42.2091 36.7338 42.5802 36.0925C44.0563 36.9732 46.335 33.7753 44.8935 32.4158Z" fill="#FFFB64"/>
<path d="M42.4852 37.0673C42.2953 37.1271 42.1658 37.2212 42.0709 37.3409C41.8896 37.452 41.7602 37.6658 41.7774 37.9138C41.7947 38.2216 42.1054 38.4952 42.4075 38.4182C42.632 38.3926 42.8478 38.2558 42.9168 38.0335C42.9427 38.0078 42.9686 37.9822 42.9945 37.9565C43.3139 37.5717 43.0377 36.8962 42.4852 37.0673Z" fill="#FFFB64"/>
<path d="M32.2395 29.2601C32.2136 29.1319 32.1704 29.0036 32.0927 28.8753C31.9287 28.5846 31.5403 28.5077 31.2555 28.6616C30.6081 29.0122 30.2714 29.7646 30.3578 30.4829C30.3491 30.5256 30.3232 30.5684 30.3232 30.6197C30.3232 30.8762 30.4872 31.1156 30.703 31.2438C31.3849 31.6372 32.0927 30.9702 32.2826 30.3546C32.3949 30.0126 32.3948 29.5765 32.2395 29.2601Z" fill="#FFFB64"/>
<path d="M28.7265 29.9016C28.7351 29.9358 28.7437 29.9785 28.761 30.0127C28.8991 30.5258 29.6673 30.5258 29.8054 30.0127C29.8141 29.9785 29.8227 29.9358 29.84 29.9016C30.0817 28.9781 28.4675 28.9781 28.7265 29.9016Z" fill="#FFFB64"/>
<path d="M25.8086 42.7189C25.8259 42.7018 25.8345 42.6933 25.8518 42.6762C26.1453 42.4624 26.1453 42.0606 25.8518 41.8468C25.8345 41.8297 25.8259 41.8126 25.8086 41.804C26.0158 41.881 25.636 41.71 25.6015 41.6929C25.5151 41.6672 25.4288 41.6758 25.3425 41.6843C25.3339 41.6843 25.3339 41.6843 25.3252 41.6843C25.308 41.6843 25.2907 41.6843 25.2734 41.6929C24.9627 41.7698 24.8419 42.0093 24.8591 42.2572C24.8419 42.5052 24.9541 42.7446 25.2734 42.8216C25.2907 42.8216 25.308 42.8216 25.3252 42.8301C25.3339 42.8301 25.3339 42.8301 25.3425 42.8301C25.4288 42.8472 25.5151 42.8472 25.6015 42.8216C25.6791 42.8045 26.0071 42.642 25.8086 42.7189Z" fill="#FFFB64"/>
<path d="M27.2155 41.3076C26.6026 41.3076 26.6026 42.2567 27.2155 42.2567C27.8283 42.2567 27.8283 41.3076 27.2155 41.3076Z" fill="#FFFB64"/>
<path d="M27.7079 43.5055C27.7079 43.4969 27.7079 43.4884 27.7079 43.4798C27.6733 43.1207 27.4403 42.8899 27.0777 42.8557C26.4563 42.7958 25.6104 42.9668 25.6104 43.7449C25.6104 43.8219 25.6362 43.8988 25.6535 43.9672C25.6535 44.3434 25.8348 44.7111 26.275 44.8907C26.3699 44.9249 26.4563 44.9334 26.5426 44.9078C27.1468 45.1301 27.7942 44.8223 27.8373 44.1211C27.8546 43.8988 27.8028 43.6851 27.7079 43.5055Z" fill="#FFFB64"/>
<path d="M32.4377 21.0004C32.1356 20.9149 31.9284 20.9576 31.7385 21.0688C31.6522 21.0688 31.5659 21.0688 31.4882 21.0944C31.1343 21.2056 30.953 21.5561 30.9876 21.9067C31.0221 22.2145 31.2379 22.5138 31.5832 22.4967C31.8335 22.4881 32.0924 22.4967 32.3168 22.3684C32.524 22.2573 32.6535 22.0606 32.783 21.8725C33.0246 21.5561 32.7916 21.103 32.4377 21.0004Z" fill="#FFFB64"/>
<path d="M34.38 18.2471C33.6722 18.2471 33.6722 19.3415 34.38 19.3415C35.0878 19.3415 35.0878 18.2471 34.38 18.2471Z" fill="#FFFB64"/>
<path d="M36.2444 36.2199C36.184 35.7325 35.9768 35.2536 35.5107 35.0313C35.1654 34.8603 34.7597 34.886 34.4317 35.0655C34.3886 35.057 34.3368 35.057 34.2936 35.0741C33.7239 35.2536 33.4477 35.8864 33.2405 36.3994C32.9902 37.0065 32.8176 37.6905 33.0075 38.3404C33.3355 39.4862 34.518 39.965 35.4157 39.0586C36.0976 38.366 36.348 37.1604 36.2444 36.2199Z" fill="#FFFB64"/>
<path d="M35.0187 33.2701C34.6907 33.1333 34.3454 33.0222 34.0001 33.2017C33.862 33.2787 33.7584 33.3899 33.6721 33.5181C33.1974 33.5865 33.0852 34.1679 33.3614 34.5185C33.957 35.2624 34.8633 34.7836 35.2431 34.1081C35.3898 33.8516 35.3294 33.3984 35.0187 33.2701Z" fill="#FFFB64"/>
<path opacity="0.6" d="M40.8363 45.2072C39.3602 45.0448 37.8497 45.9084 36.9261 46.9943C36.4945 47.4988 36.3823 48.2084 35.9939 48.6873C35.1307 49.7304 34.6818 48.3709 33.8187 48.046C32.5757 47.5757 30.7889 48.6103 29.6496 49.397C28.6828 46.3273 24.341 48.14 23.2793 50.5342C23.2621 50.5855 23.2966 50.6453 23.357 50.6282C25.2733 50.0468 27.9491 46.7292 29.0453 50.1409C29.1403 50.4316 29.5978 50.5427 29.7531 50.2349C30.4609 48.8583 32.3858 48.0203 33.8532 48.5077C34.5783 48.7471 35.0444 49.3371 35.7349 49.6364C35.8558 49.6877 36.0198 49.6278 36.0111 49.4825C35.9421 48.0374 38.0655 46.5838 39.2739 46.2247C39.9644 46.0195 40.7068 45.9682 41.38 46.2589C41.9843 46.5154 42.3554 47.0541 42.9338 47.3534C43.046 47.4132 43.1927 47.3448 43.1927 47.208C43.1409 46.0195 41.9325 45.3269 40.8363 45.2072Z" fill="#FFFB64"/>
<path opacity="0.6" d="M60.1631 27.5413C59.7919 26.5751 59.0323 25.7542 57.9188 25.7628C56.6758 25.7713 55.7436 26.8059 55.1394 27.7636C54.5956 28.6272 54.1295 29.6533 53.9655 30.6622C53.7842 31.7396 54.0432 32.8255 53.8533 33.8858C52.2996 32.663 50.1416 33.578 49.9604 35.7583C49.9517 35.8438 50.0812 35.8695 50.1157 35.8011C50.9271 34.2876 52.3514 33.1162 53.7756 34.9033C54.0173 35.2026 54.4057 34.9118 54.4489 34.6297C54.6129 33.3471 54.3453 32.0645 54.5697 30.7905C54.8114 29.4224 55.7436 26.9085 57.3577 26.5323C58.9719 26.1561 59.6365 28.003 59.5847 29.2685C59.5243 30.6024 58.7475 31.7823 58.6352 33.1162C58.6007 33.5609 59.343 33.6635 59.4207 33.2188C59.7746 31.2864 60.9313 29.5421 60.1631 27.5413Z" fill="#FFFB64"/>
<path opacity="0.6" d="M54.5091 42.1796C53.2921 41.2391 51.7384 39.5803 50.0811 39.5119C48.2857 39.4434 47.0082 41.0681 46.3349 42.5216C45.1437 45.0868 45.3164 47.9769 44.7467 50.6874C44.505 51.8075 44.1424 52.9362 43.6504 53.9708C43.0894 55.1422 42.5111 55.604 41.2422 55.869C41.0696 55.9032 41.0178 56.1426 41.1386 56.2538C43.7799 58.7506 45.6789 50.9952 45.8602 49.7639C46.2659 47.0192 46.1191 43.4366 48.2684 41.3246C50.7716 38.8706 52.075 42.9919 54.4487 42.3677C54.535 42.3506 54.5782 42.2309 54.5091 42.1796Z" fill="#FFFB64"/>
<path opacity="0.6" d="M33.8362 55.1855C32.2652 55.5874 30.9273 56.6819 30.5993 58.2381C29.3563 57.9559 27.7336 58.1098 27.2157 59.401C26.7237 60.6237 27.3452 62.2483 28.7866 62.2739C28.9506 62.2739 28.9938 62.0687 28.8643 61.9832C28.4845 61.7353 28.1047 61.1624 28.0012 60.7177C27.7508 59.6318 28.4673 59.1017 29.5376 58.9734C30.0124 58.9221 30.4439 59.0162 30.9187 58.905C31.0913 58.8623 31.1604 58.6827 31.1345 58.5288C30.9273 57.3574 32.5501 56.3741 33.4737 56.0492C34.7339 55.6131 35.6748 55.7413 36.0977 57.0923C36.1236 57.1864 36.2531 57.1778 36.2876 57.0923C36.9091 55.5019 35.1223 54.8606 33.8362 55.1855Z" fill="#FFFB64"/>
<path opacity="0.6" d="M59.5153 48.5676C59.1442 47.1824 57.5818 46.7976 56.3044 47.0798C54.6039 47.456 53.5163 48.9951 52.9811 50.5513C52.5409 51.8424 52.4287 53.544 53.7666 54.3477C54.8111 54.9719 56.6669 54.5615 57.297 53.5012C57.3402 53.4243 57.2538 53.3302 57.1762 53.3815C56.5115 53.7834 55.985 54.0998 55.1391 54.0057C54.3449 53.9202 53.7062 53.3986 53.5163 52.6291C53.2228 51.432 54.0515 49.7475 54.8456 48.8925C55.8728 47.7809 57.5732 47.4303 58.6867 48.5761C58.7471 48.6445 59.0838 49.2174 59.2996 49.0207C59.3427 48.9865 59.3859 48.9438 59.4204 48.9096C59.5153 48.8241 59.5412 48.6873 59.5153 48.5676Z" fill="#FFFB64"/>
<path opacity="0.6" d="M59.3687 33.5357C57.7546 34.5789 58.2812 36.4515 59.3515 37.64C55.8988 38.8884 57.8323 48.0032 61.7943 44.5146C61.8978 44.4291 61.7856 44.2837 61.6734 44.3094C59.6536 44.6685 58.5746 44.0529 58.2984 41.958C58.1258 40.5985 58.4538 38.2727 60.2406 38.3155C60.6721 38.324 60.7671 37.7768 60.4477 37.5545C60.0075 37.2809 59.6622 36.9217 59.4119 36.4686C58.7559 35.1689 59.2479 34.3908 60.8793 34.1343C61.4835 34.3566 62.1568 35.6819 62.3812 36.2634C62.4071 36.3318 62.4934 36.3147 62.5021 36.2462C62.6661 34.6644 61.121 32.4156 59.3687 33.5357Z" fill="#FFFB64"/>
<path opacity="0.6" d="M49.7276 51.9106C47.5178 51.1667 45.9641 53.8943 46.2749 55.8011C45.5757 56.0234 45.3254 56.8614 45.4203 57.6138C43.2365 58.2209 39.6457 60.9143 42.2784 63.0177C43.4523 63.9583 45.2304 63.7787 46.5511 63.2657C47.4661 62.9066 49.1924 61.9575 48.8903 60.7518C48.8558 60.6065 48.6745 60.5808 48.5709 60.6663C47.9235 61.2221 47.6042 61.8891 46.7842 62.308C45.8778 62.7783 44.4967 63.1203 43.4782 62.7869C41.8295 62.2311 41.8986 60.6236 43.0984 59.5975C43.9702 58.8622 44.9111 58.6057 45.9555 58.2636C46.2058 58.1781 46.2921 57.9387 46.1886 57.7079C46.3267 57.2889 46.4648 56.8614 46.6029 56.4424C46.8532 56.4937 47.1294 56.2799 47.0431 56.0063C46.577 54.5185 47.7768 51.4403 49.8743 52.5177C52.0236 53.6207 50.2455 56.4595 49.3737 57.648C49.3391 57.6993 49.4082 57.7506 49.4514 57.725C51.6093 56.6989 52.507 52.8426 49.7276 51.9106Z" fill="#FFFB64"/>
<path opacity="0.6" d="M53.2922 45.6769C52.9556 44.933 52.3686 44.8047 51.7471 44.9501C52.032 43.924 51.8766 42.5816 50.4955 43.0519C49.218 43.4794 47.9837 45.8821 49.5115 46.6944C49.6151 46.7457 49.7273 46.6431 49.6669 46.5319C49.218 45.7196 49.546 44.5568 50.2279 43.9753C51.376 42.992 51.3414 44.5824 50.9185 45.3092C50.7286 45.6256 51.1515 45.9077 51.4105 45.6854C53.0419 44.3088 53.1368 47.5323 52.2823 48.3874C51.8421 48.8235 51.1602 49.1912 50.5387 49.2938C49.5547 49.4477 49.3734 48.8491 49.0627 48.0881C48.9763 47.8829 48.7001 47.8658 48.6224 48.0881C48.2772 49.1056 49.0713 49.9693 50.1071 49.9265C51.1515 49.8837 52.2823 49.2425 52.921 48.4387C53.4907 47.7034 53.6806 46.549 53.2922 45.6769Z" fill="#FFFB64"/>
<path opacity="0.6" d="M29.9349 52.0302C29.7795 51.9105 29.6069 51.8421 29.4429 51.7908C29.3566 51.7481 29.2616 51.7139 29.1408 51.7139C28.83 51.7139 28.5538 51.7994 28.3121 51.9447C27.7252 52.2355 27.2418 52.8169 27.0605 53.4069C26.9483 53.7574 27.19 54.1251 27.5266 54.2277C27.613 54.2534 27.6993 54.2534 27.7856 54.2705C28.3294 54.4158 28.8559 54.279 29.2875 53.9798C29.5378 53.843 29.7623 53.6634 29.9781 53.4411C30.1162 53.3043 30.168 53.1333 30.1593 52.9622L30.168 52.9537C30.3492 52.586 30.2456 52.2611 29.9349 52.0302Z" fill="#FFFB64"/>
<path opacity="0.6" d="M27.095 51.4062C26.3095 51.4062 26.3095 52.6119 27.095 52.6119C27.8718 52.6119 27.8805 51.4062 27.095 51.4062Z" fill="#FFFB64"/>
<path opacity="0.6" d="M56.5637 37.6735C56.9521 36.9296 57.0816 35.8608 56.0976 35.5529C55.5624 35.3819 55.1049 35.6726 54.7338 36.0745C53.7584 36.7757 53.1283 37.9813 52.9729 39.1442C52.9384 39.4178 53.1542 39.6401 53.3786 39.7598C53.5685 40.0334 53.9137 40.1702 54.2676 39.965C54.354 39.9137 54.4489 39.8538 54.5352 39.794C54.6043 39.7683 54.6647 39.7427 54.7338 39.7085C54.8373 39.6999 54.9323 39.6743 55.0272 39.6059C55.1912 39.4862 55.3207 39.3579 55.4329 39.2211C55.6056 39.0501 55.7609 38.862 55.899 38.6568C56.2012 38.4003 56.4342 38.0411 56.5637 37.6735Z" fill="#FFFB64"/>
<path opacity="0.6" d="M53.1283 35.6305C52.6449 35.9126 52.4636 36.4684 52.8434 36.9131C52.9988 37.0926 53.3182 37.1183 53.5167 36.9986C53.6116 36.9387 53.6807 36.8789 53.7497 36.7933C53.7929 36.7506 53.8533 36.6907 53.8706 36.6736C53.9224 36.6138 53.9483 36.5454 53.9914 36.477C54.3194 35.9468 53.6548 35.3227 53.1283 35.6305Z" fill="#FFFB64"/>
<path opacity="0.6" d="M22.6843 53.3123C22.5117 52.996 22.2528 52.7736 21.9765 52.6625C21.7953 52.4573 21.5795 52.2863 21.3464 52.158C20.9407 51.9442 20.5005 52.1495 20.3538 52.5599C20.207 52.9618 20.2675 53.3893 20.4401 53.7741C20.3365 54.6206 20.8803 55.45 21.6658 55.8262C22.0801 56.0229 22.4772 55.8518 22.6412 55.4329C22.6412 55.4243 22.6412 55.4158 22.6498 55.4072C22.8138 55.2961 22.9433 55.1421 23.0037 54.9284C23.1505 54.4154 22.9347 53.7655 22.6843 53.3123Z" fill="#FFFB64"/>
<path opacity="0.6" d="M19.6027 52.5259C19.3869 52.3635 18.9898 52.4233 18.8949 52.7397C18.8431 52.9278 18.8344 53.0561 18.8603 53.2527C18.938 53.7743 19.7062 53.7914 19.9393 53.3895C20.1465 53.0561 19.9393 52.6285 19.6027 52.5259Z" fill="#FFFB64"/>
<path opacity="0.6" d="M22.8221 47.9516C22.5372 47.1393 21.8381 46.6006 21.1907 46.7631C21.0612 45.9593 20.3879 45.2154 19.5593 45.1299C18.2645 44.9845 17.6948 46.2158 17.7639 47.3188C17.7725 47.43 17.9106 47.4386 17.9538 47.3445C18.2473 46.6348 18.7479 45.4206 19.7751 46.0448C20.3275 46.3783 20.3016 47.0623 20.4225 47.6267C20.5001 47.9858 21.0094 47.943 21.113 47.6267C21.2856 47.1051 21.7604 47.7464 21.8726 47.9259C22.097 48.3022 22.1229 48.6869 21.9848 49.0974C21.7517 49.7557 21.182 49.8498 20.7159 50.2773C20.5606 50.4141 20.6555 50.645 20.8281 50.7049C22.2696 51.2008 23.2191 49.0717 22.8221 47.9516Z" fill="#FFFB64"/>
<path opacity="0.6" d="M47.2585 38.0503C45.3941 36.4 43.7022 38.9224 43.1325 40.6753C42.2348 40.2478 40.7761 40.7181 39.9474 41.0601C38.1779 41.7869 37.3407 43.7792 37.9708 45.5662C38.0312 45.7372 38.2643 45.7372 38.3247 45.5662C38.7563 44.3435 38.4628 43.1208 39.5763 42.1631C40.1373 41.6757 42.537 40.4872 42.9599 41.6244C43.0894 41.9835 43.7195 42.0862 43.7972 41.6244C43.9698 40.5727 44.3582 39.3329 45.3509 38.76C46.1105 38.3239 47.1808 38.2983 46.9564 39.4355C46.8355 40.0768 46.0932 40.4615 45.5494 40.6753C45.5322 40.6839 45.5149 40.7181 45.5408 40.7266C47.0168 41.385 48.4583 39.1106 47.2585 38.0503Z" fill="#FFFB64"/>
<path opacity="0.6" d="M37.1249 58.0245C37.0818 57.9989 37.0214 57.9903 36.9782 58.0245C36.6761 58.2383 36.771 58.5461 36.7106 58.871C36.6416 59.2729 36.443 59.5893 36.0891 59.7859C35.718 59.9997 35.295 60.051 34.8721 60.051C34.6908 60.051 33.9744 60.0766 33.9312 59.8201C33.9226 59.7774 33.8535 59.7859 33.8535 59.8287C33.8535 60.2989 34.0003 60.4785 34.5009 60.6068C35.0533 60.7521 35.6662 60.6752 36.1927 60.4614C36.6761 60.2647 37.0559 59.9227 37.2458 59.4439C37.4011 59.0506 37.591 58.2639 37.1249 58.0245Z" fill="#FFFB64"/>
<path opacity="0.6" d="M39.4556 49.4396C38.5925 49.5935 37.6602 50.098 37.3926 50.9787C37.2545 51.4233 37.6171 51.7824 38.04 51.8166C38.0659 51.8166 38.0918 51.8166 38.1263 51.8252C38.1609 51.8594 38.1868 51.9021 38.2213 51.9363C38.9722 52.6631 39.9908 52.1415 40.5087 51.372C40.8022 51.124 41.0352 50.8247 41.1129 50.5084C41.346 49.4909 40.1807 49.3113 39.4556 49.4396Z" fill="#FFFB64"/>
<path opacity="0.6" d="M37.6514 52.3298C37.6169 52.3127 37.591 52.2956 37.5565 52.287C37.2112 52.116 36.771 52.3212 36.771 52.7317C36.771 53.1421 37.2112 53.3473 37.5565 53.1763C37.591 53.1592 37.6169 53.1421 37.6514 53.1335C37.9622 52.9796 37.9622 52.4752 37.6514 52.3298Z" fill="#FFFB64"/>
<path opacity="0.6" d="M26.7237 64.4204C25.8433 64.2066 25.2477 63.6081 24.6867 62.9326C24.2205 62.3597 23.5645 61.6243 23.3746 60.8975C23.3574 60.8377 23.2883 60.8633 23.2797 60.9061C23.107 62.2485 24.0306 63.591 25.0751 64.3862C25.5844 64.7709 26.3267 65.1472 26.9913 65.0617C27.6819 64.9676 28.1652 63.8646 28.64 64.7795C28.6572 64.8137 28.709 64.788 28.7004 64.7538C28.3897 63.5568 27.6042 64.6341 26.7237 64.4204Z" fill="#FFFB64"/>
<path opacity="0.6" d="M37.9539 64.6513C37.8157 64.8737 37.7812 64.9934 37.7122 65.2328C37.4446 66.1049 37.7726 66.0451 36.754 66.5581C35.6147 67.1395 35.9427 66.8659 35.2694 65.9339C35.1226 65.7287 35.0277 65.5492 34.8464 65.361C34.7946 65.3097 34.6824 65.3012 34.6306 65.361C33.4222 66.7633 32.8525 65.5919 31.575 65.2413C31.083 65.1131 30.7636 65.1729 30.4788 65.5919C30.4702 65.609 30.4961 65.6176 30.5047 65.609C31.0398 64.8908 32.6453 66.6009 33.2927 66.6693C33.6639 66.712 33.9919 66.6522 34.294 66.4213C34.9069 65.9596 34.7083 65.6945 35.2867 66.4384C35.7787 67.0626 36.2361 67.7808 37.1684 67.2678C37.9539 66.8403 38.3423 65.5833 38.3682 64.7625C38.3768 64.5402 38.0661 64.4718 37.9539 64.6513Z" fill="#FFFB64"/>
<path opacity="0.6" d="M58.9717 57.3063C58.9199 56.9386 58.4279 56.9301 58.3848 57.3063C58.2208 58.6915 58.5747 59.0335 56.503 60.051C56.3563 60.128 56.1491 60.0681 55.9938 60.1536C55.5967 60.3845 55.3119 60.5384 55.0356 60.9317C54.5782 61.5987 54.5091 62.4623 54.0689 63.1292C53.1453 64.5144 51.8937 63.8646 50.6248 64.1724C50.2278 64.2664 49.9688 64.5572 49.6408 64.788C48.8036 65.3951 48.7 65.4635 47.2585 65.207C47.0254 65.1642 46.8528 64.9761 46.6025 64.9761C46.1018 64.9847 45.8083 65.0787 45.3595 65.2925C45.2041 65.3695 45.161 65.5918 45.0229 65.6687C44.2719 66.062 43.7022 65.7628 43.0462 65.4293C42.9944 65.4037 42.934 65.4464 42.9513 65.5063C43.1325 66.2502 43.5641 66.9 44.4273 66.9342C45.1005 66.9598 45.1264 66.6178 45.6098 66.3357C46.8442 65.6089 47.8627 66.6178 49.028 66.0877C50.0552 65.6174 50.2364 64.7111 51.4621 64.6683C52.4375 64.6341 53.1453 64.8222 53.9567 64.0869C54.7163 63.3943 54.8112 62.3511 55.3032 61.5132C55.9679 60.3845 57.4094 60.7949 58.2812 59.8886C58.9458 59.196 59.0839 58.2041 58.9717 57.3063Z" fill="#FFFB64"/>
<path opacity="0.6" d="M64.2285 49.6275C64.2458 49.5506 64.1681 49.4821 64.0904 49.5249C63.6329 49.8156 63.2531 50.1063 62.718 50.2773C62.5626 50.3287 62.4245 50.5082 62.4849 50.6792C62.8215 51.5685 62.9251 54.2277 61.4577 54.108C61.3973 54.0994 61.38 54.1764 61.4146 54.2191C62.1483 55.0143 62.8906 54.3389 63.1582 53.518C63.4171 52.7057 63.5121 51.6112 63.2186 50.7562C63.702 50.5082 64.1077 50.1576 64.2285 49.6275Z" fill="#FFFB64"/>
<path opacity="0.6" d="M64.5136 41.0771C64.3323 40.9745 64.1424 41.1113 64.1252 41.2994C64.0906 41.6756 64.1424 41.744 64.3409 42.0433C64.8761 42.8471 65.5149 43.0608 65.5753 44.2066C65.653 45.7457 65.2818 47.3703 64.574 48.7298C64.5395 48.7982 64.6344 48.8581 64.6862 48.7897C66.1968 46.7376 67.2844 42.6419 64.5136 41.0771Z" fill="#FFFB64"/>
<path opacity="0.6" d="M61.2505 9.20876C61.2332 9.02065 60.9657 9.0121 60.957 9.20876C60.9398 9.34557 60.9484 9.48238 60.9398 9.61064C60.7153 9.69614 60.4391 10.7564 60.301 11.0215C59.7572 12.0561 58.9027 13.0565 57.8928 13.6978C57.1159 14.1937 56.2355 14.5357 55.4586 15.0402C54.5437 15.6302 52.8864 17.0496 54.3192 18.0158C54.5091 18.1441 54.699 17.8961 54.6127 17.7251C53.7495 15.9295 57.1073 14.9718 58.238 14.2707C59.9299 13.2104 61.4922 11.278 61.2505 9.20876Z" fill="#FFFB64"/>
<path opacity="0.6" d="M60.4825 12.646C60.025 13.5096 59.6884 14.3304 59.3518 15.2368C58.9288 16.374 58.2296 17.2889 57.7117 18.3663C57.6599 18.4775 57.7722 18.6057 57.8844 18.5373C59.8006 17.4685 59.9732 14.51 60.5084 12.6545C60.517 12.646 60.4912 12.6289 60.4825 12.646Z" fill="#FFFB64"/>
<path opacity="0.6" d="M65.6878 18.3412C64.3844 18.1103 62.7789 18.7345 61.6482 19.3245C60.7246 19.8033 59.145 20.8123 59.3866 22.035C59.4384 22.2915 59.7837 22.2915 59.9132 22.1034C60.6382 21.0517 61.2425 20.4104 62.4595 19.8717C63.5126 19.4015 64.5657 19.2134 65.6878 19.0081C66.0244 18.9483 66.0244 18.4011 65.6878 18.3412Z" fill="#FFFB64"/>
<path opacity="0.6" d="M65.342 18.7517C64.2976 19.1707 63.5294 19.9402 62.951 20.8808C62.4159 21.7444 61.6563 23.0526 61.7081 24.0958C61.7167 24.1984 61.8548 24.2839 61.9325 24.1899C62.5454 23.4545 62.7525 22.3857 63.21 21.5477C63.7624 20.5217 64.4616 19.5555 65.3938 18.8372C65.4283 18.803 65.3852 18.7346 65.342 18.7517Z" fill="#FFFB64"/>
<path opacity="0.6" d="M33.1798 13.6041C32.8259 13.2535 32.3684 13.1167 31.9368 12.8602C31.1945 12.4241 30.5299 11.8598 29.9343 11.2356C28.7345 9.97014 27.7677 8.4396 27.6123 6.67819C27.5951 6.51573 27.3448 6.39602 27.2671 6.58413C26.0414 9.269 27.6814 12.2189 29.1401 14.4677C29.1488 14.4848 29.1747 14.4677 29.166 14.4506C28.0094 12.407 27.0167 10.1155 27.362 7.77266C27.6382 9.08944 28.3719 10.3207 29.2178 11.3382C30.0378 12.3215 31.6433 14.1343 33.1021 13.9205C33.2488 13.9034 33.2747 13.6982 33.1798 13.6041Z" fill="#FFFB64"/>
<path opacity="0.6" d="M36.737 11.0736C36.4867 10.3126 36.3659 9.46608 36.3141 8.66233C36.3054 8.55117 36.1673 8.50842 36.1069 8.61103C35.6149 9.41478 35.2092 10.2784 34.9761 11.1933C34.7863 11.9372 34.4755 12.9632 34.8985 13.6729C34.9503 13.7584 35.0625 13.7328 35.097 13.6473C35.4336 12.8521 35.3732 11.8944 35.5976 11.0565C35.7357 10.552 35.8652 10.0475 36.0206 9.55159C36.0033 10.8684 36.4004 12.416 37.5052 13.0744C37.557 13.1086 37.6261 13.0573 37.6088 12.9974C37.3758 12.3305 36.9528 11.7576 36.737 11.0736Z" fill="#FFFB64"/>
<path opacity="0.6" d="M45.6533 8.79856C45.1699 10.5172 44.747 12.1247 43.3572 13.3645C43.34 13.3816 43.3572 13.3987 43.3745 13.3902C44.9714 12.6377 45.6015 10.4061 45.7051 8.80711C45.7051 8.77291 45.6619 8.77291 45.6533 8.79856Z" fill="#FFFB64"/>
<path opacity="0.6" d="M48.8386 10.6112C48.8213 10.5171 48.6573 10.5171 48.64 10.6112C48.4243 11.8596 47.5266 13.0908 46.6289 14.0741C46.7756 12.27 46.4994 10.4231 45.6794 8.79846C45.6707 8.78991 45.6621 8.79846 45.6621 8.80701C45.947 10.8677 46.18 12.6975 46.0419 14.7924C46.0246 15.0062 46.3268 15.1259 46.4735 14.972C47.3108 14.0314 48.3552 12.9968 48.6832 11.7484C49.0457 10.3632 48.7177 11.4833 48.7954 12.1075C48.899 12.9626 48.9076 13.9202 49.1666 14.7496C49.2097 14.8864 49.4255 14.9035 49.4601 14.7496C49.8053 13.3816 49.0544 11.9536 48.8386 10.6112Z" fill="#FFFB64"/>
<path opacity="0.6" d="M25.7998 16.9135C24.8417 16.4945 23.7973 16.4688 22.8305 16.0157C21.7947 15.5283 20.828 14.887 19.9044 14.2286C19.7835 14.1431 19.5764 14.2884 19.6368 14.4338C20.2583 15.9558 21.5099 17.341 22.6406 18.5124C22.7356 18.6065 22.8909 18.4868 22.8219 18.3756C22.1659 17.2042 21.2768 16.161 20.4913 15.0494C22.1227 16.1012 23.7455 16.8878 25.7653 17.0759C25.8344 17.0845 25.8775 16.9477 25.7998 16.9135Z" fill="#FFFB64"/>
<path opacity="0.6" d="M18.2215 22.3683C17.3929 22.3341 16.452 22.4794 15.6493 22.6676C15.0192 22.8129 14.2078 23.0352 13.8107 23.5825C13.7935 23.6081 13.828 23.6594 13.8625 23.6423C14.5703 23.3858 15.2436 23.0951 15.96 22.8728C16.711 22.6419 17.462 22.565 18.2302 22.4367C18.2733 22.4281 18.2561 22.3768 18.2215 22.3683Z" fill="#FFFB64"/>
<path opacity="0.6" d="M17.6522 24.267C17.0307 23.942 16.228 23.9164 15.5547 23.7197C15.5461 23.7197 15.5374 23.7283 15.5461 23.7368C16.1934 23.9933 16.9185 24.3183 17.6177 24.4038C17.6867 24.4123 17.7126 24.3012 17.6522 24.267Z" fill="#FFFB64"/>
<path opacity="0.6" d="M14.2251 27.1826C12.7232 26.8406 11.532 28.089 10.6688 29.1236C9.42586 30.6114 8.35553 32.3728 6.41339 32.9885C6.18897 33.074 6.18897 33.4673 6.47381 33.4416C6.49108 33.4416 6.51697 33.4331 6.53424 33.4331C6.54287 33.4331 6.54287 33.4331 6.54287 33.4331C6.94856 33.3903 7.31972 33.2621 7.65636 33.074C8.89933 32.7747 10.1682 32.7319 11.4629 32.5524C11.6701 32.5267 11.5924 32.2446 11.4198 32.2189C10.5048 32.1077 9.56397 32.1762 8.64037 32.3472C9.04607 31.9538 9.39997 31.5092 9.71934 31.0646C11.0055 29.2519 11.9981 27.9009 14.2251 27.251C14.2596 27.2425 14.2596 27.1912 14.2251 27.1826Z" fill="#FFFB64"/>
<path opacity="0.6" d="M11.4888 34.8692C9.72791 36.2373 8.3382 38.5459 5.80048 37.8277C5.56742 37.7593 5.41205 38.1013 5.62785 38.221C7.00029 38.9563 8.11378 40.4185 9.56391 40.9401C9.66749 40.9743 9.77107 40.8374 9.71065 40.7519C9.08916 39.8285 7.85483 39.0162 6.76723 38.3749C8.76979 38.2808 10.2544 36.3142 11.5924 34.9718C11.6614 34.9034 11.5578 34.8179 11.4888 34.8692Z" fill="#FFFB64"/>
<path opacity="0.6" d="M8.22625 44.0701C9.19301 43.8648 10.505 43.3433 11.2042 42.6421C11.2215 42.625 11.2128 42.5908 11.1869 42.5908C10.3065 42.625 9.53827 43.1295 8.65784 43.2663C7.53572 43.4373 6.53444 43.3518 5.48137 42.873C5.1361 42.7191 4.64409 43.0696 4.90304 43.4459C6.25822 45.3612 8.50247 47.6185 10.7985 48.3624C10.8676 48.3881 10.9366 48.3026 10.8935 48.2342C10.2461 47.2936 9.28795 46.6694 8.42478 45.9341C7.72561 45.3526 7.0696 44.737 6.46538 44.0615C7.03508 44.1812 7.62203 44.2069 8.22625 44.0701Z" fill="#FFFB64"/>
<path opacity="0.6" d="M10.9362 53.3727C8.85593 53.2274 6.62894 53.0649 4.9026 51.8166C6.98284 51.6284 9.52057 51.1753 10.8757 49.6618C10.9362 49.602 10.8757 49.4908 10.7894 49.5165C9.70183 49.8157 8.77824 50.4998 7.68201 50.8076C6.5081 51.1325 5.2565 51.1496 4.03943 51.2095C3.71142 51.2266 3.56469 51.6626 3.8668 51.8337C5.94704 53.0478 8.47613 54.5442 10.9534 53.5267C11.0397 53.4925 11.0311 53.3727 10.9362 53.3727Z" fill="#FFFB64"/>
<path opacity="0.6" d="M14.6565 57.4686C13.9228 57.785 13.3358 58.3664 12.5503 58.5545C13.3099 57.46 14.432 56.6306 14.8032 55.2882C14.8377 55.1599 14.6737 55.1172 14.6047 55.2027C13.7415 56.3399 12.9042 57.4429 12.1705 58.6657C12.1274 58.7426 12.1792 58.8623 12.2827 58.8538C13.1891 58.7939 14.1817 58.3151 14.7601 57.6054C14.8205 57.5284 14.7428 57.4344 14.6565 57.4686Z" fill="#FFFB64"/>
<path opacity="0.6" d="M17.3323 65.4626C16.7367 63.573 16.2447 61.7431 16.5295 59.7509C16.5468 59.6141 16.3396 59.4858 16.2706 59.6483C15.6491 61.0933 15.6663 62.5127 16.0375 64.0261C16.4518 65.702 16.9611 67.6174 17.7638 69.1479C17.7984 69.2163 17.9279 69.2078 17.9451 69.1223C18.1954 67.8739 17.7121 66.6426 17.3323 65.4626Z" fill="#FFFB64"/>
<path opacity="0.6" d="M19.5424 61.2131C19.4734 61.1019 19.2921 61.1703 19.3266 61.2986C19.7755 63.06 19.4043 64.4708 18.9727 66.1724C18.9382 66.2921 19.0936 66.3434 19.1626 66.2493C20.2157 64.8898 20.4574 62.6923 19.5424 61.2131Z" fill="#FFFB64"/>
<path opacity="0.6" d="M26.3958 66.7627C25.8692 67.498 26.016 68.4899 25.6707 69.3022C25.2132 68.1307 24.5745 67.1132 23.8235 66.0872C23.8149 66.0701 23.789 66.0872 23.7976 66.1043C24.4968 67.2415 25.1097 68.4471 25.5067 69.7211C25.5499 69.858 25.7139 69.8665 25.7916 69.7553C26.3872 68.9088 26.5857 67.84 26.5771 66.8225C26.5771 66.7114 26.4562 66.6857 26.3958 66.7627Z" fill="#FFFB64"/>
<path opacity="0.6" d="M30.9705 71.3714C30.677 70.1316 29.9088 69.0285 29.0887 68.0794C29.0456 68.0281 28.9506 68.0794 28.9679 68.1478C29.3304 69.2509 30.1073 70.1829 30.4094 71.303C30.7633 72.6198 30.2195 73.7057 30.0728 74.9883C30.0469 75.1935 30.3576 75.2106 30.418 75.031C30.8323 73.851 31.2639 72.6369 30.9705 71.3714Z" fill="#FFFB64"/>
<path opacity="0.6" d="M32.7312 71.1919C32.3686 71.6195 32.1701 72.1496 31.9111 72.637C31.6004 73.2184 31.2638 73.8597 30.8494 74.3727C30.8322 74.3898 30.8581 74.4155 30.8753 74.3984C31.7558 73.569 32.6621 72.5087 32.9038 71.286C32.921 71.2005 32.8002 71.1064 32.7312 71.1919Z" fill="#FFFB64"/>
<path opacity="0.6" d="M40.517 73.1668C40.5084 73.0984 40.3962 73.1069 40.3876 73.1668C40.1459 74.1586 40.0078 75.1847 39.7402 76.1766C39.7402 75.4925 39.6366 74.8085 39.3776 74.1757C38.7648 72.6965 37.5218 71.8927 37.3233 70.1741C37.3233 70.1399 37.2715 70.1399 37.2715 70.1741C37.2542 71.2429 37.6772 71.944 38.126 72.8932C38.9202 74.552 39.1187 76.0312 39.1187 77.8354C39.1187 78.109 39.4812 78.1261 39.5762 77.8952C40.2408 76.2792 40.8537 74.9282 40.517 73.1668Z" fill="#FFFB64"/>
<path opacity="0.6" d="M48.6915 72.5939C47.5867 71.9355 48.0096 70.3622 47.9751 69.3361C47.9751 69.2335 47.8111 69.1737 47.7593 69.2763C47.2846 70.2852 47.4486 71.4053 47.9319 72.3544C47.1637 72.0979 46.4387 71.7474 45.7826 71.2685C44.9281 70.6443 44.4447 69.6952 43.6247 69.0711C43.5988 69.0539 43.5557 69.0625 43.5557 69.0967C43.5816 70.1228 44.5656 71.0291 45.3252 71.6191C46.2488 72.3373 47.3277 72.8076 48.4585 73.0983C48.7778 73.1753 48.9677 72.7563 48.6915 72.5939Z" fill="#FFFB64"/>
<path opacity="0.6" d="M57.91 72.3117C56.4857 70.328 56.831 67.8569 56.9519 65.6081C56.9605 65.3773 56.6584 65.3345 56.5462 65.497C55.8988 66.4033 56.1146 67.9253 56.27 68.9428C56.3908 69.7722 56.6066 70.576 56.926 71.3455C56.2613 70.7555 55.5708 70.1998 54.932 69.5841C53.9739 68.6692 53.2057 67.5918 52.2648 66.6684C52.2476 66.6513 52.2044 66.6684 52.213 66.694C52.964 69.0967 55.6398 71.1745 57.6079 72.611C57.7805 72.7478 58.0394 72.4913 57.91 72.3117Z" fill="#FFFB64"/>
<path opacity="0.6" d="M62.977 61.8466C62.9511 61.7952 62.8562 61.8209 62.8648 61.8722C62.9857 63.1804 62.8735 64.2749 62.5368 65.4549C62.2433 63.6251 60.7501 61.59 59.0496 61.1283C59.0237 61.1198 59.0064 61.154 59.0323 61.1711C60.6983 62.1458 62.3556 64.3177 62.2951 66.2928C62.2865 66.4638 62.5282 66.4809 62.5886 66.3356C63.0806 64.9418 63.6762 63.2745 62.977 61.8466Z" fill="#FFFB64"/>
<path opacity="0.6" d="M66.6543 58.0927C66.6198 58.0071 66.4644 58.0499 66.4731 58.144C66.4903 58.7938 66.7406 59.3581 67.0773 59.9139C67.1809 60.0849 67.6038 60.5124 67.7247 60.7861C67.6038 60.7091 67.483 60.6321 67.3621 60.5466C65.8775 59.5548 64.7467 58.2124 64.0562 56.5707C64.0389 56.5279 63.9699 56.545 63.9871 56.5878C64.2202 57.6395 64.7036 58.5629 65.4114 59.3752C66.0242 60.0764 66.991 61.0768 67.9663 61.2221C68.0354 61.2307 68.1045 61.1708 68.0613 61.0939C67.5348 60.1277 67.1118 59.1016 66.6543 58.0927Z" fill="#FFFB64"/>
<path opacity="0.6" d="M68.2077 53.4495C68.0955 52.7997 68.1214 52.1156 67.9142 51.4915C67.8711 51.3717 67.6984 51.3632 67.6553 51.4915C67.3704 52.4235 67.6121 53.5778 67.8883 54.6038C67.569 54.2789 67.2496 53.954 66.9216 53.6291C66.49 53.2016 65.998 52.7826 65.3592 52.7911C65.2988 52.7911 65.2729 52.8681 65.3075 52.9108C65.7822 53.4239 66.3605 53.8343 66.8353 54.3473C67.2841 54.8347 67.6984 55.3477 68.2681 55.6983C68.4667 55.818 68.7256 55.6214 68.6652 55.399C68.4839 54.7492 68.3199 54.1079 68.2077 53.4495Z" fill="#FFFB64"/>
<path opacity="0.6" d="M71.229 47.5151C70.5557 46.2924 69.658 44.7961 68.579 43.8812C68.4927 43.8128 68.3891 43.8983 68.4323 43.9923C69.5113 46.4121 71.6433 48.4215 72.1698 51.0893C70.9182 49.9948 69.1574 48.9345 67.5346 49.3193C67.4914 49.3279 67.5001 49.3877 67.5346 49.3963C69.4077 49.9691 70.8923 50.4907 72.3338 51.893C72.5151 52.0726 72.7741 51.8845 72.7309 51.6621C72.4892 50.1829 71.9627 48.8319 71.229 47.5151Z" fill="#FFFB64"/>
<path opacity="0.6" d="M71.7553 38.2727C70.9353 38.4181 70.1325 38.5976 69.3039 38.6831C68.6997 38.743 68.0868 38.7088 67.5258 38.9653C67.4999 38.9824 67.4999 39.0337 67.5258 39.0422C68.5529 39.4954 70.1584 39.1962 71.3237 38.8199C70.9008 39.3073 70.2965 39.675 69.77 39.9742C69.1485 40.3248 68.458 40.3847 67.8451 40.6925C67.7502 40.7438 67.7675 40.872 67.8451 40.9234C68.4494 41.3509 69.4075 40.8293 69.9426 40.4873C70.7368 39.9657 71.2719 39.2304 71.9452 38.5805C72.0833 38.4523 71.9279 38.247 71.7553 38.2727Z" fill="#FFFB64"/>
<path opacity="0.6" d="M72.4628 43.2919C72.0398 43.0525 71.427 42.6078 70.9177 42.7532C70.84 42.7788 70.8141 42.8814 70.8659 42.9413C71.1162 43.1893 71.5306 43.3774 71.919 43.5142C71.5565 43.651 71.1335 43.5826 70.7623 43.4714C70.348 43.3517 69.8905 43.2577 69.5107 43.0695C69.4676 43.0439 69.4244 43.1123 69.4676 43.138C70.0114 43.5142 70.4084 43.8904 71.099 44.0016C71.6687 44.0956 72.0744 43.9674 72.5059 43.5997C72.5923 43.5142 72.5664 43.3517 72.4628 43.2919Z" fill="#FFFB64"/>
<path opacity="0.6" d="M70.728 32.1588C69.3815 32.783 67.6034 32.6205 66.7316 34.0313C66.6798 34.1083 66.7747 34.1938 66.8524 34.151C67.9918 33.5782 69.1398 32.9882 70.3569 32.6034C69.9771 33.1335 69.6836 33.7064 69.3556 34.2707C68.8809 35.0916 68.3371 35.7158 67.6379 36.3571C67.4825 36.4939 67.6552 36.6905 67.8192 36.6649C69.6663 36.4169 70.2965 33.7748 70.9352 32.3725C71.0129 32.2272 70.8834 32.0904 70.728 32.1588Z" fill="#FFFB64"/>
<path opacity="0.6" d="M69.2347 27.1056C68.7082 27.4134 68.2938 27.8409 67.7932 28.1744C67.2235 28.5592 66.602 28.7729 65.9546 28.9867C65.9115 29.0038 65.9201 29.0551 65.9633 29.0551C66.6107 29.0893 67.1803 28.8926 67.7328 28.5506C67.9917 28.3881 68.2334 28.2 68.4665 28.0034C68.6132 27.8837 68.7772 27.6613 68.9498 27.5074C68.5528 27.9093 68.3284 28.79 68.0867 29.2261C67.6896 29.9358 67.025 30.5942 66.8523 31.3979C66.8351 31.4834 66.9387 31.5518 67.0077 31.4834C67.5429 30.9533 67.9572 30.1838 68.3025 29.5168C68.6995 28.7729 68.829 27.8409 69.3037 27.1483C69.321 27.1227 69.2692 27.0799 69.2347 27.1056Z" fill="#FFFB64"/>
<path opacity="0.6" d="M65.9639 25.0022C65.0662 25.387 63.9355 25.4896 63.3831 26.3618C63.3658 26.3874 63.4003 26.4216 63.4262 26.4045C64.0736 26.0369 64.79 25.8573 65.4892 25.6264C65.2303 25.9171 64.9368 26.1651 64.626 26.4558C64.2808 26.7808 63.8233 27.1741 63.737 27.6615C63.7197 27.7641 63.806 27.9009 63.9269 27.8496C64.4361 27.6529 64.8332 27.1484 65.1612 26.738C65.541 26.2763 65.9122 25.7889 66.2488 25.293C66.4042 25.0963 66.1452 24.9253 65.9639 25.0022Z" fill="#FFFB64"/>
<path opacity="0.22" d="M39.5328 68.4986C54.6924 68.4986 66.9817 56.302 66.9817 41.2566C66.9817 26.2113 54.6924 14.0146 39.5328 14.0146C24.3733 14.0146 12.084 26.2113 12.084 41.2566C12.084 56.302 24.3733 68.4986 39.5328 68.4986Z" fill="url(#paint1_radial_605_11197)"/>
</g>
<defs>
<radialGradient id="paint0_radial_605_11197" cx="0" cy="0" r="1" gradientUnits="userSpaceOnUse" gradientTransform="translate(40.0849 40.5962) scale(35.4382 33.8413)">
<stop stop-color="white"/>
<stop offset="0.0971" stop-color="#FFFFEE"/>
<stop offset="0.2891" stop-color="#FEFFC1"/>
<stop offset="0.4141" stop-color="#FDFFA1"/>
<stop offset="0.5196" stop-color="#FEE879"/>
<stop offset="0.6413" stop-color="#FFCA45"/>
</radialGradient>
<radialGradient id="paint1_radial_605_11197" cx="0" cy="0" r="1" gradientUnits="userSpaceOnUse" gradientTransform="translate(39.5292 41.2559) scale(27.4399 27.248)">
<stop stop-color="white"/>
<stop offset="0.0971" stop-color="#FFFFEE"/>
<stop offset="0.2891" stop-color="#FEFFC1"/>
<stop offset="0.4141" stop-color="#FDFFA1"/>
<stop offset="0.5196" stop-color="#FEE879"/>
<stop offset="0.6413" stop-color="#FFCA45"/>
</radialGradient>
<clipPath id="clip0_605_11197">
<rect width="81" height="83" fill="white"/>
</clipPath>
</defs>
</svg>
