<svg width="333" height="376" viewBox="0 0 333 376" fill="none" xmlns="http://www.w3.org/2000/svg">
<g opacity="0.4" clip-path="url(#clip0_57_2347)">
<path d="M163.032 157L193.75 176.683L195.814 174.257L171.152 147.489L163.032 157Z" fill="url(#paint0_radial_57_2347)"/>
<path d="M99.3662 22.3301H28.4062V105.503H99.3662V22.3301Z" fill="#270579"/>
<path d="M97.3288 6.06494C108.807 13.4256 102.201 44.2742 82.5753 74.9849C62.9498 105.668 37.7367 124.607 26.2587 117.219C14.7807 109.858 21.3867 79.0099 41.0122 48.2991C50.8387 32.9437 62.0415 20.5381 72.2258 12.9018V19.5733H97.3288V6.06494Z" fill="#270579"/>
<path d="M96.9983 6.61621C108.366 13.9217 101.815 44.4671 82.3824 74.8746C62.9221 105.255 37.9568 123.973 26.5888 116.695C15.2209 109.39 21.7719 78.8444 41.2047 48.4369C50.9211 33.2469 62.0138 20.9516 72.1155 13.3979V19.5732H96.9708V6.61621H96.9983Z" fill="#27067A"/>
<path d="M96.6413 7.14014C107.899 14.363 101.403 44.6326 82.1631 74.7369C62.923 104.841 38.1778 123.367 26.92 116.144C15.6622 108.921 22.1581 78.6515 41.3982 48.5473C51.0321 33.4951 62.0146 21.3377 72.0063 13.8392V19.5733H96.6413V7.14014Z" fill="#27077B"/>
<path d="M81.9774 74.5879C101.042 44.7784 107.458 14.8142 96.308 7.66104C85.158 0.507886 60.6642 18.8745 41.5996 48.684C22.535 78.4935 16.119 108.458 27.269 115.611C38.419 122.764 62.9128 104.397 81.9774 74.5879Z" fill="#27087B"/>
<path d="M95.9527 8.2153C106.99 15.3003 100.632 44.9635 81.7497 74.4612C62.8674 103.987 38.6177 122.154 27.5801 115.069C16.5425 107.984 22.9008 78.3207 41.7831 48.823C60.6654 19.3252 84.9151 1.13033 95.9527 8.2153Z" fill="#27097C"/>
<path d="M81.5835 74.3355C100.271 45.1157 106.558 15.7428 95.6252 8.72931C84.6928 1.71577 60.6812 19.7175 41.9938 48.9372C23.3064 78.157 17.0197 107.53 27.9521 114.543C38.8845 121.557 62.8961 103.555 81.5835 74.3355Z" fill="#270A7D"/>
<path d="M81.3746 74.2014C99.8734 45.2765 106.101 16.2026 95.2834 9.263C84.4662 2.32338 60.7009 20.1459 42.2021 49.0708C23.7033 77.9956 17.4761 107.07 28.2933 114.009C39.1104 120.949 62.8757 103.126 81.3746 74.2014Z" fill="#270B7E"/>
<path d="M81.1661 74.0675C99.4763 45.4375 105.644 16.6626 94.9421 9.79691C84.2401 2.9312 60.7211 20.5746 42.4109 49.2046C24.1007 77.8345 17.933 106.609 28.635 113.475C39.3369 120.341 62.8559 102.697 81.1661 74.0675Z" fill="#270C7E"/>
<path d="M94.6036 10.3381C105.201 17.1474 99.0902 45.6251 80.9787 73.9374C62.8395 102.277 39.5807 119.755 28.9835 112.946C18.3863 106.137 24.4969 77.6591 42.6085 49.3468C60.7201 21.0069 84.0064 3.55632 94.6036 10.3381Z" fill="#270D7F"/>
<path d="M80.7722 73.8151C98.7052 45.7749 104.744 17.5913 94.2592 10.8652C83.7749 4.13911 60.7381 21.4176 42.8051 49.4578C24.8721 77.4979 18.8337 105.682 29.3181 112.408C39.8024 119.134 62.8392 101.855 80.7722 73.8151Z" fill="#270E80"/>
<path d="M93.9158 11.413C104.293 18.0569 98.3198 45.9557 80.5661 73.6891C62.8123 101.423 40.0214 118.542 29.6719 111.871C19.2949 105.227 25.2679 77.3281 43.0217 49.5947C60.7479 21.8613 83.5388 4.76912 93.9158 11.413Z" fill="#270F81"/>
<path d="M93.5577 11.9644C103.825 18.5531 97.9067 46.1211 80.3456 73.5789C62.7845 101.037 40.2414 117.936 29.9745 111.347C19.7351 104.758 25.653 77.1627 43.2141 49.7326C60.7476 22.2748 83.2908 5.37564 93.5577 11.9644Z" fill="#271082"/>
<path d="M93.2277 12.4883C103.385 18.9944 97.5216 46.2867 80.1808 73.4412C62.8124 100.596 40.5169 117.329 30.3601 110.796C20.2033 104.29 26.0662 76.9975 43.4071 49.843C60.7755 22.7161 83.0709 5.98228 93.2277 12.4883Z" fill="#271182"/>
<path d="M92.87 13.0122C102.917 19.4631 97.1364 46.4522 79.9607 73.3035C62.7849 100.155 40.7372 116.723 30.6905 110.272C20.6438 103.821 26.4241 76.8322 43.5999 49.9809C60.7756 23.1297 82.8508 6.58888 92.87 13.0122Z" fill="#271283"/>
<path d="M79.7756 73.1754C96.7656 46.6096 102.486 19.9076 92.5518 13.5346C82.618 7.16163 60.7918 23.5311 43.8018 50.0968C26.8117 76.6626 21.0916 103.365 31.0255 109.738C40.9594 116.111 62.7855 99.7411 79.7756 73.1754Z" fill="#271384"/>
<path d="M92.2089 14.0872C102.035 20.4003 96.3652 46.7828 79.5749 73.0551C62.7845 99.3274 41.2047 115.51 31.3782 109.197C21.5517 102.884 27.2219 76.5011 44.0123 50.2288C60.8027 23.9841 82.3824 7.80168 92.2089 14.0872Z" fill="#271485"/>
<path d="M91.8517 14.6386C101.568 20.8689 95.9805 46.9758 79.3553 72.9449C62.7576 98.9139 41.4255 114.903 31.7091 108.673C21.9927 102.443 27.5803 76.3358 44.2056 50.3667C60.8308 24.3976 82.1353 8.40819 91.8517 14.6386Z" fill="#271585"/>
<path d="M91.5211 15.1623C101.127 21.31 95.5948 47.1136 79.1623 72.807C62.7297 98.5004 41.6454 114.297 32.0666 108.122C22.4603 101.974 27.9929 76.1703 44.4254 50.4769C60.8305 24.8111 81.9148 9.01464 91.5211 15.1623Z" fill="#271686"/>
<path d="M78.9641 72.6548C95.1916 47.2814 100.657 21.779 91.1709 15.6935C81.6851 9.60794 60.8403 25.2438 44.6129 50.6172C28.3854 75.9905 22.9203 101.493 32.4061 107.578C41.8919 113.664 62.7367 98.0281 78.9641 72.6548Z" fill="#271887"/>
<path d="M90.8333 16.2375C100.219 22.2474 94.8244 47.4721 78.7772 72.559C62.73 97.6459 42.1412 113.084 32.7551 107.074C23.369 101.064 28.7639 75.8396 44.8111 50.7527C60.8583 25.6658 81.4472 10.2277 90.8333 16.2375Z" fill="#271988"/>
<path d="M78.5702 72.4024C94.4205 47.6188 99.7563 22.7077 90.4881 16.7618C81.2199 10.8159 60.8573 26.0868 45.0071 50.8704C29.1568 75.6539 23.821 100.565 33.0892 106.511C42.3574 112.457 62.72 97.186 78.5702 72.4024Z" fill="#271A89"/>
<path d="M78.3613 72.2683C94.023 47.7796 99.2993 23.1674 90.1463 17.2954C80.9933 11.4234 60.877 26.5152 45.2154 51.0039C29.5537 75.4926 24.2774 100.105 33.4304 105.977C42.5834 111.849 62.6997 96.757 78.3613 72.2683Z" fill="#271B89"/>
<path d="M78.1763 72.1494C93.6494 47.9556 98.8558 23.6357 89.8052 17.8294C80.7547 12.0231 60.8743 26.9292 45.4012 51.1229C29.9282 75.3167 24.7217 99.6366 33.7723 105.443C42.8229 111.249 62.7032 96.3432 78.1763 72.1494Z" fill="#271C8A"/>
<path d="M77.9674 72.0156C93.2519 48.1167 98.3989 24.0958 89.4635 18.3635C80.5281 12.6311 60.894 27.358 45.6096 51.2569C30.3251 75.1558 25.1781 99.1767 34.1135 104.909C43.0489 110.641 62.6829 95.9145 77.9674 72.0156Z" fill="#271D8B"/>
<path d="M89.1264 18.9116C97.962 24.563 92.8699 48.2991 77.786 71.8973C62.7022 95.4955 43.2969 110.051 34.4614 104.372C25.6258 98.721 30.7179 74.9849 45.8017 51.3867C60.8856 27.7885 80.2908 13.2326 89.1264 18.9116Z" fill="#271E8C"/>
<path d="M88.7685 19.4355C97.4939 25.0318 92.4568 48.4646 77.5657 71.7596C62.647 95.0821 43.517 109.445 34.7915 103.849C26.066 98.2524 31.1031 74.8196 45.9943 51.5247C60.9129 28.2021 80.0705 13.8392 88.7685 19.4355Z" fill="#271F8C"/>
<path d="M77.3651 71.6288C92.0838 48.6146 97.0419 25.4839 88.4394 19.9651C79.8368 14.4462 60.9312 28.629 46.2126 51.6433C31.4939 74.6575 26.5357 97.7881 35.1383 103.307C43.7408 108.826 62.6464 94.643 77.3651 71.6288Z" fill="#27208D"/>
<path d="M88.0808 20.5105C96.5861 25.9689 91.6866 48.7952 77.1533 71.5113C62.62 94.2273 43.9579 108.232 35.4526 102.773C26.9473 97.3149 31.8468 74.4886 46.3801 51.7726C60.9409 29.0565 79.603 15.052 88.0808 20.5105Z" fill="#27218E"/>
<path d="M87.7502 21.0344C96.1453 26.4102 91.3009 48.9608 76.9603 71.3736C62.6196 93.7864 44.2053 107.626 35.8101 102.222C27.4149 96.8464 32.2593 74.2958 46.6 51.883C60.9406 29.4978 79.355 15.6586 87.7502 21.0344Z" fill="#27228F"/>
<path d="M87.3924 21.5857C95.6775 26.9063 90.9157 49.1261 76.7402 71.2632C62.5922 93.4003 44.3981 107.019 36.1405 101.726C27.8554 96.4053 32.6173 74.1854 46.7928 52.0483C60.9407 29.9112 79.1349 16.2651 87.3924 21.5857Z" fill="#272390"/>
<path d="M76.5768 71.1234C90.5411 49.2887 95.2405 27.3407 87.0732 22.101C78.9059 16.8614 60.9647 30.3144 47.0004 52.149C33.0361 73.9837 28.3367 95.9318 36.504 101.171C44.6713 106.411 62.6125 92.9581 76.5768 71.1234Z" fill="#272490"/>
<path d="M76.3684 70.9896C90.1441 49.4499 94.784 27.8008 86.7319 22.6351C78.6799 17.4694 60.9849 30.7432 47.2092 52.283C33.4335 73.8227 28.7936 95.4718 36.8457 100.638C44.8978 105.803 62.5927 92.5294 76.3684 70.9896Z" fill="#272591"/>
<path d="M86.3738 23.1846C94.3286 28.2847 89.7318 49.6223 76.1619 70.8773C62.592 92.1322 45.141 105.199 37.1862 100.099C29.2314 94.9993 33.8281 73.6617 47.3981 52.4067C60.9955 31.1794 78.4465 18.0846 86.3738 23.1846Z" fill="#272692"/>
<path d="M86.0439 23.7085C93.8886 28.7259 89.3744 49.7879 75.9697 70.7395C62.5649 91.6912 45.3616 104.593 37.5445 99.5757C29.6998 94.5583 34.2139 73.4963 47.6187 52.5447C60.9959 31.593 78.1992 18.6912 86.0439 23.7085Z" fill="#272793"/>
<path d="M85.6861 24.2599C93.4207 29.2221 88.9616 49.9808 75.7495 70.6293C62.5374 91.2777 45.5819 104.014 37.8473 99.0519C30.1127 94.0896 34.5718 73.3309 47.7839 52.6825C60.996 32.034 77.979 19.2976 85.6861 24.2599Z" fill="#272893"/>
<path d="M85.356 24.7835C92.9804 29.663 88.5764 50.1185 75.557 70.4912C62.5376 90.8364 45.8298 103.38 38.2053 98.5003C30.5808 93.6208 34.9848 73.1653 48.0042 52.7926C61.0237 32.4474 77.7315 19.9039 85.356 24.7835Z" fill="#272994"/>
<path d="M75.3712 70.3498C88.2039 50.2844 92.5256 30.1169 85.024 25.3043C77.5224 20.4918 61.0382 32.8566 48.2054 52.9219C35.3727 72.9872 31.051 93.1548 38.5526 97.9673C46.0542 102.78 62.5385 90.4151 75.3712 70.3498Z" fill="#272A95"/>
<path d="M75.1628 70.2163C87.8069 50.4458 92.0691 30.5773 84.6827 25.8386C77.2963 21.1 61.0584 33.2856 48.4142 53.0561C35.7701 72.8265 31.5079 92.6951 38.8943 97.4337C46.2807 102.172 62.5186 89.9867 75.1628 70.2163Z" fill="#272A95"/>
<path d="M75.0239 70.1269C87.5123 50.6 91.7105 30.9689 84.4009 26.2795C77.0913 21.5901 61.0419 33.6183 48.5535 53.1451C36.0652 72.672 31.867 92.3031 39.1766 96.9925C46.4862 101.682 62.5356 89.6537 75.0239 70.1269Z" fill="#282A95"/>
<path d="M84.1443 26.7134C91.3559 31.3448 87.1996 50.7527 74.8683 70.0503C62.5371 89.3479 46.6825 101.23 39.4434 96.5983C32.2318 91.9669 36.3881 72.559 48.7194 53.2614C61.0507 33.9638 76.9052 22.082 84.1443 26.7134Z" fill="#292B96"/>
<path d="M83.8691 27.1268C90.9981 31.7031 86.8968 50.8629 74.7032 69.9399C62.5095 89.017 46.8477 100.761 39.7186 96.1847C32.5896 91.6084 36.6908 72.4486 48.8845 53.3715C61.0782 34.2945 76.74 22.5505 83.8691 27.1268Z" fill="#2A2B96"/>
<path d="M83.594 27.5403C90.6404 32.0614 86.5942 51.0006 74.5382 69.8296C62.4821 88.6585 47.013 100.265 39.9665 95.7435C32.92 91.2224 36.9663 72.2831 49.0223 53.4542C61.0783 34.6252 76.5475 23.0191 83.594 27.5403Z" fill="#2B2B97"/>
<path d="M83.3184 27.954C90.2823 32.42 86.2636 51.1111 74.3727 69.7195C62.4818 88.3279 47.2054 99.7962 40.2415 95.3302C33.2776 90.8642 37.2963 72.1731 49.1872 53.5647C61.0781 34.9563 76.3546 23.5156 83.3184 27.954Z" fill="#2C2B97"/>
<path d="M74.2356 69.6214C85.9859 51.2485 89.9387 32.7792 83.0643 28.369C76.19 23.9589 61.0917 35.2779 49.3413 53.6508C37.591 72.0238 33.6382 90.4931 40.5125 94.9033C47.3869 99.3134 62.4852 87.9943 74.2356 69.6214Z" fill="#2D2C98"/>
<path d="M82.7954 28.8085C89.5666 33.1643 85.6855 51.3867 74.0699 69.5265C62.4818 87.6662 47.5631 98.8313 40.7919 94.4755C34.0207 90.1198 37.9017 71.8973 49.5174 53.7576C61.1055 35.6454 75.9966 24.4528 82.7954 28.8085Z" fill="#2E2C98"/>
<path d="M82.5205 29.2219C89.2091 33.5225 85.3556 51.5245 73.9051 69.4161C62.4546 87.3077 47.7562 98.3625 41.04 94.0619C34.3514 89.7613 38.2049 71.7594 49.6554 53.8677C61.1059 35.9761 75.8319 24.9213 82.5205 29.2219Z" fill="#2F2C98"/>
<path d="M82.2457 29.6633C88.8518 33.9087 85.0533 51.6625 73.7404 69.3336C62.4276 87.0047 47.9218 97.8941 41.3157 93.6486C34.7097 89.4031 38.5082 71.6493 49.821 53.9783C61.1339 36.3072 75.6397 25.4178 82.2457 29.6633Z" fill="#302D99"/>
<path d="M81.9701 30.0767C88.4936 34.267 84.7502 51.8002 73.5749 69.2232C62.4272 86.6738 48.0866 97.3977 41.5631 93.2349C35.0396 89.0446 38.7831 71.5114 49.9583 54.0884C61.1335 36.6378 75.4467 25.8863 81.9701 30.0767Z" fill="#312D99"/>
<path d="M81.6951 30.4901C88.136 34.6253 84.4201 51.9105 73.41 69.1129C62.3999 86.3153 48.2795 96.929 41.8386 92.7938C35.3977 88.6586 39.1136 71.3735 50.1237 54.171C61.1338 36.9686 75.2817 26.3549 81.6951 30.4901Z" fill="#322D9A"/>
<path d="M81.4468 30.9036C87.8052 34.9837 84.1443 52.0483 73.2719 69.0026C62.3994 85.9569 48.4716 96.4327 42.1133 92.3527C35.755 88.2726 39.4158 71.208 50.2883 54.2537C61.1332 37.2994 75.0885 26.8511 81.4468 30.9036Z" fill="#332D9A"/>
<path d="M73.1233 68.9078C83.8323 52.1632 87.439 35.3334 81.1791 31.3175C74.9192 27.3015 61.1632 37.6201 50.4543 54.3648C39.7453 71.1094 36.1386 87.9392 42.3985 91.9551C48.6584 95.9711 62.4143 85.6524 73.1233 68.9078Z" fill="#342E9A"/>
<path d="M80.8965 31.7582C87.0622 35.728 83.5114 52.3239 72.9693 68.8096C62.3996 85.3228 48.8572 95.4955 42.664 91.5257C36.4984 87.5559 40.0491 70.9599 50.5913 54.4742C61.161 37.961 74.7309 27.7884 80.8965 31.7582Z" fill="#352E9B"/>
<path d="M80.6208 32.1719C86.7038 36.0866 83.2081 52.4344 72.8036 68.6996C62.3991 84.9647 49.0218 94.9994 42.9387 91.1123C36.8557 87.1977 40.3514 70.8499 50.7559 54.5847C61.1604 38.292 74.5377 28.2849 80.6208 32.1719Z" fill="#362E9B"/>
<path d="M80.3737 32.5854C86.3742 36.4449 82.906 52.5722 72.6667 68.6168C62.4273 84.6614 49.2152 94.5583 43.2147 90.6988C37.2142 86.8393 40.6824 70.712 50.9218 54.6674C61.1887 38.6228 74.3732 28.7535 80.3737 32.5854Z" fill="#372F9C"/>
<path d="M80.0984 33.0265C86.0164 36.8309 82.6032 52.7101 72.5015 68.5341C62.3997 84.3582 49.4078 94.0897 43.4899 90.2853C37.572 86.4809 40.9851 70.6017 51.0869 54.7777C61.1886 38.9537 74.1805 29.2222 80.0984 33.0265Z" fill="#382F9C"/>
<path d="M72.3352 68.4018C82.298 52.8239 85.6527 37.1663 79.828 33.4296C74.0034 29.6929 61.2051 39.292 51.2424 54.8699C41.2796 70.4478 37.9249 86.1054 43.7496 89.8421C49.5742 93.5788 62.3724 83.9797 72.3352 68.4018Z" fill="#392F9D"/>
<path d="M79.5473 33.8533C85.2726 37.5474 81.9695 52.958 72.1706 68.3133C62.3441 83.6687 49.7375 93.1245 44.0123 89.4304C38.287 85.7363 41.59 70.3258 51.389 54.9704C61.2155 39.6426 73.8221 30.1868 79.5473 33.8533Z" fill="#3A2F9D"/>
<path d="M79.2727 34.2945C84.9154 37.9335 81.6674 53.1234 72.006 68.2307C62.3447 83.338 49.9308 92.6559 44.2606 89.0445C38.618 85.4056 41.8659 70.2156 51.5273 55.1083C61.2162 39.9735 73.63 30.6555 79.2727 34.2945Z" fill="#3B309D"/>
<path d="M79.0248 34.708C84.5849 38.2642 81.3919 53.2337 71.8682 68.1204C62.3445 83.0071 50.1233 92.1597 44.5632 88.6034C39.0031 85.0471 42.196 70.0777 51.7197 55.191C61.2435 40.3043 73.4371 31.1241 79.0248 34.708Z" fill="#3C309E"/>
<path d="M71.7089 68.0009C81.0813 53.3461 84.2375 38.6166 78.7585 35.1016C73.2795 31.5867 61.2401 40.6172 51.8677 55.272C42.4953 69.9267 39.3391 84.6562 44.8181 88.1712C50.2971 91.6862 62.3365 82.6556 71.7089 68.0009Z" fill="#3D309E"/>
<path d="M78.4741 35.5352C83.8691 38.9812 80.7587 53.4819 71.5378 67.9C62.3168 82.3181 50.481 91.195 45.086 87.749C39.6911 84.303 42.8015 69.8022 52.0224 55.3841C61.2434 40.9661 73.0792 32.0892 78.4741 35.5352Z" fill="#3E319F"/>
<path d="M71.3846 67.7923C80.4536 53.612 83.5092 39.3603 78.2094 35.9603C72.9096 32.5603 61.2614 41.2995 52.1924 55.4798C43.1234 69.6602 40.0678 83.9119 45.3676 87.3119C50.6674 90.7119 62.3156 81.9727 71.3846 67.7923Z" fill="#3F319F"/>
<path d="M77.9513 36.3896C83.1811 39.7253 80.1533 53.7575 71.2352 67.7069C62.317 81.6563 50.839 90.2575 45.6367 86.9218C40.4069 83.586 43.4347 69.5539 52.3529 55.6045C61.2711 41.6551 72.7215 33.0263 77.9513 36.3896Z" fill="#40319F"/>
<path d="M77.6762 36.8032C82.7959 40.0838 79.8507 53.8954 71.0702 67.5967C62.2896 81.3255 51.0318 89.7613 45.8846 86.4807C40.7374 83.2001 43.7101 69.3886 52.4907 55.6873C61.2712 41.986 72.529 33.5226 77.6762 36.8032Z" fill="#4131A0"/>
<path d="M77.4009 37.2167C82.438 40.4421 79.5479 54.0056 70.905 67.4863C62.2896 80.9671 51.1969 89.2926 46.1598 86.0396C41.1227 82.8141 44.0128 69.2507 52.6557 55.7699C61.2711 42.3167 72.3638 33.9912 77.4009 37.2167Z" fill="#4232A0"/>
<path d="M77.1256 37.6578C82.0801 40.8281 79.2175 54.1711 70.7397 67.4037C62.262 80.6639 51.362 88.824 46.4074 85.6537C41.4529 82.4834 44.3155 69.1405 52.7933 55.9078C61.2986 42.6476 72.171 34.4599 77.1256 37.6578Z" fill="#4332A1"/>
<path d="M76.8506 38.0713C81.7226 41.1865 78.915 54.2813 70.6024 67.2934C62.2623 80.3055 51.5825 88.3277 46.7105 85.2126C41.8386 82.0974 44.6461 69.0026 52.9588 55.9905C61.2989 42.9784 72.0062 34.9561 76.8506 38.0713Z" fill="#4432A1"/>
<path d="M76.6024 38.485C81.3918 41.545 78.6393 54.4193 70.4643 67.1833C62.2893 79.9473 51.7747 87.8593 46.9853 84.7717C42.1959 81.7116 44.9484 68.8374 53.1234 56.0734C61.2984 43.3094 71.813 35.4249 76.6024 38.485Z" fill="#4533A2"/>
<path d="M76.3274 38.9259C81.0342 41.9308 78.3092 54.557 70.2993 67.128C62.262 79.6714 51.94 87.418 47.2607 84.4131C42.5539 81.4082 45.2789 68.782 53.2888 56.211C61.2986 43.64 71.6205 35.8934 76.3274 38.9259Z" fill="#4633A2"/>
<path d="M76.0517 39.3393C80.6484 42.2891 78.006 54.6947 70.1338 67.0176C62.2616 79.3405 52.1323 86.9217 47.5081 83.9719C42.9114 81.0222 45.5538 68.6166 53.426 56.2937C61.3257 43.9708 71.455 36.3896 76.0517 39.3393Z" fill="#4733A2"/>
<path d="M75.7769 39.7532C80.2911 42.6478 77.7037 54.8053 69.9691 66.9077C62.2345 79.01 52.2979 86.4534 47.7838 83.5312C43.2697 80.6365 45.857 68.479 53.5916 56.3767C61.3262 44.3019 71.2628 36.8585 75.7769 39.7532Z" fill="#4833A3"/>
<path d="M75.5016 40.1666C79.9331 43.0061 77.3733 54.943 69.8039 66.7973C62.2069 78.6515 52.4905 85.957 48.0314 83.1175C43.5999 80.278 46.1597 68.3411 53.7292 56.4868C61.2986 44.6326 71.07 37.3271 75.5016 40.1666Z" fill="#4934A3"/>
<path d="M75.2537 40.6077C79.6027 43.3921 77.0979 55.0809 69.666 66.7146C62.2342 78.3483 52.683 85.516 48.334 82.704C43.985 79.9197 46.4898 68.2308 53.9216 56.5971C61.3534 44.9634 70.9047 37.7958 75.2537 40.6077Z" fill="#4A34A4"/>
<path d="M74.9783 41.0212C79.2447 43.7504 76.795 55.2187 69.5008 66.6043C62.2066 77.9899 52.848 85.0197 48.5816 82.2905C44.3152 79.5612 46.7925 68.0929 54.0592 56.7074C61.3533 45.2942 70.7119 38.2919 74.9783 41.0212Z" fill="#4B34A4"/>
<path d="M74.7035 41.4346C78.8873 44.1087 76.4651 55.3289 69.3361 66.494C62.2071 77.659 53.0412 84.5234 48.8573 81.8493C44.6735 79.1752 47.0957 67.9551 54.2248 56.79C61.3538 45.625 70.5472 38.7605 74.7035 41.4346Z" fill="#4C35A4"/>
<path d="M74.4279 41.8482C78.5016 44.4672 76.162 55.4668 69.1706 66.3838C62.1792 77.3007 53.206 84.0549 49.1047 81.4359C45.031 78.8169 47.3706 67.8173 54.362 56.9004C61.381 45.9834 70.3542 39.2293 74.4279 41.8482Z" fill="#4D35A5"/>
<path d="M74.1804 42.2892C78.1716 44.853 75.887 55.6045 69.0332 66.3009C62.1795 76.9973 53.3989 83.5861 49.4078 81.0222C45.4166 78.4584 47.7012 67.7069 54.555 57.0105C61.4087 46.3141 70.1618 39.7254 74.1804 42.2892Z" fill="#4E35A5"/>
<path d="M73.9046 42.7029C77.8132 45.2116 75.5561 55.7426 68.8675 66.1909C62.1789 76.6667 53.591 83.09 49.6549 80.5814C45.7463 78.0727 48.0034 67.5417 54.692 57.0934C61.3806 46.6451 69.996 40.1942 73.9046 42.7029Z" fill="#4F35A6"/>
<path d="M73.6298 43.1163C77.4558 45.5699 75.2538 55.8527 68.7028 66.0805C62.1518 76.3082 53.7566 82.6213 49.9306 80.1677C46.1046 77.7141 48.3066 67.4313 54.8576 57.2036C61.4086 46.9758 69.8038 40.6628 73.6298 43.1163Z" fill="#5036A6"/>
<path d="M73.3547 43.5575C77.0982 45.9559 74.9512 56.0182 68.5378 65.9978C62.1244 75.9775 53.9219 82.1527 50.1785 79.7543C46.4351 77.3559 48.582 67.2935 54.9954 57.3139C61.4088 47.3343 69.6113 41.1591 73.3547 43.5575Z" fill="#5236A7"/>
<path d="M73.0792 43.9709C76.74 46.3142 74.6206 56.1284 68.3724 65.8874C62.1242 75.6465 54.1143 81.6839 50.4535 79.3406C46.7926 76.9973 48.9121 67.1831 55.1603 57.4241C61.4085 47.665 69.4459 41.6276 73.0792 43.9709Z" fill="#5336A7"/>
<path d="M72.8314 44.3844C76.4097 46.6725 74.3453 56.2662 68.2347 65.7772C62.1517 75.3157 54.307 81.1877 50.7287 78.8995C47.1504 76.6114 49.2148 67.0177 55.3254 57.5068C61.436 47.9682 69.2531 42.0962 72.8314 44.3844Z" fill="#5437A7"/>
<path d="M72.5565 44.7979C76.0247 47.0309 74.0428 56.3764 68.0974 65.6668C62.1519 74.9573 54.4999 80.6914 51.0318 78.4584C47.5636 76.2254 49.5454 66.8798 55.4908 57.5894C61.4363 48.299 69.0883 42.5648 72.5565 44.7979Z" fill="#5537A8"/>
<path d="M72.2811 45.2392C75.6667 47.417 73.7124 56.542 67.9321 65.5843C62.1243 74.6542 54.6925 80.2505 51.2794 78.0726C47.8938 75.8948 49.8481 66.7698 55.6284 57.7275C61.4087 48.6852 68.8955 43.0613 72.2811 45.2392Z" fill="#5637A8"/>
<path d="M72.0058 45.6526C75.3089 47.7753 73.4096 56.6522 67.767 65.5015C62.1243 74.3509 54.8576 79.7818 51.5546 77.659C48.2516 75.5363 50.1508 66.6594 55.7935 57.8101C61.4637 48.9607 68.7028 43.5298 72.0058 45.6526Z" fill="#5737A9"/>
<path d="M71.7581 46.0662C74.9785 48.1338 73.1343 56.7901 67.6293 65.3913C62.1243 73.9925 55.0503 79.2856 51.8298 77.2456C48.6094 75.178 50.4536 66.5216 55.9586 57.9204C61.4637 49.3192 68.5376 43.9986 71.7581 46.0662Z" fill="#5838A9"/>
<path d="M71.483 46.4797C74.6209 48.4921 72.8042 56.9004 67.4644 65.281C62.1245 73.6617 55.2432 78.8169 52.1053 76.8044C48.9674 74.792 50.7841 66.3837 56.124 58.0031C61.4639 49.65 68.3452 44.4948 71.483 46.4797Z" fill="#5938A9"/>
<path d="M71.2079 46.9209C74.2632 48.8782 72.5016 57.0659 67.2994 65.1985C62.0971 73.331 55.4085 78.3484 52.3532 76.3911C49.2979 74.4337 51.0595 66.246 56.2618 58.1135C61.4915 49.9809 68.1526 44.9635 71.2079 46.9209Z" fill="#5A38AA"/>
<path d="M70.9321 47.3342C73.8773 49.2364 72.1983 57.176 67.1337 65.088C62.069 73.0001 55.5731 77.852 52.6279 75.9774C49.6827 74.0752 51.3617 66.1356 56.4264 58.2236C61.491 50.3116 67.9869 45.4321 70.9321 47.3342Z" fill="#5B39AA"/>
<path d="M70.6568 47.7477C73.5194 49.5948 71.8679 57.3138 66.9684 64.9777C62.0689 72.6416 55.7657 77.3833 52.8755 75.5363C50.0129 73.6892 51.6644 65.9702 56.5639 58.3063C61.4909 50.6424 67.7942 45.9007 70.6568 47.7477Z" fill="#5C39AB"/>
<path d="M70.4093 48.1612C73.1894 49.9531 71.5929 57.424 66.8311 64.8674C62.0692 72.3108 55.9586 76.887 53.1786 75.0951C50.3985 73.3032 51.995 65.8323 56.7568 58.3889C61.4912 50.9731 67.6293 46.3968 70.4093 48.1612Z" fill="#5D39AB"/>
<path d="M70.1343 48.6023C72.8317 50.3391 71.2903 57.5895 66.6661 64.7848C62.0418 71.98 56.1239 76.446 53.4264 74.7092C50.729 72.9725 52.2704 65.7221 56.8946 58.5268C61.5189 51.304 67.4368 46.8655 70.1343 48.6023Z" fill="#5E39AC"/>
<path d="M69.8587 49.0158C72.4736 50.6974 70.9597 57.6997 66.5006 64.6744C62.0416 71.6491 56.3163 75.9497 53.7014 74.2681C51.0865 72.5864 52.6004 65.5842 57.0595 58.6095C61.5186 51.6348 67.2438 47.3341 69.8587 49.0158Z" fill="#5F3AAC"/>
<path d="M69.5836 49.4295C72.1159 51.0561 70.6571 57.8378 66.3356 64.5644C62.0142 71.3185 56.4816 75.4537 53.9493 73.8548C51.417 72.2283 52.8758 65.4465 57.1973 58.72C61.5187 51.9658 67.0788 47.8306 69.5836 49.4295Z" fill="#603AAC"/>
<path d="M69.3357 49.8704C71.7579 51.4418 70.3816 57.9754 66.1978 64.4815C62.0415 70.9875 56.6741 75.0124 54.2518 73.4411C51.8296 71.8697 53.2059 65.3361 57.3897 58.83C61.546 52.2964 66.8859 48.299 69.3357 49.8704Z" fill="#613AAD"/>
<path d="M69.0608 50.2841C71.4004 51.8003 70.0517 58.1134 66.033 64.3713C62.0143 70.6568 56.8671 74.5164 54.5 73.0001C52.1603 71.4839 53.5091 65.1708 57.5277 58.9129C61.5464 52.6549 66.6936 48.7678 69.0608 50.2841Z" fill="#623BAD"/>
<path d="M68.785 50.6976C71.0421 52.1587 69.7484 58.2236 65.8674 64.261C62.0138 70.2984 57.0318 74.0201 54.7747 72.5866C52.5176 71.1255 53.8113 65.0605 57.6924 59.0231C61.5459 52.9857 66.528 49.264 68.785 50.6976Z" fill="#633BAE"/>
<path d="M65.7291 64.1641C69.4437 58.356 70.6907 52.5159 68.5145 51.1198C66.3382 49.7236 61.5628 53.3002 57.8483 59.1082C54.1338 64.9163 52.8867 70.7564 55.063 72.1526C57.2392 73.5487 62.0146 69.9721 65.7291 64.1641Z" fill="#643BAE"/>
<path d="M68.2344 51.5521C70.3263 52.9029 69.1152 58.4992 65.5369 64.0679C61.9586 69.6367 57.3895 73.0827 55.2976 71.7594C53.2056 70.4086 54.4167 64.8123 57.995 59.2435C61.5733 53.6472 66.17 50.2012 68.2344 51.5521Z" fill="#653BAE"/>
<path d="M67.987 51.9655C69.9963 53.2612 68.8403 58.637 65.4271 63.9852C62.014 69.3334 57.61 72.6415 55.6006 71.3458C53.5913 70.0501 54.7474 64.6744 58.1605 59.3262C61.5736 53.978 65.9777 50.6698 67.987 51.9655Z" fill="#663CAF"/>
<path d="M67.7115 52.3791C69.6107 53.6197 68.5097 58.7473 65.2617 63.875C61.9862 69.0026 57.7749 72.1454 55.8756 70.9048C53.9489 69.6643 55.0774 64.5366 58.3254 59.409C61.6009 54.3089 65.7847 51.1661 67.7115 52.3791Z" fill="#673CAF"/>
<path d="M67.4368 52.7928C69.2535 53.9506 68.2075 58.8853 65.0972 63.7648C61.9868 68.6444 57.9681 71.6493 56.124 70.4914C54.3073 69.3336 55.3533 64.3989 58.4636 59.5194C61.574 54.6398 65.6202 51.6349 67.4368 52.7928Z" fill="#683CB0"/>
<path d="M67.161 53.2338C68.8951 54.3365 67.9042 59.023 64.9315 63.682C61.9588 68.341 58.1328 71.2081 56.3987 70.0778C54.6646 68.9751 55.6555 64.2885 58.6282 59.6295C61.601 54.9705 65.427 52.1035 67.161 53.2338Z" fill="#693DB0"/>
<path d="M66.8862 53.6475C68.5377 54.6951 67.5743 59.1611 64.7668 63.5719C61.9317 67.9828 58.2983 70.7121 56.6468 69.6645C54.9953 68.6169 55.9587 64.1509 58.7663 59.74C61.6289 55.3016 65.2347 52.5999 66.8862 53.6475Z" fill="#6A3DB1"/>
<path d="M66.6387 54.0608C68.2077 55.0533 67.2993 59.2712 64.6294 63.4615C61.9595 67.6518 58.5188 70.2157 56.9499 69.2232C55.3809 68.2308 56.2893 64.0129 58.9592 59.8225C61.6291 55.6322 65.0698 53.0684 66.6387 54.0608Z" fill="#6B3DB1"/>
<path d="M66.3632 54.502C67.8495 55.4393 66.9962 59.4367 64.4639 63.3789C61.9316 67.3211 58.6836 69.7747 57.1973 68.8098C55.7109 67.8725 56.5642 63.8751 59.0965 59.9329C61.6288 55.9907 64.8768 53.5371 66.3632 54.502Z" fill="#6C3DB1"/>
<path d="M66.0881 54.9154C67.4919 55.7976 66.6661 59.5468 64.299 63.2685C61.9318 66.9902 58.8765 69.2783 57.4727 68.3962C56.0689 67.514 56.8947 63.7647 59.2619 60.0431C61.6566 56.3214 64.7119 54.0057 66.0881 54.9154Z" fill="#6D3EB2"/>
<path d="M65.8125 55.3289C67.1062 56.1559 66.363 59.6846 64.1335 63.1582C61.9039 66.6593 59.0413 68.782 57.7201 67.955C56.4264 67.128 57.1696 63.5993 59.3991 60.1257C61.6562 56.6521 64.5188 54.5018 65.8125 55.3289Z" fill="#6E3EB2"/>
<path d="M65.5651 55.7426C66.7762 56.5145 66.088 59.7951 63.9961 63.0481C61.9042 66.3012 59.2342 68.3136 58.0231 67.5417C56.812 66.7698 57.5002 63.4892 59.5921 60.2362C61.6565 56.9832 64.3264 54.9707 65.5651 55.7426Z" fill="#6F3EB3"/>
<path d="M65.2897 56.1835C66.4182 56.9003 65.7576 59.9603 63.8309 62.9652C61.9041 65.9977 59.4268 67.8448 58.2708 67.128C57.1422 66.4112 57.8029 63.3512 59.7296 60.3463C61.6564 57.3138 64.1612 55.4392 65.2897 56.1835Z" fill="#703FB3"/>
<path d="M65.0144 56.5971C66.0604 57.2587 65.4548 60.0706 63.6657 62.855C61.8765 65.6393 59.592 67.3761 58.546 66.6869C57.5 66.0253 58.1056 63.2134 59.8947 60.429C61.6839 57.6446 63.9685 55.9354 65.0144 56.5971Z" fill="#713FB3"/>
<path d="M64.7388 57.0107C65.7022 57.6172 65.1517 60.2086 63.5002 62.7448C61.8762 65.3086 59.7568 66.88 58.7934 66.2735C57.83 65.667 58.3805 63.0756 60.032 60.5394C61.6835 57.9756 63.7754 56.4042 64.7388 57.0107Z" fill="#723FB4"/>
<path d="M64.4643 57.4242C65.3451 57.9755 64.8221 60.3188 63.3358 62.6345C61.8494 64.9502 59.9502 66.3838 59.0693 65.8324C58.1885 65.281 58.7115 62.9378 60.1979 60.622C61.6842 58.3063 63.611 56.8728 64.4643 57.4242Z" fill="#733FB4"/>
<path d="M64.216 57.8653C64.9867 58.3616 64.5463 60.4843 63.1976 62.5519C61.8488 64.6471 60.1423 65.9428 59.344 65.419C58.5733 64.9227 59.0137 62.8 60.3625 60.7324C61.7112 58.6648 63.4178 57.3691 64.216 57.8653Z" fill="#7440B5"/>
<path d="M63.9413 58.2788C64.6294 58.7198 64.244 60.5945 63.0329 62.4415C61.8493 64.2886 60.3079 65.4464 59.6198 65.0054C58.9317 64.5643 59.317 62.6896 60.5006 60.8426C61.7117 58.968 63.2531 57.8377 63.9413 58.2788Z" fill="#7540B5"/>
<path d="M63.6657 58.6922C64.2713 59.0782 63.9134 60.7322 62.895 62.3588C61.8491 63.9853 60.5278 64.9777 59.8948 64.5918C59.2892 64.2058 59.647 62.5517 60.6655 60.9252C61.7114 59.3263 63.0602 58.3063 63.6657 58.6922Z" fill="#7640B6"/>
<path d="M63.3909 59.1334C63.9139 59.4642 63.6111 60.8702 62.7303 62.2762C61.8495 63.6821 60.6935 64.5368 60.1705 64.2059C59.6475 63.8751 59.9503 62.4691 60.8311 61.0632C61.7394 59.6572 62.8679 58.775 63.3909 59.1334Z" fill="#7741B6"/>
<path d="M63.143 59.5468C63.5834 59.8225 63.3357 61.0079 62.5925 62.1658C61.8493 63.3236 60.8859 64.0404 60.4731 63.7647C60.0327 63.489 60.2804 62.3312 61.0236 61.1457C61.7392 59.9879 62.7026 59.2711 63.143 59.5468Z" fill="#7841B6"/>
<path d="M62.8676 59.9603C63.2255 60.1808 63.0053 61.1181 62.4272 62.0554C61.8217 62.9928 61.0785 63.5717 60.7207 63.3236C60.3629 63.103 60.5831 62.1657 61.1611 61.2284C61.7391 60.3187 62.5098 59.7397 62.8676 59.9603Z" fill="#7941B7"/>
<path d="M62.592 60.3739C62.8397 60.5393 62.7021 61.2561 62.2617 61.9453C61.8213 62.6345 61.2433 63.0756 60.968 62.9102C60.7203 62.7448 60.8579 62.028 61.2983 61.3388C61.7663 60.6496 62.3168 60.2085 62.592 60.3739Z" fill="#7A41B7"/>
<path d="M62.3173 60.8149C62.4824 60.9251 62.3998 61.3938 62.0971 61.8625C61.7943 62.3311 61.4089 62.6068 61.2438 62.4965C61.0786 62.3863 61.1612 61.9176 61.464 61.4489C61.7668 60.9803 62.1521 60.7046 62.3173 60.8149Z" fill="#7B42B8"/>
<path d="M62.0419 61.2286C62.1245 61.2838 62.0695 61.5043 61.9318 61.7524C61.7942 61.973 61.6015 62.1384 61.4914 62.0832C61.4089 62.0281 61.4639 61.78 61.6015 61.5594C61.7667 61.3113 61.9594 61.1735 62.0419 61.2286Z" fill="#7C42B8"/>
<path d="M32.4798 105.31L30.8833 102.608C30.8833 102.608 32.0669 89.8166 57.2249 60.3188C82.383 30.8211 95.9804 26.2999 95.9804 26.2999L98.1549 28.147L32.4798 105.31Z" fill="url(#paint1_radial_57_2347)"/>
<path d="M99.366 22.3299C43.9027 54.6672 28.7087 104.703 28.406 105.475C7.23907 68.1479 23.8093 29.6079 23.8093 29.6079C23.8093 29.6079 59.2342 7.22267 99.366 22.3299Z" fill="url(#paint2_radial_57_2347)"/>
<path d="M185.685 121.189L139.36 175.498C139.36 175.498 73.8226 161.273 39.8565 120.444C39.774 120.362 39.7189 120.307 39.7189 120.307C36.3333 116.199 33.4707 112.036 31.1035 107.846C31.4338 107.074 50.4262 59.4916 102.064 24.7008C106.578 26.3825 111.119 28.5603 115.688 31.2896C117.643 32.4474 119.542 33.6604 121.414 34.9561L121.441 34.9837C163.445 63.7095 185.685 121.189 185.685 121.189Z" fill="url(#paint3_radial_57_2347)"/>
<path opacity="0.5" d="M60.6929 61.5042C60.6929 61.5042 113.046 102.856 159.178 145.476L60.6929 61.5042Z" fill="url(#paint4_linear_57_2347)"/>
<path d="M187.557 119.618H137.516V177.097H187.557V119.618Z" fill="#270579"/>
<path d="M190.75 115.896C198.76 120.941 194.962 141.424 182.273 161.659C169.583 181.894 152.766 194.189 144.756 189.144C136.746 184.099 140.544 163.616 153.233 143.381C165.923 123.146 182.74 110.823 190.75 115.896Z" fill="#270579"/>
<path d="M182.115 161.573C194.694 141.546 198.456 121.257 190.517 116.255C182.579 111.252 165.945 123.431 153.366 143.457C140.786 163.483 137.024 183.773 144.963 188.775C152.902 193.778 169.535 181.599 182.115 161.573Z" fill="#27067A"/>
<path d="M181.974 161.485C194.433 141.652 198.159 121.559 190.297 116.605C182.436 111.651 165.963 123.713 153.505 143.546C141.047 163.378 137.321 183.472 145.182 188.426C153.044 193.379 169.516 181.317 181.974 161.485Z" fill="#27077B"/>
<path d="M190.09 116.943C197.879 121.851 194.191 141.755 181.86 161.383C169.501 181.012 153.206 192.976 145.416 188.069C137.627 183.162 141.315 163.258 153.646 143.629C165.978 123.973 182.3 112.036 190.09 116.943Z" fill="#27087B"/>
<path d="M189.869 117.302C197.576 122.154 193.916 141.865 181.722 161.3C169.501 180.736 153.371 192.562 145.664 187.71C137.957 182.859 141.618 163.147 153.811 143.712C166.005 124.277 182.162 112.45 189.869 117.302Z" fill="#27097C"/>
<path d="M181.555 161.22C193.649 141.967 197.268 122.462 189.638 117.654C182.008 112.846 166.018 124.556 153.925 143.809C141.831 163.062 138.212 182.567 145.842 187.375C153.472 192.182 169.461 180.472 181.555 161.22Z" fill="#270A7D"/>
<path d="M181.416 161.133C193.388 142.073 196.971 122.764 189.418 118.005C181.865 113.246 166.037 124.839 154.065 143.898C142.092 162.958 138.509 182.267 146.062 187.026C153.615 191.785 169.443 180.192 181.416 161.133Z" fill="#270B7E"/>
<path d="M189.181 118.349C196.668 123.063 193.117 142.168 181.254 161.025C169.418 179.881 153.756 191.349 146.269 186.635C138.782 181.921 142.333 162.816 154.196 143.96C166.06 125.103 181.722 113.635 189.181 118.349Z" fill="#270C7E"/>
<path d="M181.136 160.955C192.857 142.295 196.362 123.389 188.963 118.727C181.565 114.066 166.065 125.413 154.344 144.073C142.622 162.733 139.118 181.64 146.516 186.301C153.914 190.963 169.414 179.615 181.136 160.955Z" fill="#270D7F"/>
<path d="M188.741 119.066C196.062 123.67 192.594 142.389 180.978 160.859C169.363 179.33 154.031 190.578 146.71 185.946C139.388 181.342 142.856 162.624 154.472 144.153C166.087 125.682 181.419 114.435 188.741 119.066Z" fill="#270E80"/>
<path d="M188.52 119.397C195.76 123.973 192.319 142.471 180.841 160.749C169.363 179.027 154.169 190.137 146.93 185.588C139.691 181.012 143.131 162.513 154.609 144.236C166.115 125.958 181.281 114.848 188.52 119.397Z" fill="#270F81"/>
<path d="M188.301 119.755C195.457 124.277 192.072 142.582 180.704 160.666C169.336 178.751 154.335 189.751 147.15 185.229C139.994 180.708 143.379 162.403 154.747 144.319C166.115 126.234 181.144 115.234 188.301 119.755Z" fill="#271082"/>
<path d="M188.08 120.114C195.181 124.58 191.796 142.692 180.565 160.584C169.335 178.475 154.472 189.337 147.398 184.871C140.296 180.405 143.682 162.293 154.912 144.401C166.142 126.51 181.006 115.648 188.08 120.114Z" fill="#271182"/>
<path d="M187.86 120.472C194.879 124.883 191.548 142.802 180.428 160.501C169.308 178.199 154.61 188.951 147.618 184.54C140.599 180.129 143.93 162.21 155.05 144.511C166.17 126.813 180.841 116.061 187.86 120.472Z" fill="#271283"/>
<path d="M187.64 120.831C194.576 125.214 191.301 142.94 180.291 160.418C169.281 177.896 154.775 188.565 147.838 184.182C140.902 179.798 144.178 162.072 155.188 144.594C166.198 127.116 180.703 116.447 187.64 120.831Z" fill="#271384"/>
<path d="M187.419 121.161C194.273 125.489 191.025 143.023 180.153 160.308C169.28 177.62 154.912 188.124 148.058 183.823C141.204 179.495 144.452 161.962 155.325 144.677C166.197 127.364 180.565 116.861 187.419 121.161Z" fill="#271485"/>
<path d="M180.018 160.251C190.768 143.137 193.986 125.8 187.205 121.528C180.424 117.255 166.212 127.665 155.462 144.778C144.712 161.892 141.494 179.229 148.275 183.502C155.056 187.774 169.268 177.365 180.018 160.251Z" fill="#271585"/>
<path d="M186.979 121.878C193.695 126.096 190.502 143.243 179.877 160.143C169.253 177.069 155.215 187.352 148.499 183.107C141.782 178.889 144.975 161.742 155.6 144.842C166.225 127.943 180.263 117.66 186.979 121.878Z" fill="#271686"/>
<path d="M186.759 122.236C193.393 126.399 190.255 143.354 179.74 160.06C169.226 176.766 155.353 186.939 148.719 182.776C142.086 178.613 145.224 161.659 155.738 144.952C166.253 128.246 180.126 118.046 186.759 122.236Z" fill="#271887"/>
<path d="M186.538 122.595C193.089 126.73 189.979 143.464 179.602 159.977C169.225 176.49 155.49 186.553 148.939 182.417C142.388 178.282 145.498 161.548 155.875 145.035C166.252 128.494 179.987 118.46 186.538 122.595Z" fill="#271988"/>
<path d="M179.459 159.899C189.715 143.571 192.783 127.029 186.311 122.951C179.839 118.873 166.278 128.803 156.022 145.131C145.766 161.458 142.698 178 149.17 182.078C155.642 186.156 169.203 176.226 179.459 159.899Z" fill="#271A89"/>
<path d="M186.098 123.284C192.484 127.309 189.457 143.657 179.327 159.784C169.198 175.911 155.793 185.726 149.407 181.701C143.021 177.676 146.049 161.328 156.179 145.201C166.308 129.073 179.713 119.259 186.098 123.284Z" fill="#271B89"/>
<path d="M185.878 123.642C192.209 127.612 189.209 143.767 179.19 159.701C169.17 175.636 155.931 185.34 149.627 181.342C143.297 177.372 146.297 161.218 156.316 145.283C166.308 129.349 179.547 119.645 185.878 123.642Z" fill="#271C8A"/>
<path d="M185.658 124.001C191.906 127.943 188.934 143.877 179.052 159.619C169.17 175.36 156.096 184.954 149.848 181.011C143.6 177.069 146.572 161.135 156.454 145.394C166.335 129.625 179.41 120.059 185.658 124.001Z" fill="#271D8B"/>
<path d="M185.437 124.332C191.603 128.219 188.685 143.96 178.914 159.508C169.142 175.057 156.233 184.513 150.067 180.625C143.902 176.738 146.819 160.997 156.591 145.449C166.362 129.928 179.272 120.472 185.437 124.332Z" fill="#271E8C"/>
<path d="M185.218 124.69C191.301 128.522 188.411 144.07 178.777 159.453C169.143 174.809 156.371 184.154 150.288 180.322C144.205 176.49 147.095 160.942 156.729 145.559C166.363 130.204 179.135 120.858 185.218 124.69Z" fill="#271F8C"/>
<path d="M184.997 125.048C190.998 128.825 188.163 144.208 178.639 159.371C169.115 174.533 156.536 183.741 150.508 179.964C144.508 176.187 147.343 160.804 156.867 145.642C166.39 130.479 178.969 121.272 184.997 125.048Z" fill="#27208D"/>
<path d="M184.777 125.407C190.723 129.156 187.888 144.319 178.502 159.288C169.088 174.257 156.674 183.355 150.729 179.633C144.783 175.884 147.618 160.721 157.004 145.752C166.39 130.755 178.832 121.658 184.777 125.407Z" fill="#27218E"/>
<path d="M184.557 125.765C190.419 129.459 187.639 144.429 178.363 159.205C169.087 173.982 156.811 182.969 150.948 179.275C145.085 175.581 147.865 160.611 157.141 145.835C166.417 131.058 178.694 122.071 184.557 125.765Z" fill="#27228F"/>
<path d="M184.336 126.096C190.117 129.735 187.364 144.511 178.226 159.095C169.06 173.678 156.949 182.528 151.196 178.889C145.416 175.25 148.168 160.473 157.307 145.89C166.445 131.334 178.556 122.457 184.336 126.096Z" fill="#272390"/>
<path d="M184.089 126.454C189.787 130.038 187.089 144.622 178.061 159.012C169.033 173.403 157.087 182.142 151.389 178.558C145.692 174.974 148.389 160.39 157.417 146C166.446 131.61 178.391 122.87 184.089 126.454Z" fill="#272490"/>
<path d="M183.869 126.813C189.484 130.369 186.814 144.732 177.924 158.93C169.005 173.127 157.225 181.756 151.61 178.2C145.994 174.643 148.664 160.28 157.555 146.083C166.473 131.885 178.254 123.257 183.869 126.813Z" fill="#272591"/>
<path d="M183.649 127.171C189.209 130.672 186.566 144.842 177.786 158.847C169.005 172.851 157.362 181.342 151.83 177.869C146.27 174.368 148.912 160.198 157.693 146.193C166.501 132.188 178.116 123.67 183.649 127.171Z" fill="#272692"/>
<path d="M183.429 127.529C188.906 130.975 186.319 144.952 177.648 158.764C168.978 172.576 157.527 180.956 152.05 177.51C146.572 174.064 149.16 160.087 157.83 146.276C166.501 132.464 177.979 124.083 183.429 127.529Z" fill="#272793"/>
<path d="M183.208 127.86C188.603 131.251 186.043 145.035 177.51 158.654C168.977 172.272 157.665 180.543 152.27 177.124C146.875 173.734 149.435 159.95 157.967 146.331C166.528 132.74 177.813 124.469 183.208 127.86Z" fill="#272893"/>
<path d="M182.988 128.219C188.301 131.555 185.796 145.146 177.373 158.571C168.95 171.969 157.803 180.129 152.49 176.794C147.178 173.458 149.683 159.867 158.105 146.441C166.528 133.016 177.676 124.883 182.988 128.219Z" fill="#272994"/>
<path d="M182.768 128.577C187.997 131.885 185.52 145.256 177.235 158.488C168.922 171.693 157.967 179.743 152.71 176.435C147.48 173.127 149.958 159.757 158.243 146.524C166.528 133.291 177.538 125.269 182.768 128.577Z" fill="#272A95"/>
<path d="M182.548 128.936C187.723 132.189 185.273 145.366 177.07 158.406C168.895 171.418 158.078 179.357 152.903 176.104C147.728 172.851 150.178 159.674 158.381 146.634C166.583 133.595 177.401 125.683 182.548 128.936Z" fill="#272A95"/>
<path d="M182.382 129.211C187.474 132.437 185.052 145.449 176.987 158.323C168.895 171.197 158.215 179.027 153.123 175.801C148.031 172.576 150.453 159.564 158.518 146.689C166.583 133.815 177.29 125.986 182.382 129.211Z" fill="#282A95"/>
<path d="M182.218 129.487C187.255 132.657 184.86 145.531 176.878 158.268C168.895 170.977 158.326 178.723 153.289 175.553C148.252 172.383 150.646 159.508 158.629 146.772C166.611 134.036 177.153 126.316 182.218 129.487Z" fill="#292B96"/>
<path d="M182.025 129.763C187.007 132.905 184.64 145.614 176.74 158.185C168.84 170.756 158.408 178.393 153.426 175.25C148.444 172.107 150.811 159.398 158.711 146.827C166.611 134.256 177.043 126.62 182.025 129.763Z" fill="#2A2B96"/>
<path d="M181.859 130.038C186.786 133.126 184.447 145.697 176.657 158.102C168.868 170.508 158.546 178.062 153.646 174.947C148.719 171.859 151.059 159.288 158.848 146.882C166.638 134.477 176.932 126.923 181.859 130.038Z" fill="#2B2B97"/>
<path d="M181.694 130.314C186.539 133.374 184.254 145.78 176.547 158.047C168.84 170.315 158.683 177.758 153.811 174.698C148.967 171.638 151.252 159.233 158.959 146.965C166.638 134.697 176.822 127.254 181.694 130.314Z" fill="#2C2B97"/>
<path d="M181.502 130.59C186.291 133.622 184.034 145.862 176.41 157.965C168.813 170.067 158.766 177.428 153.949 174.395C149.16 171.363 151.417 159.122 159.041 147.02C166.666 134.918 176.713 127.557 181.502 130.59Z" fill="#2D2C98"/>
<path d="M181.337 130.865C186.071 133.843 183.814 145.945 176.327 157.909C168.813 169.846 158.904 177.124 154.169 174.147C149.435 171.17 151.665 159.067 159.179 147.103C166.666 135.138 176.602 127.888 181.337 130.865Z" fill="#2E2C98"/>
<path d="M181.171 131.141C185.851 134.091 183.621 146.028 176.217 157.827C168.812 169.626 159.014 176.794 154.334 173.844C149.655 170.894 151.884 158.957 159.289 147.158C166.693 135.386 176.492 128.191 181.171 131.141Z" fill="#2F2C98"/>
<path d="M180.979 131.417C185.603 134.311 183.401 146.11 176.107 157.772C168.785 169.405 159.124 176.49 154.5 173.596C149.875 170.701 152.077 158.902 159.372 147.241C166.693 135.607 176.382 128.522 180.979 131.417Z" fill="#302D99"/>
<path d="M180.814 131.692C185.355 134.559 183.208 146.193 175.997 157.689C168.785 169.185 159.234 176.16 154.692 173.292C150.151 170.425 152.298 158.792 159.509 147.296C166.721 135.828 176.244 128.825 180.814 131.692Z" fill="#312D99"/>
<path d="M180.648 131.968C185.135 134.808 183.015 146.276 175.886 157.606C168.757 168.937 159.344 175.829 154.857 173.017C150.37 170.177 152.49 158.709 159.619 147.379C166.72 136.048 176.134 129.156 180.648 131.968Z" fill="#322D9A"/>
<path d="M180.456 132.244C184.887 135.028 182.795 146.358 175.776 157.551C168.758 168.744 159.454 175.525 155.022 172.741C150.591 169.957 152.683 158.626 159.702 147.434C166.748 136.269 176.024 129.459 180.456 132.244Z" fill="#332D9A"/>
<path d="M180.29 132.519C184.667 135.276 182.603 146.441 175.666 157.468C168.73 168.496 159.591 175.195 155.215 172.465C150.838 169.709 152.903 158.544 159.839 147.516C166.748 136.489 175.914 129.79 180.29 132.519Z" fill="#342E9A"/>
<path d="M180.125 132.823C184.446 135.552 182.382 146.552 175.556 157.441C168.73 168.33 159.701 174.919 155.38 172.217C151.058 169.488 153.123 158.489 159.949 147.599C166.775 136.71 175.804 130.093 180.125 132.823Z" fill="#352E9B"/>
<path d="M179.933 133.098C184.172 135.772 182.162 146.634 175.446 157.358C168.702 168.082 159.812 174.616 155.545 171.914C151.306 169.24 153.316 158.378 160.032 147.654C166.776 136.93 175.694 130.397 179.933 133.098Z" fill="#362E9B"/>
<path d="M179.767 133.374C183.951 136.02 181.969 146.717 175.336 157.303C168.702 167.862 159.922 174.312 155.738 171.666C151.554 169.019 153.536 158.323 160.169 147.737C166.803 137.151 175.583 130.727 179.767 133.374Z" fill="#372F9C"/>
<path d="M179.602 133.65C183.731 136.241 181.777 146.8 175.226 157.22C168.675 167.641 160.032 173.982 155.903 171.363C151.774 168.744 153.729 158.213 160.28 147.792C166.803 137.371 175.473 131.031 179.602 133.65Z" fill="#382F9C"/>
<path d="M179.409 133.925C183.483 136.489 181.556 146.882 175.115 157.138C168.675 167.393 160.142 173.651 156.068 171.087C151.994 168.523 153.921 158.13 160.362 147.875C166.83 137.592 175.336 131.362 179.409 133.925Z" fill="#392F9D"/>
<path d="M179.244 134.201C183.263 136.737 181.364 146.965 175.005 157.083C168.647 167.2 160.252 173.348 156.261 170.811C152.242 168.275 154.141 158.048 160.499 147.93C166.83 137.813 175.225 131.665 179.244 134.201Z" fill="#3A2F9D"/>
<path d="M179.079 134.477C183.015 136.958 181.144 147.048 174.895 157C168.647 166.952 160.362 173.017 156.426 170.536C152.49 168.055 154.362 157.965 160.61 148.013C166.858 138.033 175.116 131.996 179.079 134.477Z" fill="#3B309D"/>
<path d="M178.887 134.752C182.768 137.206 180.924 147.13 174.786 156.945C168.62 166.759 160.472 172.714 156.591 170.26C152.71 167.806 154.555 157.882 160.693 148.068C166.858 138.254 175.006 132.299 178.887 134.752Z" fill="#3C309E"/>
<path d="M178.722 135.028C182.548 137.426 180.731 147.213 174.676 156.862C168.62 166.511 160.61 172.383 156.784 169.984C152.958 167.586 154.775 157.799 160.831 148.15C166.886 138.474 174.896 132.63 178.722 135.028Z" fill="#3D309E"/>
<path d="M178.556 135.304C182.327 137.675 180.538 147.296 174.565 156.807C168.592 166.318 160.72 172.079 156.949 169.709C153.178 167.338 154.967 157.716 160.94 148.205C166.886 138.722 174.785 132.933 178.556 135.304Z" fill="#3E319F"/>
<path d="M178.364 135.579C182.08 137.923 180.318 147.379 174.455 156.724C168.593 166.07 160.831 171.749 157.115 169.405C153.399 167.062 155.16 157.606 161.023 148.261C166.914 138.943 174.676 133.236 178.364 135.579Z" fill="#3F319F"/>
<path d="M178.198 135.855C181.832 138.143 180.125 147.461 174.345 156.641C168.564 165.821 160.94 171.418 157.307 169.129C153.673 166.841 155.38 157.523 161.16 148.343C166.913 139.163 174.565 133.567 178.198 135.855Z" fill="#40319F"/>
<path d="M178.033 136.131C181.612 138.391 179.905 147.544 174.235 156.586C168.565 165.629 161.05 171.115 157.472 168.854C153.894 166.593 155.6 157.441 161.27 148.399C166.941 139.384 174.428 133.87 178.033 136.131Z" fill="#4131A0"/>
<path d="M177.841 136.406C181.364 138.612 179.685 147.627 174.125 156.503C168.537 165.38 161.161 170.784 157.637 168.578C154.114 166.373 155.793 157.358 161.353 148.481C166.913 139.604 174.318 134.201 177.841 136.406Z" fill="#4232A0"/>
<path d="M177.676 136.682C181.144 138.86 179.492 147.709 174.015 156.448C168.537 165.187 161.271 170.481 157.83 168.303C154.362 166.125 156.013 157.275 161.491 148.536C166.968 139.825 174.208 134.504 177.676 136.682Z" fill="#4332A1"/>
<path d="M177.511 136.958C180.924 139.108 179.3 147.792 173.905 156.366C168.51 164.939 161.381 170.15 157.995 168.027C154.582 165.877 156.206 157.193 161.601 148.619C166.968 140.046 174.097 134.835 177.511 136.958Z" fill="#4432A1"/>
<path d="M177.318 137.233C180.649 139.329 179.08 147.875 173.795 156.31C168.51 164.746 161.519 169.874 158.161 167.751C154.83 165.656 156.399 157.11 161.684 148.674C166.996 140.266 173.988 135.138 177.318 137.233Z" fill="#4533A2"/>
<path d="M177.153 137.537C180.428 139.604 178.887 147.985 173.684 156.255C168.482 164.526 161.628 169.571 158.353 167.503C155.077 165.436 156.619 157.055 161.821 148.785C166.996 140.487 173.877 135.469 177.153 137.537Z" fill="#4633A2"/>
<path d="M176.988 137.812C180.208 139.852 178.667 148.068 173.574 156.173C168.482 164.278 161.739 169.24 158.518 167.2C155.298 165.16 156.839 156.945 161.931 148.84C167.023 140.707 173.767 135.772 176.988 137.812Z" fill="#4733A2"/>
<path d="M176.795 138.088C179.96 140.073 178.446 148.15 173.464 156.117C168.455 164.085 161.848 168.937 158.683 166.952C155.518 164.967 157.032 156.889 162.014 148.922C167.023 140.928 173.657 136.103 176.795 138.088Z" fill="#4833A3"/>
<path d="M176.63 138.364C179.712 140.321 178.254 148.233 173.354 156.035C168.455 163.837 161.959 168.606 158.848 166.649C155.765 164.691 157.224 156.779 162.124 148.978C167.051 141.148 173.519 136.407 176.63 138.364Z" fill="#4934A3"/>
<path d="M176.464 138.639C179.492 140.542 178.061 148.316 173.244 155.98C168.427 163.644 162.069 168.303 159.041 166.373C156.013 164.471 157.444 156.696 162.261 149.033C167.051 141.369 173.409 136.71 176.464 138.639Z" fill="#4A34A4"/>
<path d="M176.272 138.915C179.245 140.79 177.841 148.399 173.134 155.897C168.427 163.396 162.179 167.972 159.206 166.097C156.234 164.223 157.637 156.614 162.344 149.115C167.079 141.589 173.299 137.04 176.272 138.915Z" fill="#4B34A4"/>
<path d="M176.107 139.191C179.025 141.038 177.648 148.481 173.024 155.842C168.4 163.203 162.289 167.669 159.372 165.822C156.454 163.974 157.83 156.531 162.454 149.17C167.079 141.837 173.189 137.344 176.107 139.191Z" fill="#4C35A4"/>
<path d="M175.942 139.467C178.805 141.259 177.456 148.564 172.914 155.759C168.4 162.955 162.4 167.338 159.565 165.546C156.702 163.754 158.051 156.448 162.592 149.253C167.106 142.058 173.079 137.675 175.942 139.467Z" fill="#4D35A5"/>
<path d="M175.749 139.742C178.529 141.507 177.208 148.647 172.804 155.676C168.372 162.734 162.537 167.007 159.729 165.243C156.949 163.478 158.27 156.338 162.674 149.308C167.106 142.278 172.969 137.978 175.749 139.742Z" fill="#4E35A5"/>
<path d="M175.584 140.018C178.309 141.727 177.015 148.729 172.694 155.621C168.372 162.513 162.647 166.704 159.894 164.994C157.169 163.285 158.463 156.283 162.785 149.391C167.134 142.499 172.859 138.309 175.584 140.018Z" fill="#4F35A6"/>
<path d="M175.418 140.293C178.088 141.975 176.822 148.812 172.583 155.539C168.344 162.265 162.757 166.373 160.087 164.691C157.417 163.009 158.683 156.173 162.922 149.446C167.133 142.719 172.749 138.612 175.418 140.293Z" fill="#5036A6"/>
<path d="M175.226 140.569C177.84 142.223 176.602 148.895 172.473 155.483C168.344 162.072 162.867 166.07 160.252 164.443C157.637 162.789 158.876 156.118 163.004 149.529C167.161 142.94 172.611 138.943 175.226 140.569Z" fill="#5236A7"/>
<path d="M175.061 140.845C177.62 142.444 176.409 148.977 172.363 155.401C168.317 161.824 162.977 165.739 160.417 164.14C157.857 162.541 159.068 156.007 163.115 149.584C167.161 143.161 172.501 139.246 175.061 140.845Z" fill="#5336A7"/>
<path d="M174.895 141.121C177.373 142.692 176.216 149.06 172.253 155.346C168.317 161.631 163.087 165.436 160.61 163.864C158.132 162.293 159.288 155.925 163.252 149.639C167.188 143.381 172.39 139.549 174.895 141.121Z" fill="#5437A7"/>
<path d="M174.703 141.396C177.125 142.94 175.969 149.143 172.143 155.263C168.29 161.383 163.197 165.105 160.775 163.588C158.353 162.045 159.509 155.842 163.335 149.722C167.189 143.602 172.281 139.88 174.703 141.396Z" fill="#5537A8"/>
<path d="M174.538 141.672C176.905 143.161 175.777 149.226 172.033 155.18C168.29 161.163 163.308 164.801 160.94 163.285C158.573 161.797 159.702 155.732 163.445 149.777C167.216 143.822 172.171 140.183 174.538 141.672Z" fill="#5637A8"/>
<path d="M174.373 141.975C176.685 143.436 175.584 149.336 171.923 155.153C168.262 160.97 163.445 164.526 161.133 163.065C158.821 161.604 159.922 155.704 163.583 149.887C167.216 144.043 172.061 140.514 174.373 141.975Z" fill="#5737A9"/>
<path d="M174.18 142.251C176.437 143.657 175.364 149.419 171.813 155.07C168.262 160.749 163.556 164.195 161.298 162.761C159.041 161.355 160.115 155.594 163.666 149.942C167.244 144.263 171.951 140.817 174.18 142.251Z" fill="#5838A9"/>
<path d="M174.015 142.527C176.189 143.905 175.171 149.501 171.703 155.015C168.234 160.528 163.665 163.892 161.463 162.513C159.289 161.135 160.307 155.539 163.775 150.025C167.243 144.484 171.84 141.148 174.015 142.527Z" fill="#5938A9"/>
<path d="M173.85 142.802C175.969 144.153 174.978 149.584 171.593 154.932C168.235 160.28 163.776 163.561 161.656 162.21C159.537 160.859 160.528 155.428 163.913 150.08C167.271 144.704 171.703 141.451 173.85 142.802Z" fill="#5A38AA"/>
<path d="M173.657 143.078C175.721 144.374 174.73 149.667 171.482 154.877C168.207 160.087 163.885 163.258 161.821 161.962C159.756 160.666 160.747 155.373 163.995 150.163C167.271 144.953 171.592 141.782 173.657 143.078Z" fill="#5B39AA"/>
<path d="M173.492 143.354C175.501 144.622 174.538 149.749 171.373 154.794C168.207 159.839 163.996 162.927 161.987 161.659C159.977 160.391 160.941 155.263 164.106 150.218C167.299 145.173 171.483 142.085 173.492 143.354Z" fill="#5C39AB"/>
<path d="M173.326 143.629C175.281 144.842 174.345 149.832 171.262 154.712C168.179 159.619 164.105 162.596 162.179 161.383C160.224 160.17 161.16 155.18 164.243 150.301C167.298 145.394 171.372 142.389 173.326 143.629Z" fill="#5D39AB"/>
<path d="M173.133 143.905C175.005 145.09 174.124 149.915 171.152 154.656C168.179 159.398 164.215 162.293 162.344 161.107C160.472 159.922 161.353 155.098 164.325 150.356C167.326 145.614 171.262 142.719 173.133 143.905Z" fill="#5E39AC"/>
<path d="M172.969 144.181C174.786 145.338 173.932 149.997 171.042 154.574C168.152 159.178 164.326 161.962 162.509 160.804C160.693 159.646 161.546 154.987 164.436 150.411C167.326 145.835 171.152 143.023 172.969 144.181Z" fill="#5F3AAC"/>
<path d="M172.804 144.456C174.565 145.559 173.739 150.08 170.932 154.518C168.152 158.957 164.463 161.659 162.702 160.556C160.94 159.453 161.766 154.96 164.574 150.494C167.354 146.055 171.042 143.353 172.804 144.456Z" fill="#603AAC"/>
<path d="M172.611 144.732C174.317 145.807 173.492 150.135 170.822 154.436C168.124 158.737 164.574 161.328 162.867 160.253C161.16 159.178 161.986 154.849 164.656 150.549C167.354 146.276 170.932 143.657 172.611 144.732Z" fill="#613AAD"/>
<path d="M172.446 145.008C174.097 146.028 173.299 150.218 170.712 154.381C168.124 158.516 164.684 161.025 163.032 160.005C161.381 158.985 162.179 154.794 164.766 150.631C167.381 146.496 170.822 143.988 172.446 145.008Z" fill="#623BAD"/>
<path d="M172.281 145.283C173.849 146.276 173.106 150.301 170.601 154.298C168.097 158.268 164.794 160.694 163.225 159.701C161.656 158.709 162.399 154.684 164.904 150.687C167.381 146.717 170.684 144.291 172.281 145.283Z" fill="#633BAE"/>
<path d="M172.088 145.559C173.602 146.524 172.886 150.383 170.492 154.215C168.097 158.047 164.904 160.363 163.39 159.426C161.876 158.461 162.592 154.601 164.987 150.769C167.409 146.937 170.574 144.622 172.088 145.559Z" fill="#643BAE"/>
<path d="M171.923 145.835C173.381 146.744 172.693 150.466 170.381 154.16C168.069 157.827 165.014 160.06 163.555 159.15C162.096 158.24 162.784 154.519 165.096 150.824C167.408 147.158 170.464 144.925 171.923 145.835Z" fill="#653BAE"/>
<path d="M171.757 146.111C173.161 146.993 172.5 150.549 170.271 154.078C168.069 157.606 165.124 159.757 163.747 158.875C162.344 157.992 163.004 154.436 165.234 150.907C167.436 147.379 170.353 145.256 171.757 146.111Z" fill="#663CAF"/>
<path d="M171.565 146.414C172.914 147.268 172.281 150.659 170.161 154.05C168.042 157.413 165.234 159.481 163.913 158.626C162.564 157.772 163.197 154.381 165.317 150.99C167.436 147.599 170.244 145.559 171.565 146.414Z" fill="#673CAF"/>
<path d="M171.4 146.689C172.666 147.489 172.061 150.742 170.051 153.967C168.042 157.193 165.372 159.15 164.078 158.351C162.812 157.551 163.418 154.298 165.427 151.073C167.464 147.82 170.134 145.862 171.4 146.689Z" fill="#683CB0"/>
<path d="M171.235 146.965C172.446 147.737 171.868 150.825 169.941 153.885C168.014 156.945 165.482 158.819 164.271 158.047C163.06 157.276 163.638 154.188 165.564 151.128C167.464 148.04 170.024 146.193 171.235 146.965Z" fill="#693DB0"/>
<path d="M171.042 147.241C172.198 147.957 171.647 150.907 169.831 153.829C168.014 156.752 165.592 158.516 164.436 157.772C163.28 157.055 163.83 154.105 165.647 151.183C167.491 148.288 169.913 146.496 171.042 147.241Z" fill="#6A3DB1"/>
<path d="M170.877 147.516C171.978 148.206 171.455 150.99 169.721 153.747C167.987 156.504 165.702 158.185 164.601 157.496C163.5 156.807 164.023 154.022 165.757 151.266C167.491 148.509 169.776 146.827 170.877 147.516Z" fill="#6B3DB1"/>
<path d="M170.712 147.792C171.758 148.454 171.262 151.073 169.611 153.692C167.987 156.283 165.812 157.882 164.766 157.22C163.72 156.559 164.216 153.94 165.867 151.321C167.519 148.729 169.666 147.13 170.712 147.792Z" fill="#6C3DB1"/>
<path d="M170.519 148.068C171.482 148.674 171.042 151.155 169.5 153.609C167.959 156.062 165.922 157.551 164.959 156.944C163.995 156.338 164.436 153.857 165.977 151.403C167.518 148.95 169.555 147.461 170.519 148.068Z" fill="#6D3EB2"/>
<path d="M170.354 148.343C171.262 148.922 170.822 151.238 169.39 153.554C167.959 155.842 166.032 157.248 165.124 156.669C164.216 156.09 164.656 153.774 166.087 151.459C167.546 149.17 169.445 147.764 170.354 148.343Z" fill="#6E3EB2"/>
<path d="M170.189 148.619C171.042 149.143 170.629 151.321 169.281 153.471C167.932 155.621 166.143 156.917 165.29 156.393C164.436 155.869 164.849 153.691 166.198 151.541C167.547 149.391 169.336 148.095 170.189 148.619Z" fill="#6F3EB3"/>
<path d="M169.996 148.895C170.795 149.391 170.409 151.403 169.171 153.388C167.932 155.373 166.253 156.586 165.482 156.09C164.684 155.594 165.069 153.581 166.308 151.596C167.574 149.611 169.226 148.398 169.996 148.895Z" fill="#703FB3"/>
<path d="M169.831 149.17C170.547 149.639 170.216 151.486 169.06 153.333C167.904 155.18 166.39 156.283 165.647 155.842C164.931 155.373 165.262 153.526 166.418 151.679C167.574 149.832 169.115 148.702 169.831 149.17Z" fill="#713FB3"/>
<path d="M169.666 149.446C170.326 149.86 170.024 151.569 168.95 153.25C167.904 154.932 166.5 155.952 165.812 155.539C165.152 155.125 165.454 153.416 166.528 151.734C167.601 150.053 169.005 149.033 169.666 149.446Z" fill="#723FB4"/>
<path d="M169.473 149.722C170.079 150.108 169.804 151.652 168.84 153.195C167.877 154.739 166.611 155.649 166.005 155.263C165.4 154.877 165.675 153.333 166.638 151.789C167.602 150.273 168.868 149.336 169.473 149.722Z" fill="#733FB4"/>
<path d="M169.308 149.997C169.858 150.328 169.583 151.734 168.73 153.113C167.877 154.491 166.72 155.318 166.17 154.987C165.619 154.656 165.895 153.25 166.748 151.872C167.629 150.494 168.757 149.667 169.308 149.997Z" fill="#7440B5"/>
<path d="M169.143 150.273C169.638 150.576 169.39 151.817 168.62 153.058C167.849 154.271 166.831 155.015 166.335 154.712C165.84 154.408 166.087 153.168 166.858 151.927C167.629 150.714 168.647 149.97 169.143 150.273Z" fill="#7540B5"/>
<path d="M168.95 150.549C169.363 150.824 169.17 151.9 168.51 152.975C167.849 154.05 166.941 154.712 166.528 154.436C166.115 154.16 166.308 153.085 166.968 152.01C167.656 150.935 168.537 150.301 168.95 150.549Z" fill="#7640B6"/>
<path d="M168.785 150.825C169.143 151.045 168.978 151.982 168.4 152.892C167.822 153.802 167.051 154.381 166.693 154.133C166.335 153.912 166.5 152.975 167.079 152.065C167.657 151.155 168.427 150.604 168.785 150.825Z" fill="#7741B6"/>
<path d="M168.62 151.128C168.923 151.321 168.785 152.093 168.29 152.864C167.822 153.636 167.161 154.105 166.858 153.912C166.556 153.719 166.693 152.947 167.189 152.175C167.684 151.403 168.317 150.935 168.62 151.128Z" fill="#7841B6"/>
<path d="M168.427 151.404C168.675 151.569 168.565 152.175 168.179 152.782C167.794 153.388 167.298 153.774 167.051 153.609C166.803 153.444 166.913 152.837 167.298 152.231C167.684 151.624 168.207 151.238 168.427 151.404Z" fill="#7941B7"/>
<path d="M168.262 151.679C168.455 151.789 168.345 152.258 168.069 152.727C167.794 153.195 167.409 153.471 167.216 153.361C167.023 153.25 167.134 152.782 167.409 152.313C167.712 151.844 168.097 151.569 168.262 151.679Z" fill="#7A41B7"/>
<path d="M168.097 151.955C168.207 152.037 168.152 152.341 167.959 152.644C167.767 152.947 167.519 153.14 167.381 153.057C167.271 152.975 167.326 152.672 167.519 152.368C167.712 152.065 167.959 151.872 168.097 151.955Z" fill="#7B42B8"/>
<path d="M167.904 152.23C167.959 152.258 167.932 152.423 167.849 152.589C167.767 152.754 167.629 152.837 167.574 152.809C167.519 152.782 167.547 152.616 167.629 152.451C167.739 152.286 167.849 152.175 167.904 152.23Z" fill="#7C42B8"/>
<path d="M178.887 141.534C179.823 142.334 175.969 148.371 170.299 155.015C164.629 161.659 159.289 166.4 158.353 165.601C157.417 164.801 161.271 158.764 166.941 152.12C172.611 145.476 177.978 140.735 178.887 141.534Z" fill="url(#paint5_radial_57_2347)"/>
<path d="M176.492 144.346C177.235 144.98 177.015 151.927 172.639 157.027C168.29 162.127 161.463 163.451 160.72 162.817C159.977 162.182 162.895 157.523 167.244 152.423C171.62 147.296 175.749 143.684 176.492 144.346Z" fill="url(#paint6_linear_57_2347)"/>
<path d="M116.431 65.6669C130.194 77.466 132.644 98.9139 120.891 112.698C109.11 126.482 87.585 127.419 73.8224 115.62C60.0598 103.821 58.4358 83.0899 70.1891 69.2783C81.9424 55.4943 102.641 53.8678 116.431 65.6669Z" fill="url(#paint7_radial_57_2347)"/>
<path opacity="0.5" d="M60.1978 62.0831C60.1978 62.0831 128.323 121.74 159.013 145.669C159.013 145.669 85.7136 82.1802 60.6932 61.5042L60.1978 62.0831Z" fill="url(#paint8_linear_57_2347)"/>
<path d="M93.2554 121.933C111.376 121.933 126.065 107.221 126.065 89.0722C126.065 70.9236 111.376 56.2112 93.2554 56.2112C75.1349 56.2112 60.4453 70.9236 60.4453 89.0722C60.4453 107.221 75.1349 121.933 93.2554 121.933Z" fill="url(#paint9_radial_57_2347)"/>
<path opacity="0.5" d="M72.9419 114.187C59.1793 102.388 57.6378 81.1327 69.3911 67.3487C74.6209 61.2286 82.4931 57.6172 89.8423 56.4042C81.7775 57.2588 73.9878 61.0632 68.2901 67.7346C56.5093 81.5186 58.1333 102.277 71.9234 114.076C79.5754 120.638 89.4019 123.036 98.6229 121.492C90.0075 122.374 80.0434 120.279 72.9419 114.187Z" fill="url(#paint10_linear_57_2347)"/>
<path d="M93.2555 115.345C107.743 115.345 119.487 103.582 119.487 89.0722C119.487 74.5624 107.743 62.7999 93.2555 62.7999C78.7682 62.7999 67.0239 74.5624 67.0239 89.0722C67.0239 103.582 78.7682 115.345 93.2555 115.345Z" fill="url(#paint11_radial_57_2347)"/>
<path d="M110.982 70.6291C121.689 79.7817 122.955 95.9089 113.789 106.633C104.651 117.357 88.5488 118.625 77.8415 109.445C67.1342 100.292 67.2718 85.3504 76.4102 74.6264C85.5761 63.9301 100.275 61.4765 110.982 70.6291Z" fill="url(#paint12_linear_57_2347)"/>
<path d="M117.423 106.302C118.111 106.881 118.193 107.929 117.615 108.618C117.037 109.307 115.991 109.39 115.303 108.811C114.615 108.232 114.533 107.184 115.111 106.495C115.716 105.806 116.735 105.723 117.423 106.302Z" fill="url(#paint13_radial_57_2347)"/>
<path d="M117.092 106.33C117.67 106.826 117.753 107.708 117.257 108.315C116.762 108.894 115.881 108.976 115.276 108.48C114.698 107.984 114.615 107.102 115.11 106.495C115.633 105.889 116.514 105.834 117.092 106.33Z" fill="url(#paint14_linear_57_2347)"/>
<path d="M73.1073 68.3687C73.7954 68.9476 73.878 69.9952 73.3 70.6844C72.722 71.3736 71.676 71.4563 70.9879 70.8774C70.2998 70.2984 70.2172 69.2509 70.7952 68.5617C71.4008 67.8725 72.4192 67.7897 73.1073 68.3687Z" fill="url(#paint15_radial_57_2347)"/>
<path d="M72.7769 68.3963C73.3549 68.8925 73.4375 69.7747 72.942 70.3812C72.4466 70.9601 71.5658 71.0428 70.9602 70.5466C70.3822 70.0503 70.2996 69.1682 70.795 68.5617C71.318 67.9827 72.1988 67.9 72.7769 68.3963Z" fill="url(#paint16_linear_57_2347)"/>
<path d="M78.557 112.56C79.2452 113.139 79.3277 114.187 78.7497 114.876C78.1717 115.565 77.1257 115.648 76.4376 115.069C75.7495 114.49 75.6669 113.442 76.2449 112.753C76.8505 112.036 77.8964 111.954 78.557 112.56Z" fill="url(#paint17_radial_57_2347)"/>
<path d="M78.2266 112.588C78.8046 113.084 78.8872 113.966 78.3917 114.572C77.8963 115.151 77.0155 115.234 76.4099 114.738C75.8319 114.242 75.7493 113.359 76.2448 112.753C76.7677 112.146 77.6485 112.064 78.2266 112.588Z" fill="url(#paint18_linear_57_2347)"/>
<path d="M93.558 58.5545C94.2461 59.1334 94.3287 60.181 93.7507 60.8702C93.1726 61.5594 92.1267 61.6421 91.4386 61.0632C90.7504 60.4842 90.6679 59.4366 91.2459 58.7474C91.8514 58.0582 92.8699 57.9755 93.558 58.5545Z" fill="url(#paint19_radial_57_2347)"/>
<path d="M93.2275 58.582C93.8056 59.0782 93.8882 59.9604 93.3927 60.5669C92.8972 61.1458 92.0164 61.2286 91.4109 60.7323C90.8329 60.2361 90.7503 59.3539 91.2457 58.7474C91.7687 58.1409 92.6495 58.0858 93.2275 58.582Z" fill="url(#paint20_linear_57_2347)"/>
<path d="M65.2348 91.7462C65.9229 92.3252 66.0055 93.3728 65.4274 94.062C64.8494 94.7511 63.8035 94.8339 63.1153 94.2549C62.4272 93.676 62.3446 92.6284 62.9226 91.9392C63.5007 91.25 64.5466 91.1673 65.2348 91.7462Z" fill="url(#paint21_radial_57_2347)"/>
<path d="M64.9043 91.7738C65.4823 92.27 65.5649 93.1522 65.0695 93.7587C64.574 94.3652 63.6932 94.4203 63.0876 93.9241C62.5096 93.4279 62.427 92.5457 62.9225 91.9392C63.4179 91.3327 64.3263 91.2776 64.9043 91.7738Z" fill="url(#paint22_linear_57_2347)"/>
<path d="M123.011 83.7516C123.699 84.3305 123.781 85.3781 123.203 86.0673C122.625 86.7565 121.579 86.8392 120.891 86.2603C120.203 85.6814 120.12 84.6338 120.699 83.9446C121.304 83.2554 122.323 83.1727 123.011 83.7516Z" fill="url(#paint23_radial_57_2347)"/>
<path d="M122.681 83.7792C123.259 84.2754 123.341 85.1576 122.846 85.7641C122.35 86.343 121.469 86.4257 120.864 85.9295C120.258 85.4333 120.203 84.5511 120.699 83.9446C121.222 83.3657 122.102 83.283 122.681 83.7792Z" fill="url(#paint24_linear_57_2347)"/>
<path d="M94.6864 116.944C95.3746 117.522 95.4571 118.57 94.8791 119.259C94.3011 119.948 93.2551 120.031 92.567 119.452C91.8789 118.873 91.7963 117.826 92.3743 117.136C92.9799 116.447 93.9983 116.365 94.6864 116.944Z" fill="url(#paint25_radial_57_2347)"/>
<path d="M94.356 116.971C94.934 117.467 95.0166 118.349 94.5211 118.956C94.0257 119.535 93.1449 119.618 92.5393 119.121C91.9613 118.625 91.8787 117.743 92.3742 117.137C92.8971 116.558 93.7779 116.475 94.356 116.971Z" fill="url(#paint26_linear_57_2347)"/>
<path d="M115.496 67.5968C116.184 68.1757 116.266 69.2233 115.688 69.9125C115.11 70.6017 114.064 70.6844 113.376 70.1054C112.688 69.5265 112.605 68.4789 113.183 67.7897C113.789 67.073 114.807 66.9903 115.496 67.5968Z" fill="url(#paint27_radial_57_2347)"/>
<path d="M115.165 67.5967C115.743 68.0929 115.826 68.9751 115.33 69.5816C114.835 70.1605 113.954 70.2432 113.348 69.747C112.77 69.2508 112.688 68.3686 113.183 67.7621C113.706 67.1832 114.587 67.1005 115.165 67.5967Z" fill="url(#paint28_linear_57_2347)"/>
<path d="M143.654 126.096C145.856 127.998 146.131 131.334 144.232 133.539C142.333 135.745 139.002 136.02 136.8 134.118C134.598 132.216 134.323 128.88 136.222 126.675C138.121 124.469 141.424 124.221 143.654 126.096Z" fill="url(#paint29_radial_57_2347)"/>
<path d="M143.048 125.572C145.25 127.474 145.526 130.81 143.626 133.015C141.727 135.221 138.397 135.497 136.195 133.594C133.993 131.692 133.717 128.356 135.617 126.151C137.488 123.946 140.819 123.697 143.048 125.572Z" fill="url(#paint30_radial_57_2347)"/>
<path d="M142.443 125.986C144.369 127.64 144.59 130.534 142.938 132.464C141.287 134.394 138.396 134.614 136.47 132.96C134.543 131.306 134.323 128.412 135.974 126.482C137.626 124.58 140.516 124.331 142.443 125.986Z" fill="url(#paint31_linear_57_2347)"/>
<path opacity="0.2" d="M185.685 121.189L139.36 175.498C139.36 175.498 73.8226 161.273 39.8564 120.445C41.8658 122.733 68.4827 152.368 102.862 155.594C138.644 158.929 166.362 122.512 160.692 95.1095C155.325 69.1956 133.387 45.1839 121.469 34.9286C163.445 63.7096 185.685 121.189 185.685 121.189Z" fill="url(#paint32_linear_57_2347)"/>
<path opacity="0.5" d="M80.4009 152.727L80.5385 150.135C80.5385 150.135 121.606 165.243 140.351 171.308L139.91 172.217C139.883 172.217 105.972 170.122 80.4009 152.727Z" fill="url(#paint33_linear_57_2347)"/>
<path d="M139.883 172.217C139.883 172.217 151.554 195.65 167.023 208.883L164.628 214.755C164.628 214.755 99.6412 206.374 80.3735 152.754L80.5112 150.163C80.5112 150.163 86.319 153.113 94.6316 156.862C94.6316 156.862 94.6591 156.862 94.6591 156.889C107.761 162.706 127.001 170.563 139.883 172.217Z" fill="url(#paint34_radial_57_2347)"/>
<path opacity="0.2" d="M139.883 172.217C139.883 172.217 151.554 195.65 167.023 208.883L164.628 214.755C164.628 214.755 99.6412 206.374 80.3735 152.754L80.5112 150.163C80.6488 150.576 86.6493 170.425 115.909 190.247C145.581 210.344 143.461 183.961 139.773 177.786C136.085 171.611 117.835 171.197 94.6591 156.862C107.761 162.706 127.001 170.563 139.883 172.217Z" fill="url(#paint35_linear_57_2347)"/>
<path d="M164.628 214.727L165.674 213.376C165.674 213.376 102.614 202.156 80.5385 150.135L80.4009 152.727C80.4009 152.727 93.3653 203.286 164.628 214.727Z" fill="url(#paint36_radial_57_2347)"/>
<path opacity="0.5" d="M154.004 66.439L151.471 66.9903C151.471 66.9903 172.776 105.255 181.666 122.871L182.52 122.292C182.492 122.264 175.143 89.0172 154.004 66.439Z" fill="url(#paint37_linear_57_2347)"/>
<path d="M182.492 122.264C182.492 122.264 207.43 130.149 222.872 143.409L228.294 140.128C228.294 140.128 209.88 77.1353 154.004 66.439L151.471 66.9903C151.471 66.9903 155.27 72.2558 160.279 79.9197L160.307 79.9473C168.124 91.9394 178.886 109.776 182.492 122.264Z" fill="url(#paint38_radial_57_2347)"/>
<path opacity="0.2" d="M182.492 122.264C182.492 122.264 207.43 130.149 222.872 143.409L228.294 140.128C228.294 140.128 209.88 77.1353 154.004 66.439L151.471 66.9903C151.912 67.0455 169.28 69.8023 193.392 95.6886C217.834 121.906 194.603 124.029 187.942 121.327C181.281 118.625 178.005 100.651 160.279 79.9473C168.124 91.9394 178.886 109.776 182.492 122.264Z" fill="url(#paint39_linear_57_2347)"/>
<path d="M228.294 140.128L227.111 141.369C227.111 141.369 206.219 80.7468 151.444 66.9903L153.976 66.439C154.004 66.439 205.889 71.4012 228.294 140.128Z" fill="url(#paint40_radial_57_2347)"/>
<path opacity="0.5" d="M18.0015 55.3014C18.0015 55.3014 30.8557 31.2896 51.8299 19.0494C51.8299 19.0494 26.1489 29.6631 18.0015 55.3014Z" fill="url(#paint41_linear_57_2347)"/>
<path d="M18.0015 55.3014C18.0015 55.3014 28.6812 30.3523 51.8299 19.0494C51.8299 19.0494 31.9017 23.3776 23.8093 29.608C23.8093 29.608 19.2126 41.986 18.0015 55.3014Z" fill="url(#paint42_radial_57_2347)"/>
<path d="M75.6669 104.648C79.135 107.129 84.9429 85.709 92.4572 78.0175C99.9441 70.3261 106.44 72.2007 106.468 69.885C106.495 67.5417 89.2093 62.6346 78.5295 75.1229C67.8497 87.6112 73.7126 103.27 75.6669 104.648Z" fill="url(#paint43_linear_57_2347)"/>
<path opacity="0.2" d="M28.4062 105.475C28.4062 105.475 48.6923 41.0488 99.3662 22.3301C99.3662 22.3301 47.7014 50.9457 28.4062 105.475Z" fill="url(#paint44_linear_57_2347)"/>
<path d="M31.1309 107.846C31.1309 107.846 56.8394 58.389 102.091 24.6733C102.091 24.6733 53.096 55.77 31.1309 107.846Z" fill="url(#paint45_linear_57_2347)"/>
<path d="M82.0252 118.983C78.7772 121.933 73.7676 121.713 70.7949 118.46C67.8497 115.207 68.0699 110.189 71.3179 107.212C74.5658 104.262 79.5754 104.483 82.5482 107.736C85.5209 110.989 85.2731 116.006 82.0252 118.983Z" fill="url(#paint46_radial_57_2347)"/>
<path d="M75.6396 73.6343C73.355 75.7294 69.8043 75.564 67.7124 73.2483C65.6204 70.9602 65.7856 67.4039 68.0977 65.3087C70.3823 63.2136 73.9331 63.379 76.025 65.6947C78.1169 67.9828 77.9517 71.5391 75.6396 73.6343Z" fill="url(#paint47_radial_57_2347)"/>
<path d="M125.735 89.1548C123.45 91.25 119.899 91.0846 117.808 88.7688C115.716 86.4807 115.881 82.9244 118.193 80.8293C120.478 78.7341 124.028 78.8995 126.12 81.2152C128.212 83.5033 128.019 87.0872 125.735 89.1548Z" fill="url(#paint48_radial_57_2347)"/>
<path opacity="0.5" d="M28.9016 98.7486C28.9016 98.7486 17.0933 75.9774 21.6349 54.4468C21.6349 54.4468 25.3233 46.9208 29.2319 45.5424C29.2319 45.5424 33.691 64.647 41.6458 75.5639L28.9016 98.7486Z" fill="url(#paint49_linear_57_2347)"/>
<path opacity="0.5" d="M80.5391 150.135C80.5391 150.135 126.203 155.484 159.179 145.476C159.179 145.476 143.93 162.982 139.911 172.217C139.883 172.217 110.239 164.829 80.5391 150.135Z" fill="url(#paint50_linear_57_2347)"/>
<path d="M21.1394 57.2313C18.7447 55.7702 20.699 71.8424 22.0477 72.2835C23.3964 72.7245 24.3048 59.1611 21.1394 57.2313Z" fill="white"/>
<path d="M21.9923 73.4136C21.0289 73.5514 22.6529 77.025 23.3135 76.6666C24.0016 76.3082 22.7905 73.3033 21.9923 73.4136Z" fill="white"/>
<path d="M43.3799 86.9218C42.0036 85.5434 38.2602 92.3251 39.6364 92.9592C41.0402 93.6208 44.5084 88.0521 43.3799 86.9218Z" fill="white"/>
<path d="M62.0697 79.7544C61.1614 79.3133 60.4457 83.2004 61.2164 83.2831C62.0147 83.3658 62.8129 80.1127 62.0697 79.7544Z" fill="white"/>
<path opacity="0.5" d="M102.201 30.6831C102.201 30.6831 128.267 45.0736 146.792 65.0052C146.792 65.0052 144.039 56.597 131.35 44.4395C122.157 35.6177 103.385 25.4451 102.614 26.3549C101.843 27.2646 102.201 30.6831 102.201 30.6831Z" fill="url(#paint51_linear_57_2347)"/>
<path opacity="0.5" d="M150.7 141.038C143.957 147.186 133.469 146.717 127.331 139.935C121.193 133.181 121.661 122.678 128.432 116.53C135.176 110.382 145.663 110.851 151.801 117.633C157.939 124.414 157.471 134.863 150.7 141.038Z" fill="url(#paint52_radial_57_2347)"/>
<path opacity="0.85" d="M160.747 162.789C160.747 162.789 190.529 195.292 218.908 227.133C302.529 321.03 289.895 313.972 333 376C333 376 319.54 205.74 176.491 144.346C176.491 144.346 166.362 149.06 160.747 162.789Z" fill="url(#paint53_linear_57_2347)"/>
<path d="M87.8055 24.949C88.1083 25.5831 87.8606 26.3274 87.2275 26.6307C86.5944 26.9339 85.8513 26.6858 85.5485 26.0518C85.2457 25.4177 85.4934 24.6734 86.1265 24.3701C86.7596 24.0669 87.5028 24.3425 87.8055 24.949Z" fill="url(#paint54_linear_57_2347)"/>
<path d="M29.6722 92.711C29.975 93.3451 29.7273 94.0894 29.0942 94.3926C28.4611 94.6959 27.718 94.4478 27.4152 93.8137C27.1124 93.1796 27.3601 92.4353 27.9932 92.1321C28.6263 91.8288 29.3695 92.0769 29.6722 92.711Z" fill="url(#paint55_linear_57_2347)"/>
<path d="M39.2235 101.533C39.5263 102.167 39.2786 102.911 38.6455 103.215C38.0124 103.518 37.2692 103.27 36.9665 102.636C36.6637 102.002 36.9114 101.257 37.5445 100.954C38.1776 100.651 38.9207 100.899 39.2235 101.533Z" fill="url(#paint56_linear_57_2347)"/>
<path d="M97.329 32.2269C97.6318 32.8609 97.384 33.6053 96.751 33.9085C96.1179 34.2118 95.3747 33.9636 95.0719 33.3296C94.7691 32.6955 95.0169 31.9512 95.6499 31.6479C96.2555 31.3447 96.9987 31.5928 97.329 32.2269Z" fill="url(#paint57_linear_57_2347)"/>
<path d="M130.112 114.903C130.414 115.537 130.167 116.282 129.534 116.585C128.901 116.888 128.157 116.64 127.855 116.006C127.552 115.372 127.8 114.628 128.433 114.324C129.066 114.021 129.809 114.297 130.112 114.903Z" fill="url(#paint58_linear_57_2347)"/>
<path opacity="0.5" d="M35.4526 106.936C35.4526 106.936 48.6372 136.186 98.0174 152.947L104.348 141.755C104.348 141.755 63.3357 117.302 45.6094 86.4532C45.5819 86.4808 37.4895 96.874 35.4526 106.936Z" fill="url(#paint59_linear_57_2347)"/>
<path d="M58.8491 17.8639C58.8491 17.8639 64.767 8.40805 75.1716 17.2298L58.8491 17.8639Z" fill="url(#paint60_linear_57_2347)"/>
<path d="M18.5521 76.6391C18.5521 76.6391 9.63388 69.2509 17.6712 61.0632C17.6712 61.0632 18.0291 73.3861 18.5521 76.6391Z" fill="url(#paint61_linear_57_2347)"/>
<path opacity="0.5" d="M76.8775 28.8084C70.1338 34.956 59.6467 34.4874 53.5086 27.7056C47.3704 20.9515 47.8384 10.4481 54.6096 4.30041C61.3532 -1.84726 71.8403 -1.3786 77.9785 5.40313C84.1166 12.1849 83.6211 22.6607 76.8775 28.8084Z" fill="url(#paint62_radial_57_2347)"/>
<path opacity="0.5" d="M16.5427 85.185C25.6789 85.185 33.0853 77.767 33.0853 68.6166C33.0853 59.4661 25.6789 52.0482 16.5427 52.0482C7.4064 52.0482 0 59.4661 0 68.6166C0 77.767 7.4064 85.185 16.5427 85.185Z" fill="url(#paint63_radial_57_2347)"/>
<path d="M73.2442 98.5005C73.4093 99.2724 74.8682 103.463 76.1619 103.325C76.7949 103.242 76.327 102.195 76.2444 98.9967C76.1343 95.7988 75.9417 93.1798 74.7581 93.2901C73.5745 93.4004 72.8864 96.7085 73.2442 98.5005Z" fill="white"/>
</g>
<defs>
<radialGradient id="paint0_radial_57_2347" cx="0" cy="0" r="1" gradientUnits="userSpaceOnUse" gradientTransform="translate(165.85 150.736) rotate(-49.5253) scale(28.8626 28.8556)">
<stop stop-color="#BFBBE2"/>
<stop offset="1" stop-color="#7D75DA"/>
</radialGradient>
<radialGradient id="paint1_radial_57_2347" cx="0" cy="0" r="1" gradientUnits="userSpaceOnUse" gradientTransform="translate(61.4048 63.4058) rotate(-49.5253) scale(36.0053 35.9965)">
<stop stop-color="#7C42B8"/>
<stop offset="1" stop-color="#272A95"/>
</radialGradient>
<radialGradient id="paint2_radial_57_2347" cx="0" cy="0" r="1" gradientUnits="userSpaceOnUse" gradientTransform="translate(30.2072 81.525) rotate(-26.3314) scale(95.9979 96.0885)">
<stop stop-color="#BFBBE2"/>
<stop offset="1" stop-color="#7D75DA"/>
</radialGradient>
<radialGradient id="paint3_radial_57_2347" cx="0" cy="0" r="1" gradientUnits="userSpaceOnUse" gradientTransform="translate(30.209 81.5303) rotate(-26.3314) scale(134.24 134.367)">
<stop stop-color="#BFBBE2"/>
<stop offset="0.6872" stop-color="#7D75DA"/>
<stop offset="0.7645" stop-color="#757BDA"/>
<stop offset="0.8815" stop-color="#618DDA"/>
<stop offset="0.9749" stop-color="#4B9FDA"/>
</radialGradient>
<linearGradient id="paint4_linear_57_2347" x1="229.546" y1="205.23" x2="131.095" y2="121.22" gradientUnits="userSpaceOnUse">
<stop/>
<stop offset="0.2962" stop-color="#372D41"/>
<stop offset="0.6317" stop-color="#705B84"/>
<stop offset="0.8755" stop-color="#9378AE"/>
<stop offset="1" stop-color="#A183BE"/>
</linearGradient>
<radialGradient id="paint5_radial_57_2347" cx="0" cy="0" r="1" gradientUnits="userSpaceOnUse" gradientTransform="translate(168.622 153.568) rotate(-49.5274) scale(11.3104 10.7119)">
<stop stop-color="#5822B6"/>
<stop offset="0.6313" stop-color="#593290"/>
<stop offset="0.9804" stop-color="#31199A"/>
</radialGradient>
<linearGradient id="paint6_linear_57_2347" x1="162.083" y1="163.945" x2="177.866" y2="145.506" gradientUnits="userSpaceOnUse">
<stop stop-color="#00FEF4"/>
<stop offset="1" stop-color="#30A7FB"/>
</linearGradient>
<radialGradient id="paint7_radial_57_2347" cx="0" cy="0" r="1" gradientUnits="userSpaceOnUse" gradientTransform="translate(117.826 107.747) rotate(-49.5253) scale(33.1122 33.1042)">
<stop stop-color="#7C42B8"/>
<stop offset="1" stop-color="#272A95"/>
</radialGradient>
<linearGradient id="paint8_linear_57_2347" x1="158.745" y1="145.97" x2="60.287" y2="61.9656" gradientUnits="userSpaceOnUse">
<stop stop-color="#2128A9"/>
<stop offset="1" stop-color="#E5DCF4"/>
</linearGradient>
<radialGradient id="paint9_radial_57_2347" cx="0" cy="0" r="1" gradientUnits="userSpaceOnUse" gradientTransform="translate(79.4795 76.6394) rotate(-49.5253) scale(42.9507 42.9402)">
<stop stop-color="#A26D9F"/>
<stop offset="1" stop-color="#645AD3"/>
</radialGradient>
<linearGradient id="paint10_linear_57_2347" x1="69.0221" y1="111.553" x2="105.08" y2="69.4276" gradientUnits="userSpaceOnUse">
<stop stop-color="#A183BE"/>
<stop offset="0.1245" stop-color="#9378AE"/>
<stop offset="0.3683" stop-color="#705B84"/>
<stop offset="0.7038" stop-color="#372D41"/>
<stop offset="1"/>
</linearGradient>
<radialGradient id="paint11_radial_57_2347" cx="0" cy="0" r="1" gradientUnits="userSpaceOnUse" gradientTransform="translate(80.4853 76.5606) rotate(-49.5253) scale(26.2586 26.2522)">
<stop stop-color="#368BB8"/>
<stop offset="1" stop-color="#272A95"/>
</radialGradient>
<linearGradient id="paint12_linear_57_2347" x1="113.796" y1="106.646" x2="76.3681" y2="74.708" gradientUnits="userSpaceOnUse">
<stop stop-color="#00FEF4"/>
<stop offset="1" stop-color="#30A7FB"/>
</linearGradient>
<radialGradient id="paint13_radial_57_2347" cx="0" cy="0" r="1" gradientUnits="userSpaceOnUse" gradientTransform="translate(116.364 107.55) rotate(-49.5254) scale(1.6362 1.6358)">
<stop stop-color="#7C42B8"/>
<stop offset="1" stop-color="#272A95"/>
</radialGradient>
<linearGradient id="paint14_linear_57_2347" x1="117.245" y1="108.304" x2="115.118" y2="106.489" gradientUnits="userSpaceOnUse">
<stop stop-color="#00FEF4"/>
<stop offset="1" stop-color="#30A7FB"/>
</linearGradient>
<radialGradient id="paint15_radial_57_2347" cx="0" cy="0" r="1" gradientUnits="userSpaceOnUse" gradientTransform="translate(72.0486 69.6202) rotate(-49.5254) scale(1.6362 1.63581)">
<stop stop-color="#7C42B8"/>
<stop offset="1" stop-color="#272A95"/>
</radialGradient>
<linearGradient id="paint16_linear_57_2347" x1="72.9296" y1="70.3748" x2="70.8027" y2="68.5599" gradientUnits="userSpaceOnUse">
<stop stop-color="#00FEF4"/>
<stop offset="1" stop-color="#30A7FB"/>
</linearGradient>
<radialGradient id="paint17_radial_57_2347" cx="0" cy="0" r="1" gradientUnits="userSpaceOnUse" gradientTransform="translate(77.5071 113.795) rotate(-49.5254) scale(1.6362 1.6358)">
<stop stop-color="#7C42B8"/>
<stop offset="1" stop-color="#272A95"/>
</radialGradient>
<linearGradient id="paint18_linear_57_2347" x1="78.3883" y1="114.549" x2="76.2615" y2="112.734" gradientUnits="userSpaceOnUse">
<stop stop-color="#00FEF4"/>
<stop offset="1" stop-color="#30A7FB"/>
</linearGradient>
<radialGradient id="paint19_radial_57_2347" cx="0" cy="0" r="1" gradientUnits="userSpaceOnUse" gradientTransform="translate(92.5022 59.7982) rotate(-49.5254) scale(1.6362 1.6358)">
<stop stop-color="#7C42B8"/>
<stop offset="1" stop-color="#272A95"/>
</radialGradient>
<linearGradient id="paint20_linear_57_2347" x1="93.3834" y1="60.5526" x2="91.2565" y2="58.7378" gradientUnits="userSpaceOnUse">
<stop stop-color="#00FEF4"/>
<stop offset="1" stop-color="#30A7FB"/>
</linearGradient>
<radialGradient id="paint21_radial_57_2347" cx="0" cy="0" r="1" gradientUnits="userSpaceOnUse" gradientTransform="translate(64.18 92.992) rotate(-49.5253) scale(1.6362 1.6358)">
<stop stop-color="#7C42B8"/>
<stop offset="1" stop-color="#272A95"/>
</radialGradient>
<linearGradient id="paint22_linear_57_2347" x1="65.061" y1="93.7462" x2="62.9342" y2="91.9313" gradientUnits="userSpaceOnUse">
<stop stop-color="#00FEF4"/>
<stop offset="1" stop-color="#30A7FB"/>
</linearGradient>
<radialGradient id="paint23_radial_57_2347" cx="0" cy="0" r="1" gradientUnits="userSpaceOnUse" gradientTransform="translate(121.956 85.007) rotate(-49.5253) scale(1.6362 1.6358)">
<stop stop-color="#7C42B8"/>
<stop offset="1" stop-color="#272A95"/>
</radialGradient>
<linearGradient id="paint24_linear_57_2347" x1="122.837" y1="85.7614" x2="120.71" y2="83.9465" gradientUnits="userSpaceOnUse">
<stop stop-color="#00FEF4"/>
<stop offset="1" stop-color="#30A7FB"/>
</linearGradient>
<radialGradient id="paint25_radial_57_2347" cx="0" cy="0" r="1" gradientUnits="userSpaceOnUse" gradientTransform="translate(93.6328 118.201) rotate(-49.5254) scale(1.63621 1.63581)">
<stop stop-color="#7C42B8"/>
<stop offset="1" stop-color="#272A95"/>
</radialGradient>
<linearGradient id="paint26_linear_57_2347" x1="94.514" y1="118.955" x2="92.3872" y2="117.14" gradientUnits="userSpaceOnUse">
<stop stop-color="#00FEF4"/>
<stop offset="1" stop-color="#30A7FB"/>
</linearGradient>
<radialGradient id="paint27_radial_57_2347" cx="0" cy="0" r="1" gradientUnits="userSpaceOnUse" gradientTransform="translate(114.443 68.8289) rotate(-49.5254) scale(1.6362 1.6358)">
<stop stop-color="#7C42B8"/>
<stop offset="1" stop-color="#272A95"/>
</radialGradient>
<linearGradient id="paint28_linear_57_2347" x1="115.324" y1="69.5833" x2="113.197" y2="67.7684" gradientUnits="userSpaceOnUse">
<stop stop-color="#00FEF4"/>
<stop offset="1" stop-color="#30A7FB"/>
</linearGradient>
<radialGradient id="paint29_radial_57_2347" cx="0" cy="0" r="1" gradientUnits="userSpaceOnUse" gradientTransform="translate(140.226 130.115) rotate(-49.5253) scale(5.27557 5.27429)">
<stop stop-color="#888EE7"/>
<stop offset="1" stop-color="#B8ADEE"/>
</radialGradient>
<radialGradient id="paint30_radial_57_2347" cx="0" cy="0" r="1" gradientUnits="userSpaceOnUse" gradientTransform="translate(143.073 132.436) rotate(-49.5254) scale(5.27559 5.2743)">
<stop stop-color="#D67F86"/>
<stop offset="1" stop-color="#272A95"/>
</radialGradient>
<linearGradient id="paint31_linear_57_2347" x1="142.956" y1="132.452" x2="135.985" y2="126.504" gradientUnits="userSpaceOnUse">
<stop stop-color="#FFFF56"/>
<stop offset="1" stop-color="#FFA500"/>
</linearGradient>
<linearGradient id="paint32_linear_57_2347" x1="162.524" y1="148.359" x2="77.7623" y2="76.031" gradientUnits="userSpaceOnUse">
<stop stop-color="#5D62C0"/>
<stop offset="1" stop-color="#E5DCF4"/>
</linearGradient>
<linearGradient id="paint33_linear_57_2347" x1="101.792" y1="171.036" x2="117.968" y2="152.139" gradientUnits="userSpaceOnUse">
<stop stop-color="#2128A9"/>
<stop offset="1" stop-color="#E5DCF4"/>
</linearGradient>
<radialGradient id="paint34_radial_57_2347" cx="0" cy="0" r="1" gradientUnits="userSpaceOnUse" gradientTransform="translate(79.7971 142.344) rotate(-49.5253) scale(84.4872 84.4667)">
<stop stop-color="#D0CDEA"/>
<stop offset="1" stop-color="#7D75DA"/>
</radialGradient>
<linearGradient id="paint35_linear_57_2347" x1="112.405" y1="194.365" x2="134.976" y2="167.997" gradientUnits="userSpaceOnUse">
<stop stop-color="#2128A9"/>
<stop offset="1" stop-color="#E5DCF4"/>
</linearGradient>
<radialGradient id="paint36_radial_57_2347" cx="0" cy="0" r="1" gradientUnits="userSpaceOnUse" gradientTransform="translate(74.6782 148.348) rotate(-49.5253) scale(83.9081 83.8877)">
<stop stop-color="#FAFAFD"/>
<stop offset="1" stop-color="#C3BFEE"/>
</radialGradient>
<linearGradient id="paint37_linear_57_2347" x1="175.408" y1="84.7596" x2="159.236" y2="103.653" gradientUnits="userSpaceOnUse">
<stop stop-color="#2128A9"/>
<stop offset="1" stop-color="#E5DCF4"/>
</linearGradient>
<radialGradient id="paint38_radial_57_2347" cx="0" cy="0" r="1" gradientUnits="userSpaceOnUse" gradientTransform="translate(143.686 67.4656) rotate(130.475) scale(84.4877 84.4672)">
<stop stop-color="#A7FAFD"/>
<stop offset="1" stop-color="#C3BFEE"/>
</radialGradient>
<linearGradient id="paint39_linear_57_2347" x1="200.072" y1="91.6215" x2="177.502" y2="117.989" gradientUnits="userSpaceOnUse">
<stop stop-color="#2128A9"/>
<stop offset="1" stop-color="#E5DCF4"/>
</linearGradient>
<radialGradient id="paint40_radial_57_2347" cx="0" cy="0" r="1" gradientUnits="userSpaceOnUse" gradientTransform="translate(148.811 61.4649) rotate(130.475) scale(83.9081 83.8877)">
<stop stop-color="#D0CDEA"/>
<stop offset="1" stop-color="#7D75DA"/>
</radialGradient>
<linearGradient id="paint41_linear_57_2347" x1="17.2671" y1="54.68" x2="49.4898" y2="17.0354" gradientUnits="userSpaceOnUse">
<stop stop-color="#2128A9"/>
<stop offset="1" stop-color="#E5DCF4"/>
</linearGradient>
<radialGradient id="paint42_radial_57_2347" cx="0" cy="0" r="1" gradientUnits="userSpaceOnUse" gradientTransform="translate(30.2638 33.1917) rotate(-49.5253) scale(18.2506 18.2462)">
<stop stop-color="#FAFAFD"/>
<stop offset="1" stop-color="#C3BFEE"/>
</radialGradient>
<linearGradient id="paint43_linear_57_2347" x1="69.6201" y1="99.4834" x2="99.9831" y2="64.0115" gradientUnits="userSpaceOnUse">
<stop stop-color="#A183BE"/>
<stop offset="0.1245" stop-color="#9378AE"/>
<stop offset="0.3683" stop-color="#705B84"/>
<stop offset="0.7038" stop-color="#372D41"/>
<stop offset="1"/>
</linearGradient>
<linearGradient id="paint44_linear_57_2347" x1="23.9426" y1="101.678" x2="95.0287" y2="18.6304" gradientUnits="userSpaceOnUse">
<stop stop-color="#E5DCF4"/>
<stop offset="1" stop-color="#2128A9"/>
</linearGradient>
<linearGradient id="paint45_linear_57_2347" x1="-22.3832" y1="164.695" x2="48.7092" y2="81.6401" gradientUnits="userSpaceOnUse">
<stop/>
<stop offset="0.2962" stop-color="#372D41"/>
<stop offset="0.6317" stop-color="#705B84"/>
<stop offset="0.8755" stop-color="#9378AE"/>
<stop offset="1" stop-color="#A183BE"/>
</linearGradient>
<radialGradient id="paint46_radial_57_2347" cx="0" cy="0" r="1" gradientUnits="userSpaceOnUse" gradientTransform="translate(76.6806 113.087) rotate(47.7287) scale(7.95203 7.95086)">
<stop stop-color="#006BFF"/>
<stop offset="0.0569" stop-color="#0063ED"/>
<stop offset="0.3259" stop-color="#00409A"/>
<stop offset="0.5641" stop-color="#002558"/>
<stop offset="0.7626" stop-color="#001128"/>
<stop offset="0.9138" stop-color="#00050B"/>
<stop offset="1"/>
</radialGradient>
<radialGradient id="paint47_radial_57_2347" cx="0" cy="0" r="1" gradientUnits="userSpaceOnUse" gradientTransform="translate(71.8679 69.466) rotate(47.7286) scale(5.62286 5.62204)">
<stop stop-color="#006BFF"/>
<stop offset="0.0569" stop-color="#0063ED"/>
<stop offset="0.3259" stop-color="#00409A"/>
<stop offset="0.5641" stop-color="#002558"/>
<stop offset="0.7626" stop-color="#001128"/>
<stop offset="0.9138" stop-color="#00050B"/>
<stop offset="1"/>
</radialGradient>
<radialGradient id="paint48_radial_57_2347" cx="0" cy="0" r="1" gradientUnits="userSpaceOnUse" gradientTransform="translate(121.955 85.007) rotate(47.7287) scale(5.62286 5.62204)">
<stop stop-color="#006BFF"/>
<stop offset="0.0569" stop-color="#0063ED"/>
<stop offset="0.3259" stop-color="#00409A"/>
<stop offset="0.5641" stop-color="#002558"/>
<stop offset="0.7626" stop-color="#001128"/>
<stop offset="0.9138" stop-color="#00050B"/>
<stop offset="1"/>
</radialGradient>
<linearGradient id="paint49_linear_57_2347" x1="15.5352" y1="87.288" x2="41.951" y2="56.4274" gradientUnits="userSpaceOnUse">
<stop/>
<stop offset="0.2962" stop-color="#372D41"/>
<stop offset="0.6317" stop-color="#705B84"/>
<stop offset="0.8755" stop-color="#9378AE"/>
<stop offset="1" stop-color="#A183BE"/>
</linearGradient>
<linearGradient id="paint50_linear_57_2347" x1="143.471" y1="168.019" x2="98.2168" y2="129.403" gradientUnits="userSpaceOnUse">
<stop stop-color="#E5DCF4"/>
<stop offset="1" stop-color="#2128A9"/>
</linearGradient>
<linearGradient id="paint51_linear_57_2347" x1="147.681" y1="63.9798" x2="103.025" y2="25.874" gradientUnits="userSpaceOnUse">
<stop/>
<stop offset="0.2962" stop-color="#372D41"/>
<stop offset="0.6317" stop-color="#705B84"/>
<stop offset="0.8755" stop-color="#9378AE"/>
<stop offset="1" stop-color="#A183BE"/>
</linearGradient>
<radialGradient id="paint52_radial_57_2347" cx="0" cy="0" r="1" gradientUnits="userSpaceOnUse" gradientTransform="translate(139.569 128.782) rotate(47.7287) scale(16.5565 16.554)">
<stop stop-color="#FF5115"/>
<stop offset="0.0569" stop-color="#ED4B13"/>
<stop offset="0.3259" stop-color="#9A310D"/>
<stop offset="0.5641" stop-color="#581C07"/>
<stop offset="0.7626" stop-color="#280D03"/>
<stop offset="0.9138" stop-color="#0B0301"/>
<stop offset="1"/>
</radialGradient>
<linearGradient id="paint53_linear_57_2347" x1="314.814" y1="385.007" x2="191.924" y2="136.701" gradientUnits="userSpaceOnUse">
<stop/>
<stop offset="0.1116" stop-color="#050506"/>
<stop offset="0.2653" stop-color="#141418"/>
<stop offset="0.4433" stop-color="#2C2D35"/>
<stop offset="0.6397" stop-color="#4D4F5E"/>
<stop offset="0.8486" stop-color="#777A91"/>
<stop offset="1" stop-color="#9A9DBB"/>
</linearGradient>
<linearGradient id="paint54_linear_57_2347" x1="87.2423" y1="26.6374" x2="86.1267" y2="24.3833" gradientUnits="userSpaceOnUse">
<stop stop-color="#634BDE"/>
<stop offset="1" stop-color="#CCC4FF"/>
</linearGradient>
<linearGradient id="paint55_linear_57_2347" x1="29.0961" y1="94.3971" x2="27.9807" y2="92.1433" gradientUnits="userSpaceOnUse">
<stop stop-color="#634BDE"/>
<stop offset="1" stop-color="#CCC4FF"/>
</linearGradient>
<linearGradient id="paint56_linear_57_2347" x1="38.6618" y1="103.212" x2="37.5464" y2="100.958" gradientUnits="userSpaceOnUse">
<stop stop-color="#634BDE"/>
<stop offset="1" stop-color="#CCC4FF"/>
</linearGradient>
<linearGradient id="paint57_linear_57_2347" x1="96.7493" y1="33.9096" x2="95.6338" y2="31.6557" gradientUnits="userSpaceOnUse">
<stop stop-color="#634BDE"/>
<stop offset="1" stop-color="#CCC4FF"/>
</linearGradient>
<linearGradient id="paint58_linear_57_2347" x1="129.554" y1="116.592" x2="128.438" y2="114.338" gradientUnits="userSpaceOnUse">
<stop stop-color="#634BDE"/>
<stop offset="1" stop-color="#CCC4FF"/>
</linearGradient>
<linearGradient id="paint59_linear_57_2347" x1="99.952" y1="150.66" x2="36.7995" y2="96.771" gradientUnits="userSpaceOnUse">
<stop/>
<stop offset="0.2962" stop-color="#372D41"/>
<stop offset="0.6317" stop-color="#705B84"/>
<stop offset="0.8755" stop-color="#9378AE"/>
<stop offset="1" stop-color="#A183BE"/>
</linearGradient>
<linearGradient id="paint60_linear_57_2347" x1="60.0321" y1="20.2391" x2="73.4037" y2="13.6419" gradientUnits="userSpaceOnUse">
<stop stop-color="#FFFF56"/>
<stop offset="1" stop-color="#FFA500"/>
</linearGradient>
<linearGradient id="paint61_linear_57_2347" x1="14.4624" y1="70.6625" x2="20.8521" y2="67.51" gradientUnits="userSpaceOnUse">
<stop stop-color="#FFFF56"/>
<stop offset="1" stop-color="#FFA500"/>
</linearGradient>
<radialGradient id="paint62_radial_57_2347" cx="0" cy="0" r="1" gradientUnits="userSpaceOnUse" gradientTransform="translate(65.7284 16.5684) rotate(47.7287) scale(16.5571 16.5546)">
<stop stop-color="#FF5115"/>
<stop offset="0.0569" stop-color="#ED4B13"/>
<stop offset="0.3259" stop-color="#9A310D"/>
<stop offset="0.5641" stop-color="#581C07"/>
<stop offset="0.7626" stop-color="#280D03"/>
<stop offset="0.9138" stop-color="#0B0301"/>
<stop offset="1"/>
</radialGradient>
<radialGradient id="paint63_radial_57_2347" cx="0" cy="0" r="1" gradientUnits="userSpaceOnUse" gradientTransform="translate(16.5429 68.6288) rotate(47.7287) scale(16.5571 16.5546)">
<stop stop-color="#FF5115"/>
<stop offset="0.0569" stop-color="#ED4B13"/>
<stop offset="0.3259" stop-color="#9A310D"/>
<stop offset="0.5641" stop-color="#581C07"/>
<stop offset="0.7626" stop-color="#280D03"/>
<stop offset="0.9138" stop-color="#0B0301"/>
<stop offset="1"/>
</radialGradient>
<clipPath id="clip0_57_2347">
<rect width="333" height="376" fill="white"/>
</clipPath>
</defs>
</svg>
