<svg width="203" height="160" viewBox="0 0 203 160" fill="none" xmlns="http://www.w3.org/2000/svg">
<g opacity="0.8" clip-path="url(#clip0_57_42056)">
<path d="M38.001 3.16601L116.21 43.5922C127.733 49.6805 125.772 70.3806 111.552 89.6196C97.3319 108.859 78.2087 116.895 69.1375 107.641L8.09036 43.8357C-0.980891 34.338 -2.69707 18.752 4.16766 9.49782C11.2776 9.93833e-05 26.478 -2.92228 38.001 3.16601Z" fill="url(#paint0_radial_57_42056)"/>
<path d="M38.001 3.16601L116.21 43.5922C127.733 49.6805 125.772 70.3806 111.552 89.6196C97.3319 108.859 78.2087 116.895 69.1375 107.641L8.09036 43.8357C-0.980891 34.338 -2.69707 18.752 4.16766 9.49782C11.2776 9.93833e-05 26.478 -2.92228 38.001 3.16601Z" fill="url(#paint1_radial_57_42056)"/>
<path d="M32.3619 10.7154L107.874 55.038C119.152 61.6134 120.868 77.1994 111.551 89.6195C102.48 102.04 87.0346 104.962 77.473 96.1948L13.2387 36.7732C3.67712 28.0061 -0.490757 15.8295 3.92229 9.74124C8.33533 3.89649 21.3293 4.14002 32.3619 10.7154Z" fill="url(#paint2_radial_57_42056)"/>
<path d="M26.4781 18.7521L98.803 66.9713C109.59 74.0337 115.229 84.262 111.552 89.3762C107.874 94.4903 96.3513 92.055 86.2993 84.0185L18.6327 29.4675C8.58074 21.431 1.716 12.9074 3.67736 10.2285C5.39354 7.79321 15.6906 11.6897 26.4781 18.7521Z" fill="url(#paint3_radial_57_42056)"/>
<path d="M140.236 60.1522C147.101 55.2816 146.611 28.9802 146.611 28.9802C179.218 51.6286 173.089 84.0183 172.599 84.7489C168.431 90.8372 133.372 65.0229 140.236 60.1522ZM94.1446 122.74C91.4477 130.776 66.1953 138.326 66.1953 138.326C97.8221 162.435 126.997 146.849 127.488 146.119C131.901 140.03 96.8414 114.703 94.1446 122.74Z" fill="url(#paint4_radial_57_42056)"/>
<path opacity="0.25" d="M166.715 80.6088C164.998 82.8006 159.114 80.6088 152.495 76.7123C160.831 83.0442 170.637 87.6712 172.844 84.7489C173.334 84.0183 179.463 51.6286 146.856 28.9802C146.856 28.9802 146.856 29.2238 146.856 29.4673C172.354 51.6286 167.205 79.8783 166.715 80.6088Z" fill="url(#paint5_radial_57_42056)"/>
<path opacity="0.25" d="M121.358 141.979C120.868 142.709 95.3704 156.104 66.4404 138.569C98.0672 162.192 126.997 146.849 127.488 146.119C130.184 142.709 119.152 132.481 109.1 126.393C116.945 132.238 123.565 139.056 121.358 141.979Z" fill="url(#paint6_radial_57_42056)"/>
<g opacity="0.5">
<path opacity="0.5" d="M147.836 65.0228C153.966 60.6393 154.211 39.4521 154.456 34.825C152.249 32.8767 149.798 30.9285 147.101 28.9802C147.101 28.9802 147.346 55.0381 140.726 60.1522C136.313 63.3181 149.062 75.0076 159.85 81.3394C151.024 75.0076 144.404 67.4582 147.836 65.0228Z" fill="url(#paint7_radial_57_42056)"/>
<path opacity="0.5" d="M73.5504 143.196C74.7762 142.953 98.8028 135.403 101.254 127.61C102.235 124.444 108.61 126.636 115.474 130.533C106.403 123.714 95.3704 118.113 93.8994 122.496C91.4477 130.776 66.1953 138.326 66.1953 138.326C68.647 140.274 71.0987 141.979 73.5504 143.196Z" fill="url(#paint8_radial_57_42056)"/>
</g>
<path d="M139.501 54.064C139.501 54.064 223.104 123.227 198.342 151.963C173.825 180.7 88.5059 122.983 88.5059 122.983C88.5059 122.983 90.4672 75.2512 139.501 54.064Z" fill="url(#paint9_radial_57_42056)"/>
<path d="M100.519 121.766C102.726 84.5052 132.881 69.1628 141.953 65.5098C134.352 58.6909 128.959 54.3074 128.959 54.3074C84.0928 69.6498 86.0542 112.511 86.0542 112.511C86.0542 112.511 91.6931 116.408 100.519 121.766Z" fill="url(#paint10_radial_57_42056)"/>
<path d="M177.012 134.916C171.373 142.709 168.676 151.477 168.921 159.27C181.18 160.974 191.967 159.513 198.587 151.964C205.696 143.684 203.735 132.238 197.606 120.061C190.006 122.253 182.405 127.367 177.012 134.916Z" fill="url(#paint11_radial_57_42056)"/>
<path d="M177.502 160C177.747 152.694 180.444 144.658 185.593 137.595C189.515 132.237 194.664 127.854 200.058 125.175C199.322 123.47 198.587 121.766 197.606 119.817C190.006 122.009 182.651 127.123 177.012 134.673C171.373 142.466 168.676 151.233 168.921 159.026C171.863 159.756 174.56 160 177.502 160Z" fill="url(#paint12_radial_57_42056)"/>
<path d="M103.216 132.237C108.855 90.1066 142.198 70.6241 152.25 65.5099C144.65 58.4475 139.501 54.064 139.501 54.064C90.4672 75.0076 88.751 122.983 88.751 122.983C88.751 122.983 94.3899 126.88 103.216 132.237Z" fill="url(#paint13_radial_57_42056)"/>
<path opacity="0.5" d="M134.843 131.263C125.527 124.445 123.565 111.537 130.43 102.283C137.295 93.029 150.289 91.0808 159.605 97.8996C168.921 104.719 170.883 117.626 164.018 126.88C157.399 135.89 144.159 137.839 134.843 131.263Z" fill="url(#paint14_radial_57_42056)"/>
<path d="M136.559 131.75C127.243 124.932 125.281 112.024 132.146 102.77C139.011 93.5161 152.005 91.5678 161.321 98.3867C170.638 105.206 172.599 118.113 165.734 127.367C159.115 136.621 145.876 138.569 136.559 131.75Z" fill="url(#paint15_radial_57_42056)"/>
<path d="M149.063 132.238C158.541 132.238 166.225 124.605 166.225 115.19C166.225 105.776 158.541 98.1433 149.063 98.1433C139.584 98.1433 131.901 105.776 131.901 115.19C131.901 124.605 139.584 132.238 149.063 132.238Z" fill="url(#paint16_radial_57_42056)"/>
<path d="M139.746 127.611C132.881 122.496 131.41 112.999 136.314 106.18C141.462 99.3609 151.024 97.8997 157.888 102.77C164.753 107.885 166.224 117.382 161.321 124.201C156.417 131.02 146.856 132.481 139.746 127.611Z" fill="#28003E"/>
<path d="M158.134 104.962C154.456 105.693 151.024 107.641 148.572 111.05C144.404 116.652 144.65 123.958 148.572 129.315C152.25 128.585 155.682 126.636 158.134 123.227C162.302 117.626 162.057 110.32 158.134 104.962Z" fill="#28003E"/>
<path d="M146.365 130.289C139.991 125.175 138.52 115.921 143.669 109.102C147.346 104.232 153.23 102.04 158.869 103.014C158.624 102.77 158.624 102.77 158.379 102.527C151.514 97.4127 141.707 98.8739 136.804 105.936C131.655 112.755 133.126 122.496 140.236 127.367C141.952 129.072 144.159 129.802 146.365 130.289Z" fill="#28003E"/>
<path d="M139.746 53.8206C90.7123 74.7642 88.9961 122.74 88.9961 122.74C88.9961 122.74 131.41 151.477 164.999 158.295C111.061 133.942 107.629 93.5161 135.088 77.9301C158.379 64.7795 187.309 104.232 198.832 121.522C184.122 90.5938 139.746 53.8206 139.746 53.8206Z" fill="url(#paint17_radial_57_42056)"/>
<path opacity="0.25" d="M201.529 141.735C202.755 143.44 198.832 124.688 178.238 100.335C157.644 75.982 135.824 59.4219 135.824 59.4219C135.824 59.4219 123.565 61.6137 113.758 74.7643C114.003 74.7643 155.682 79.635 201.529 141.735Z" fill="url(#paint18_radial_57_42056)"/>
<path d="M154.947 129.315L141.217 101.796C139.501 102.77 137.785 104.231 136.559 105.936C136.559 105.936 136.559 106.18 136.314 106.18L149.553 130.289C151.269 130.289 153.231 130.046 154.947 129.315Z" fill="#28003E"/>
<path d="M161.566 124.201C162.302 123.47 162.792 122.496 163.037 121.522L152.25 100.091C150.044 99.6043 147.592 99.6043 145.14 100.091L159.36 126.149C160.341 125.662 161.076 124.932 161.566 124.201Z" fill="#28003E"/>
</g>
<defs>
<radialGradient id="paint0_radial_57_42056" cx="0" cy="0" r="1" gradientUnits="userSpaceOnUse" gradientTransform="translate(108.36 87.3696) rotate(-143.971) scale(128.059 189.599)">
<stop offset="0.0814815" stop-color="#FFE245"/>
<stop offset="0.5259" stop-color="#DE007B" stop-opacity="0.4741"/>
<stop offset="1" stop-color="#E38427" stop-opacity="0"/>
</radialGradient>
<radialGradient id="paint1_radial_57_42056" cx="0" cy="0" r="1" gradientUnits="userSpaceOnUse" gradientTransform="translate(108.36 87.3696) rotate(-143.971) scale(128.059 189.599)">
<stop offset="0.0814815" stop-color="#FFE245"/>
<stop offset="0.5259" stop-color="#DE007B" stop-opacity="0.4741"/>
<stop offset="1" stop-color="#E38427" stop-opacity="0"/>
</radialGradient>
<radialGradient id="paint2_radial_57_42056" cx="0" cy="0" r="1" gradientUnits="userSpaceOnUse" gradientTransform="translate(108.43 87.2741) rotate(-143.971) scale(128.059 121.65)">
<stop offset="0.0814815" stop-color="#FFE245"/>
<stop offset="0.5259" stop-color="#DE007B" stop-opacity="0.4741"/>
<stop offset="1" stop-color="#E38427" stop-opacity="0"/>
</radialGradient>
<radialGradient id="paint3_radial_57_42056" cx="0" cy="0" r="1" gradientUnits="userSpaceOnUse" gradientTransform="translate(108.503 87.1744) rotate(-143.971) scale(128.058 50.4422)">
<stop offset="0.0814815" stop-color="#FFE245"/>
<stop offset="0.5259" stop-color="#DE007B" stop-opacity="0.4741"/>
<stop offset="1" stop-color="#E38427" stop-opacity="0"/>
</radialGradient>
<radialGradient id="paint4_radial_57_42056" cx="0" cy="0" r="1" gradientUnits="userSpaceOnUse" gradientTransform="translate(145.404 109.604) rotate(126.39) scale(114.164 114.393)">
<stop offset="0.00740741" stop-color="#B30058"/>
<stop offset="1" stop-color="#5C2D7D"/>
</radialGradient>
<radialGradient id="paint5_radial_57_42056" cx="0" cy="0" r="1" gradientUnits="userSpaceOnUse" gradientTransform="translate(174.44 70.2055) rotate(126.39) scale(67.9959 68.1323)">
<stop offset="0.00370374" stop-color="#8EE1EE"/>
<stop offset="0.937" stop-color="#5E8DEC"/>
</radialGradient>
<radialGradient id="paint6_radial_57_42056" cx="0" cy="0" r="1" gradientUnits="userSpaceOnUse" gradientTransform="translate(114.751 151.284) rotate(126.39) scale(67.5589 67.6945)">
<stop offset="0.00370374" stop-color="#8EE1EE"/>
<stop offset="0.937" stop-color="#5E8DEC"/>
</radialGradient>
<radialGradient id="paint7_radial_57_42056" cx="0" cy="0" r="1" gradientUnits="userSpaceOnUse" gradientTransform="translate(165.461 63.6752) rotate(126.39) scale(54.2288 54.3376)">
<stop offset="0.00740741" stop-color="#B30058"/>
<stop offset="1" stop-color="#5C2D7D"/>
</radialGradient>
<radialGradient id="paint8_radial_57_42056" cx="0" cy="0" r="1" gradientUnits="userSpaceOnUse" gradientTransform="translate(101.63 141.748) rotate(126.39) scale(48.2094 48.3062)">
<stop offset="0.00740741" stop-color="#B30058"/>
<stop offset="1" stop-color="#5C2D7D"/>
</radialGradient>
<radialGradient id="paint9_radial_57_42056" cx="0" cy="0" r="1" gradientUnits="userSpaceOnUse" gradientTransform="translate(166.219 135.872) rotate(126.39) scale(129.343 129.603)">
<stop offset="0.0814815" stop-color="#FFE245"/>
<stop offset="0.9963" stop-color="#E38427"/>
</radialGradient>
<radialGradient id="paint10_radial_57_42056" cx="0" cy="0" r="1" gradientUnits="userSpaceOnUse" gradientTransform="translate(121.901 93.4645) rotate(126.393) scale(59.2656 70.4017)">
<stop stop-color="#D1E1EE"/>
<stop offset="0.337" stop-color="#8EE1EE"/>
<stop offset="0.9444" stop-color="#732FA4"/>
</radialGradient>
<radialGradient id="paint11_radial_57_42056" cx="0" cy="0" r="1" gradientUnits="userSpaceOnUse" gradientTransform="translate(199.443 151.271) rotate(126.39) scale(49.6938 49.7935)">
<stop offset="0.00740741" stop-color="#B30058"/>
<stop offset="1" stop-color="#5C2D7D"/>
</radialGradient>
<radialGradient id="paint12_radial_57_42056" cx="0" cy="0" r="1" gradientUnits="userSpaceOnUse" gradientTransform="translate(189.502 144.042) rotate(126.39) scale(38.9526 39.0308)">
<stop offset="0.00740741" stop-color="#B30058"/>
<stop offset="1" stop-color="#5C2D7D"/>
</radialGradient>
<radialGradient id="paint13_radial_57_42056" cx="0" cy="0" r="1" gradientUnits="userSpaceOnUse" gradientTransform="translate(128.48 98.5587) rotate(126.39) scale(70.257 70.398)">
<stop offset="0.00740741" stop-color="#B30058"/>
<stop offset="1" stop-color="#5C2D7D"/>
</radialGradient>
<radialGradient id="paint14_radial_57_42056" cx="0" cy="0" r="1" gradientUnits="userSpaceOnUse" gradientTransform="translate(159.953 122.897) rotate(126.39) scale(56.9227 57.037)">
<stop offset="0.00740741" stop-color="#B30058"/>
<stop offset="1" stop-color="#5C2D7D"/>
</radialGradient>
<radialGradient id="paint15_radial_57_42056" cx="0" cy="0" r="1" gradientUnits="userSpaceOnUse" gradientTransform="translate(161.655 123.562) rotate(126.39) scale(56.9225 57.0367)">
<stop stop-color="#D1E1EE"/>
<stop offset="0.337" stop-color="#8EE1EE"/>
<stop offset="0.9444" stop-color="#732FA4"/>
</radialGradient>
<radialGradient id="paint16_radial_57_42056" cx="0" cy="0" r="1" gradientUnits="userSpaceOnUse" gradientTransform="translate(159.433 122.073) rotate(126.39) scale(46.9225 47.0167)">
<stop stop-color="#D1E1EE"/>
<stop offset="0.337" stop-color="#8EE1EE"/>
<stop offset="0.9444" stop-color="#732FA4"/>
</radialGradient>
<radialGradient id="paint17_radial_57_42056" cx="0" cy="0" r="1" gradientUnits="userSpaceOnUse" gradientTransform="translate(175.014 130.99) rotate(126.39) scale(131.454 131.718)">
<stop offset="0.0814815" stop-color="#FFE245"/>
<stop offset="0.9963" stop-color="#E38427"/>
</radialGradient>
<radialGradient id="paint18_radial_57_42056" cx="0" cy="0" r="1" gradientUnits="userSpaceOnUse" gradientTransform="translate(198.142 121.407) rotate(126.39) scale(131.1 131.363)">
<stop offset="0.00370374" stop-color="#8EE1EE"/>
<stop offset="0.937" stop-color="#5E8DEC"/>
</radialGradient>
<clipPath id="clip0_57_42056">
<rect width="203" height="160" fill="white"/>
</clipPath>
</defs>
</svg>
