<svg width="24" height="24" viewBox="0 0 24 24" fill="none" xmlns="http://www.w3.org/2000/svg">
<path d="M23.1014 5.23763C23.0068 5.11116 22.8748 5.01775 22.724 4.97074C22.5733 4.92372 22.4115 4.92549 22.2619 4.97579C21.3419 5.28516 20.3858 5.47468 19.4174 5.53966C18.8706 4.76995 18.0956 4.1917 17.202 3.88676C16.3085 3.58182 15.3417 3.56564 14.4384 3.84051C13.5351 4.11537 12.7412 4.66737 12.169 5.41835C11.5968 6.16934 11.2752 7.08128 11.2499 8.02509C9.78648 7.72799 8.39708 7.14176 7.16314 6.30078C5.92919 5.45979 4.87552 4.38097 4.06389 3.12752C3.98513 3.00651 3.87312 2.91081 3.7413 2.8519C3.60949 2.79298 3.46347 2.77337 3.32078 2.79541C3.17809 2.81745 3.0448 2.88021 2.9369 2.97615C2.82901 3.07209 2.75109 3.19713 2.71252 3.33627C2.05341 5.71872 2.09996 8.24127 2.84653 10.5978C3.59309 12.9543 5.00758 15.0435 6.91832 16.6118C5.31052 17.4966 3.5099 17.9729 1.67487 17.9985C1.50954 18.001 1.34967 18.058 1.22007 18.1607C1.09047 18.2634 0.998397 18.406 0.958139 18.5663C0.917881 18.7267 0.931694 18.8959 0.997434 19.0476C1.06317 19.1993 1.17716 19.325 1.3217 19.4053C3.20146 20.4459 5.31366 20.9947 7.46223 21.0008C9.61079 21.0069 11.7261 20.47 13.6116 19.44C15.4972 18.41 17.092 16.9202 18.248 15.1091C19.4039 13.298 20.0835 11.2241 20.2236 9.08015C21.3429 8.25703 22.3197 7.25601 23.1151 6.1169C23.2057 5.98756 23.2531 5.83293 23.2506 5.67504C23.2482 5.51716 23.1959 5.36408 23.1014 5.23763V5.23763Z" fill="url(#paint0_linear_426_8221)"/>
<defs>
<linearGradient id="paint0_linear_426_8221" x1="0.943153" y1="11.9293" x2="23.2512" y2="11.9293" gradientUnits="userSpaceOnUse">
<stop stop-color="#DA9917"/>
<stop offset="0.3198" stop-color="#FFCF25"/>
<stop offset="0.6802" stop-color="#FFFF90"/>
<stop offset="1" stop-color="#ECBF26"/>
</linearGradient>
</defs>
</svg>
